<svg viewBox="57.587500000000034 35.944148936170194 155.825 220.41223404255317" fill="none" xmlns="http://www.w3.org/2000/svg" xmlns:xlink="http://www.w3.org/1999/xlink" overflow="visible" width="155.825px" height="220.41223404255317px"><g id="Master/Male Character/Running"><g id="Male Character Running/Lower Body" transform="translate(61 131) scale(1 1)"><g id="Male Character Running/Lower Body/Leggings 2"><g id="Group 119"><path id="Fill 1" fill-rule="evenodd" clip-rule="evenodd" d="M92.7831 11.5706C92.7831 11.5706 92.2131 2.7716 79.8351 1.4486C67.4571 0.126601 54.7961 5.7006 59.5201 26.5826C59.5201 26.5826 52.0551 52.2836 50.8271 59.0866C50.8271 59.0866 49.2211 62.3936 43.4571 64.9446C37.6941 67.4966 28.8121 73.1656 22.4811 81.6696C16.1501 90.1736 16.2441 92.0626 10.2921 92.7236C4.33908 93.3856 4.05508 105.197 8.40208 105.481C12.7481 105.764 15.5831 106.142 16.0551 105.009C16.5281 103.875 26.7331 89.8896 57.5361 78.1736C57.5361 78.1736 64.0551 77.5116 67.4571 71.9366C70.8591 66.3626 83.2371 40.0936 83.2371 40.0936C83.2371 40.0936 98.5441 44.4406 104.307 45.3856C104.307 45.3856 109.087 47.2196 108.237 50.1496C107.387 53.0786 106.253 67.9136 109.181 73.6766C112.111 79.4406 118.575 92.3456 117.064 105.102C115.552 117.859 128.969 107.465 129.82 105.009C130.67 102.551 125.757 103.497 125.757 91.2126C125.757 78.9286 126.701 50.2996 127.174 45.7636C127.646 41.2276 128.213 35.2756 122.45 30.3626C116.685 25.4486 92.7831 11.5706 92.7831 11.5706" fill="#db8c5c"/><path id="Fill 3" fill-rule="evenodd" clip-rule="evenodd" d="M92.7813 11.5706C92.7813 11.5706 92.2113 2.7716 79.8333 1.4486C67.4553 0.126601 54.7943 5.7006 59.5183 26.5826C59.5183 26.5826 52.0533 52.2836 50.8253 59.0866C50.8253 59.0866 49.2193 62.3936 43.4553 64.9446C37.6923 67.4966 28.8093 73.1656 22.4793 81.6696C20.1913 84.7426 17.2403 87.4046 16.0423 89.0046C15.7593 89.3826 22.1943 99.9466 22.6503 99.6516C28.9223 95.5936 40.9663 85.6756 58.9513 78.8346C58.9513 78.8346 64.0533 77.5116 67.4553 71.9366C70.8573 66.3626 83.2353 40.0936 83.2353 40.0936C83.2353 40.0936 98.8963 45.6456 104.66 46.5906C104.66 46.5906 107.849 48.4796 106.999 51.4096C106.148 54.3386 104.849 67.6146 107.778 73.3786C109.947 77.6456 112.731 88.0856 114.103 97.2236C114.17 97.6716 126.398 96.8966 126.398 95.1696C126.398 82.8856 126.699 50.2996 127.172 45.7636C127.644 41.2276 128.211 35.2756 122.448 30.3626C116.683 25.4486 92.7813 11.5706 92.7813 11.5706" fill="#2E313B"/><path id="Fill 5" fill-rule="evenodd" clip-rule="evenodd" d="M74.2598 16.7562C77.6578 17.8122 80.9938 19.0502 84.3048 20.3482C87.6228 21.6332 90.8818 23.0662 94.1118 24.5632C97.3348 26.0742 100.514 27.6912 103.584 29.5072C106.642 31.3232 109.685 33.2552 112.244 35.7482L110.083 34.1932L107.834 32.7802C106.309 31.8812 104.785 30.9852 103.208 30.1782C100.074 28.5332 96.9058 26.9522 93.6878 25.4672C90.4828 23.9542 87.2478 22.5042 84.0098 21.0542L74.2598 16.7562Z" fill="#190A16"/><path id="Fill 7" fill-rule="evenodd" clip-rule="evenodd" d="M107.803 43.0238C109.452 42.3648 111.067 41.6818 112.633 40.8948C113.423 40.5158 114.181 40.0808 114.943 39.6458C115.702 39.2068 116.421 38.7058 117.157 38.2048C115.96 39.5258 114.447 40.5448 112.856 41.3418C112.054 41.7338 111.234 42.0878 110.388 42.3668C109.543 42.6478 108.684 42.8908 107.803 43.0238" fill="#190A16"/><path id="Fill 9" fill-rule="evenodd" clip-rule="evenodd" d="M106.857 44.4408C109.037 43.7798 111.199 43.1218 113.327 42.3608C115.455 41.6008 117.538 40.7498 119.519 39.6228C118.643 40.3548 117.657 40.9498 116.645 41.4808C115.628 42.0088 114.566 42.4368 113.495 42.8318C112.417 43.2098 111.324 43.5428 110.215 43.8088C109.107 44.0778 107.991 44.3108 106.857 44.4408" fill="#190A16"/><path id="Fill 11" fill-rule="evenodd" clip-rule="evenodd" d="M108.275 45.0081C109.693 45.0381 111.063 44.8231 112.411 44.5041C113.085 44.3391 113.75 44.1411 114.413 43.9241C115.078 43.7091 115.727 43.4461 116.401 43.2121C116.112 43.4201 115.81 43.6081 115.507 43.7971C115.191 43.9581 114.881 44.1381 114.554 44.2811C113.908 44.5891 113.223 44.8091 112.529 44.9891C111.829 45.1481 111.117 45.2621 110.398 45.2701C109.682 45.2801 108.956 45.2341 108.275 45.0081" fill="#190A16"/><path id="Fill 13" fill-rule="evenodd" clip-rule="evenodd" d="M116.874 47.6536C116.86 49.7116 116.82 51.7646 116.835 53.8206C116.821 55.8736 116.825 57.9266 116.865 59.9776C116.951 64.0806 117.043 68.1706 117.611 72.2246C118.036 76.3136 118.503 80.3976 118.888 84.4916L119.445 90.6336C119.595 92.6846 119.778 94.7326 119.897 96.7876C119.553 94.7576 119.272 92.7206 118.958 90.6886L118.124 84.5786C117.581 80.5046 117.122 76.4206 116.619 72.3406C116.129 68.2376 116.02 64.0896 116.1 59.9756C116.194 55.8566 116.423 51.7456 116.874 47.6536" fill="#190A16"/><path id="Fill 15" fill-rule="evenodd" clip-rule="evenodd" d="M63.0156 29.1341C64.6256 30.2001 66.2866 31.1581 67.9366 32.1271C69.5976 33.0771 71.2696 34.0041 72.9616 34.8961C74.6516 35.7911 76.3586 36.6551 78.0736 37.5121C79.7906 38.3641 81.5156 39.2101 83.2356 40.0941C81.3756 39.5721 79.5376 38.9631 77.7526 38.2241C75.9566 37.5051 74.2116 36.6691 72.4946 35.7791C70.7916 34.8591 69.1186 33.8821 67.5226 32.7841C65.9246 31.6951 64.3846 30.5031 63.0156 29.1341" fill="#190A16"/><path id="Fill 17" fill-rule="evenodd" clip-rule="evenodd" d="M70.1018 38.2991C69.2838 40.7201 68.3648 43.0961 67.4298 45.4661C66.5068 47.8401 65.5108 50.1831 64.5148 52.5271C63.4968 54.8611 62.4768 57.1931 61.3858 59.4961L59.7448 62.9491C59.1648 64.0861 58.6158 65.2361 58.0078 66.3621C58.4068 65.1491 58.8658 63.9611 59.2928 62.7591L60.6768 59.1961C61.6018 56.8221 62.5978 54.4781 63.5948 52.1351C64.6148 49.8011 65.6348 47.4671 66.7268 45.1641C67.8078 42.8571 68.9048 40.5561 70.1018 38.2991" fill="#190A16"/><path id="Fill 19" fill-rule="evenodd" clip-rule="evenodd" d="M50.3535 63.1497L53.0115 67.3247C53.4555 68.0147 53.9265 68.6827 54.4115 69.3397C54.9045 69.9897 55.4305 70.6177 56.1175 71.0867C55.3235 70.7987 54.6785 70.1977 54.1165 69.5867C53.5475 68.9697 53.0535 68.2927 52.5935 67.5977C52.1455 66.8947 51.7205 66.1787 51.3505 65.4337C50.9775 64.6917 50.6285 63.9367 50.3535 63.1497" fill="#190A16"/><path id="Fill 21" fill-rule="evenodd" clip-rule="evenodd" d="M49.3145 63.055C49.8025 64.796 50.2085 66.54 50.6645 68.271C50.8795 69.14 51.1295 69.996 51.3785 70.853C51.6395 71.706 51.9195 72.553 52.3375 73.354C51.7425 72.663 51.3555 71.819 51.0165 70.982C50.6755 70.139 50.4095 69.271 50.1815 68.397C49.9615 67.52 49.7625 66.638 49.6245 65.745C49.4805 64.855 49.3585 63.959 49.3145 63.055" fill="#190A16"/><path id="Fill 23" fill-rule="evenodd" clip-rule="evenodd" d="M21.3457 91.2122L24.7827 88.6942L28.2417 86.2212C30.5357 84.5562 32.8547 82.9312 35.1077 81.2302C37.3507 79.5312 39.6177 77.7742 41.9647 76.1832C44.3047 74.5702 46.6727 72.9992 49.1257 71.5592L45.7837 74.2022L42.4197 76.8042L35.7067 82.0292C33.4167 83.7272 31.0747 85.3372 28.6707 86.8552C26.2727 88.3792 23.8477 89.8582 21.3457 91.2122" fill="#190A16"/><path id="Fill 25" fill-rule="evenodd" clip-rule="evenodd" d="M10.1024 92.7718C10.1024 92.7718 12.0864 92.1578 11.0944 96.2198C10.1024 100.284 11.1424 101.371 13.2684 101.654C15.3944 101.937 15.9134 102.693 15.9134 102.693C15.9134 102.693 3.44138 106.425 10.1024 92.7718" fill="#E3E3E3"/><g id="Group 29"><path id="Fill 27" fill-rule="evenodd" clip-rule="evenodd" d="M-1 94.0472C-1 94.0472 0.748 101.276 1.882 103.26C3.016 105.244 3.677 107.181 3.771 112.378C3.866 117.574 5.567 123.433 11.803 124L12.559 122.677C12.559 122.677 7.693 109.59 8.212 102.834C8.732 96.0782 2.543 94.1422 2.543 94.1422L-1 94.0472Z" fill="#E3E3E3"/></g><g id="Group 32"><path id="Fill 30" fill-rule="evenodd" clip-rule="evenodd" d="M-1 94.0472C-0.545 95.4262 -0.13 96.8132 0.346 98.1802C0.794 99.5512 1.25 100.929 1.82 102.227C1.967 102.555 2.115 102.844 2.296 103.148C2.488 103.464 2.663 103.794 2.828 104.131C3.16 104.806 3.417 105.523 3.611 106.246C3.989 107.7 4.124 109.176 4.212 110.637C4.275 112.114 4.25 113.531 4.44 114.933C4.604 116.336 4.925 117.72 5.459 119.013C5.999 120.3 6.808 121.481 7.91 122.349C8.988 123.259 10.375 123.758 11.803 124C10.353 123.984 8.873 123.577 7.622 122.745C6.379 121.9 5.423 120.671 4.759 119.332C4.079 117.989 3.733 116.52 3.501 115.061C3.274 113.591 3.292 112.101 3.214 110.688C3.147 109.26 3.017 107.836 2.695 106.477C2.536 105.797 2.324 105.136 2.036 104.501C1.895 104.182 1.735 103.87 1.57 103.557C1.399 103.227 1.239 102.86 1.112 102.518C0.124 99.7362 -0.484 96.9072 -1 94.0472" fill="#C4473F"/></g><path id="Fill 33" fill-rule="evenodd" clip-rule="evenodd" d="M5.28297 107.937C5.28297 107.937 5.32997 115.638 6.69997 118.142C8.07097 120.646 11.283 124.142 13.078 123.102C14.874 122.063 14.023 120.079 13.504 118.85C12.984 117.623 13.362 111.623 16.197 106.708C19.031 101.795 15.535 101.985 15.063 101.985C14.59 101.985 10.386 103.449 9.29897 99.8588C8.21197 96.2678 12.134 94.2838 11.141 92.8668C10.149 91.4488 6.51197 92.0628 2.54297 94.1418C2.54297 94.1418 5.66097 101.749 5.28297 107.937" fill="#F0584E"/><path id="Fill 35" fill-rule="evenodd" clip-rule="evenodd" d="M10.6078 107.664C10.6988 107.718 10.8188 107.768 10.9718 107.803C11.4568 107.911 12.3078 107.846 13.6978 107.054C12.9668 106.901 11.7888 106.858 10.6078 107.664M11.3658 108.593C11.1518 108.593 10.9498 108.57 10.7598 108.523C10.0158 108.341 9.73277 107.865 9.70377 107.812C9.61577 107.654 9.65277 107.456 9.79177 107.341C12.1468 105.391 14.6478 106.555 14.7528 106.606C14.8748 106.665 14.9548 106.784 14.9638 106.919C14.9738 107.054 14.9098 107.183 14.7968 107.257C13.4508 108.145 12.2998 108.593 11.3658 108.593" fill="#E3E3E3"/><path id="Fill 37" fill-rule="evenodd" clip-rule="evenodd" d="M15.3409 107.956C15.5159 109.598 15.9689 111.481 16.6399 111.556C16.8279 111.579 16.8719 111.51 16.9069 111.419C17.1219 110.861 16.5829 109.195 15.3409 107.956M16.7019 112.31C16.6549 112.31 16.6069 112.307 16.5569 112.302C14.8379 112.11 14.5609 107.937 14.5239 107.102C14.5169 106.959 14.5929 106.824 14.7199 106.756C14.8459 106.686 15.0009 106.696 15.1179 106.782C17.0159 108.152 18.0309 110.587 17.6069 111.688C17.4529 112.089 17.1269 112.31 16.7019 112.31" fill="#E3E3E3"/><path id="Fill 39" fill-rule="evenodd" clip-rule="evenodd" d="M15.985 114.801C15.978 114.801 15.971 114.801 15.964 114.8C15.826 114.788 15.724 114.668 15.735 114.53C15.805 113.694 15.484 112.542 15.076 111.085C14.957 110.658 14.83 110.205 14.704 109.725C14.462 108.81 14.375 108.195 14.364 107.78C14.214 107.872 14.027 107.97 13.793 108.072C12.943 108.439 9.39301 110.564 9.35701 110.585C9.23901 110.653 9.08501 110.617 9.01401 110.499C8.94301 110.38 8.98201 110.227 9.10001 110.155C9.24701 110.068 12.715 107.992 13.594 107.613C14.222 107.341 14.428 107.119 14.476 107.058C14.493 107.027 14.51 107.004 14.527 106.987C14.61 106.897 14.746 106.882 14.849 106.949C14.95 107.019 14.987 107.151 14.936 107.262C14.93 107.276 14.917 107.301 14.891 107.336C14.874 107.409 14.747 107.928 15.187 109.598C15.313 110.075 15.439 110.526 15.558 110.95C15.979 112.456 16.311 113.646 16.234 114.572C16.223 114.702 16.113 114.801 15.985 114.801" fill="#E3E3E3"/><path id="Fill 41" fill-rule="evenodd" clip-rule="evenodd" d="M10.3687 110.64C11.0247 110.649 11.6787 110.717 12.3297 110.863C12.6557 110.925 13.0047 110.975 13.2977 111.173C13.5767 111.369 13.8747 111.648 13.9347 112.047C13.9387 112.071 13.9227 112.093 13.8987 112.097C13.8927 112.098 13.8827 112.096 13.8767 112.094C13.5247 111.993 13.2527 111.936 12.9607 111.844C12.6757 111.758 12.4257 111.567 12.1397 111.431C11.5677 111.172 10.9667 110.935 10.3567 110.714C10.3367 110.707 10.3257 110.686 10.3317 110.666C10.3377 110.651 10.3527 110.64 10.3687 110.64" fill="#E3E3E3"/><path id="Fill 43" fill-rule="evenodd" clip-rule="evenodd" d="M10.2061 111.728C10.8481 111.794 11.4841 111.892 12.1141 112.029C12.4321 112.09 12.7661 112.117 13.0551 112.282C13.3311 112.452 13.6471 112.648 13.7911 113.039C13.7981 113.058 13.7881 113.08 13.7691 113.087C13.7641 113.088 13.7581 113.089 13.7531 113.089L13.7351 113.088C13.3911 113.067 13.0901 113.053 12.7831 112.981C12.4801 112.915 12.2131 112.736 11.9271 112.599C11.3511 112.339 10.7681 112.075 10.1861 111.8C10.1671 111.791 10.1591 111.769 10.1671 111.749C10.1741 111.735 10.1901 111.726 10.2061 111.728" fill="#E3E3E3"/><path id="Fill 45" fill-rule="evenodd" clip-rule="evenodd" d="M8.90141 112.742C9.73441 112.754 10.5644 112.816 11.3934 112.944C11.8074 113.005 12.2404 113.029 12.6344 113.221C13.0044 113.413 13.4554 113.666 13.6044 114.151C13.6104 114.172 13.5994 114.193 13.5794 114.199C13.5714 114.202 13.5634 114.201 13.5554 114.198L13.5424 114.194C13.1434 114.052 12.7744 114.024 12.3864 113.929C12.0044 113.845 11.6374 113.664 11.2534 113.528C10.4804 113.276 9.68841 113.042 8.89141 112.816C8.87141 112.81 8.85941 112.79 8.86441 112.77C8.86941 112.753 8.88441 112.742 8.90141 112.742" fill="#E3E3E3"/><path id="Fill 47" fill-rule="evenodd" clip-rule="evenodd" d="M115.682 105.185C115.682 105.185 115.533 103.114 119.266 104.998C122.999 106.884 124.292 106.118 125.05 104.112C125.807 102.105 126.661 101.769 126.661 101.769C126.661 101.769 127.474 114.763 115.682 105.185" fill="#E3E3E3"/><path id="Fill 49" fill-rule="evenodd" clip-rule="evenodd" d="M114.412 116.288C114.412 116.288 121.849 116.221 124.038 115.564C126.227 114.909 128.264 114.703 133.347 115.787C138.431 116.871 144.522 116.54 146.485 110.594L145.367 109.558C145.367 109.558 131.519 111.337 125.056 109.302C118.593 107.267 115.306 112.857 115.306 112.857L114.412 116.288Z" fill="#E3E3E3"/><path id="Fill 51" fill-rule="evenodd" clip-rule="evenodd" d="M114.412 116.288C115.858 116.156 117.303 116.065 118.742 115.911C120.179 115.785 121.625 115.652 123.017 115.392C123.37 115.322 123.686 115.243 124.022 115.136C124.374 115.02 124.735 114.925 125.101 114.84C125.833 114.669 126.589 114.582 127.338 114.557C128.84 114.517 130.308 114.72 131.751 114.964C133.205 115.236 134.579 115.582 135.987 115.714C137.391 115.872 138.812 115.872 140.192 115.644C141.567 115.41 142.901 114.889 143.995 114.012C145.126 113.168 145.927 111.93 146.485 110.594C146.141 112.003 145.41 113.351 144.316 114.382C143.212 115.401 141.799 116.055 140.345 116.398C138.883 116.757 137.373 116.762 135.899 116.657C134.416 116.546 132.969 116.191 131.575 115.947C130.168 115.689 128.752 115.494 127.355 115.5C126.657 115.502 125.965 115.559 125.282 115.695C124.939 115.761 124.599 115.846 124.256 115.935C123.896 116.027 123.504 116.101 123.141 116.146C120.208 116.48 117.315 116.432 114.412 116.288" fill="#C4473F"/><path id="Fill 53" fill-rule="evenodd" clip-rule="evenodd" d="M129.364 113.31C129.364 113.31 136.876 115.006 139.625 114.239C142.374 113.47 146.506 111.132 145.9 109.148C145.294 107.164 143.169 107.543 141.854 107.772C140.54 108 134.781 106.275 130.637 102.402C126.492 98.5289 125.885 101.977 125.779 102.437C125.672 102.898 126.147 107.325 122.404 107.571C118.66 107.817 117.614 103.548 116.01 104.194C114.405 104.839 114.179 108.522 115.306 112.858C115.306 112.858 123.421 111.541 129.364 113.31" fill="#F0584E"/><path id="Fill 55" fill-rule="evenodd" clip-rule="evenodd" d="M130.408 104.913C130.095 105.59 129.785 106.728 130.303 108.061C130.376 107.984 130.453 107.88 130.52 107.738C130.734 107.29 130.865 106.447 130.408 104.913M130.139 108.99C130 108.99 129.868 108.912 129.804 108.783C128.437 106.048 130.137 103.876 130.211 103.785C130.296 103.68 130.43 103.632 130.563 103.649C130.697 103.671 130.808 103.763 130.855 103.889C131.544 105.746 131.651 107.166 131.174 108.108C130.828 108.791 130.301 108.959 130.242 108.975C130.208 108.985 130.173 108.99 130.139 108.99" fill="#E3E3E3"/><path id="Fill 57" fill-rule="evenodd" clip-rule="evenodd" d="M131.658 103.518C133.298 103.72 135.234 103.705 135.459 103.067C135.522 102.887 135.466 102.831 135.386 102.777C134.89 102.441 133.146 102.588 131.658 103.518M133.36 104.389C132.198 104.389 131.038 104.195 130.642 104.122C130.501 104.096 130.387 103.992 130.349 103.852C130.311 103.713 130.356 103.566 130.464 103.471C132.229 101.932 134.829 101.495 135.807 102.156C136.201 102.423 136.332 102.846 136.166 103.317C135.867 104.164 134.613 104.389 133.36 104.389" fill="#E3E3E3"/><path id="Fill 59" fill-rule="evenodd" clip-rule="evenodd" d="M132.626 110.268C132.52 110.268 132.422 110.201 132.388 110.094C132.335 109.931 131.099 106.084 130.928 105.142C130.806 104.469 130.635 104.218 130.586 104.157C130.56 104.133 130.542 104.111 130.529 104.092C130.46 103.99 130.476 103.854 130.566 103.77C130.655 103.685 130.793 103.679 130.89 103.755C130.902 103.764 130.923 103.784 130.952 103.816C131.02 103.85 131.498 104.091 133.222 104.039C133.714 104.025 134.18 104.004 134.619 103.985C136.184 103.915 137.419 103.861 138.304 104.145C138.435 104.188 138.507 104.329 138.465 104.459C138.423 104.591 138.282 104.663 138.15 104.622C137.35 104.364 136.157 104.418 134.641 104.484C134.2 104.503 133.731 104.525 133.236 104.539C132.29 104.568 131.671 104.512 131.266 104.43C131.321 104.596 131.374 104.801 131.42 105.052C131.585 105.963 132.851 109.902 132.864 109.942C132.906 110.073 132.834 110.213 132.703 110.256C132.677 110.264 132.651 110.268 132.626 110.268" fill="#E3E3E3"/><path id="Fill 61" fill-rule="evenodd" clip-rule="evenodd" d="M133.147 108.968C133.304 108.331 133.519 107.71 133.807 107.109C133.942 106.806 134.069 106.477 134.329 106.237C134.582 106.009 134.921 105.781 135.325 105.813C135.349 105.815 135.366 105.835 135.364 105.86C135.364 105.865 135.36 105.875 135.357 105.881C135.178 106.199 135.062 106.452 134.906 106.716C134.758 106.975 134.515 107.174 134.318 107.422C133.937 107.921 133.569 108.452 133.216 108.997C133.205 109.015 133.182 109.021 133.164 109.01C133.15 109.001 133.144 108.984 133.147 108.968" fill="#E3E3E3"/><path id="Fill 63" fill-rule="evenodd" clip-rule="evenodd" d="M134.17 109.372C134.38 108.762 134.619 108.164 134.896 107.581C135.027 107.286 135.128 106.967 135.355 106.723C135.583 106.492 135.845 106.228 136.258 106.176C136.278 106.174 136.297 106.188 136.3 106.209C136.301 106.215 136.3 106.22 136.299 106.225L136.294 106.242C136.195 106.572 136.113 106.862 135.974 107.144C135.842 107.425 135.606 107.644 135.408 107.893C135.025 108.395 134.635 108.903 134.236 109.407C134.223 109.424 134.199 109.427 134.183 109.414C134.17 109.404 134.165 109.387 134.17 109.372" fill="#E3E3E3"/><path id="Fill 65" fill-rule="evenodd" clip-rule="evenodd" d="M134.862 110.871C135.063 110.063 135.311 109.269 135.623 108.49C135.776 108.1 135.897 107.684 136.174 107.344C136.445 107.027 136.793 106.644 137.3 106.609C137.32 106.608 137.339 106.624 137.34 106.644C137.341 106.653 137.338 106.661 137.334 106.668L137.327 106.68C137.098 107.036 136.988 107.39 136.806 107.746C136.638 108.099 136.38 108.415 136.16 108.759C135.74 109.455 135.333 110.174 134.932 110.898C134.923 110.917 134.9 110.924 134.881 110.914C134.866 110.906 134.859 110.888 134.862 110.871" fill="#E3E3E3"/><path id="Fill 73" fill-rule="evenodd" clip-rule="evenodd" d="M72.6816 14.2991C74.2646 13.8261 75.8886 13.4961 77.5196 13.2271C79.1526 12.9591 80.8006 12.8021 82.4516 12.6811C84.1036 12.5921 85.7626 12.5701 87.4146 12.6561C89.0686 12.7281 90.7146 12.9471 92.3346 13.2601C90.6856 13.1531 89.0476 13.0311 87.4036 13.0401C85.7616 13.0341 84.1196 13.0531 82.4816 13.1791C80.8416 13.2581 79.2056 13.4211 77.5726 13.6071C75.9386 13.7951 74.3096 14.0281 72.6816 14.2991" fill="#120F11"/><path id="Fill 75" fill-rule="evenodd" clip-rule="evenodd" d="M70.0352 17.6068C71.8792 16.6488 73.8632 15.9768 75.8742 15.4448C77.8892 14.9198 79.9492 14.5638 82.0242 14.3748C84.1012 14.2218 86.1912 14.1528 88.2672 14.3388C89.3072 14.3958 90.3362 14.5598 91.3652 14.7018C92.3912 14.8648 93.4032 15.1148 94.4132 15.3378C92.3572 15.0568 90.3092 14.7748 88.2442 14.7228C86.1842 14.6168 84.1192 14.6818 82.0692 14.8718C80.0132 15.0178 77.9782 15.3778 75.9642 15.8168C73.9522 16.2668 71.9612 16.8378 70.0352 17.6068" fill="#120F11"/></g></g></g><g id="Profile Head" transform="translate(139 37) scale(1 1)"><g id="Profile Head/Long Pompadour 1"><g id="Group 154"><path id="Fill 120" fill-rule="evenodd" clip-rule="evenodd" d="M28.6021 17.5667C28.6021 17.5667 27.7731 18.5927 28.3881 19.5857C29.0021 20.5777 29.7101 22.3257 30.3251 23.2707C30.9391 24.2147 31.2221 25.3017 28.1511 26.4357C28.1511 26.4357 28.0571 27.2387 28.5771 27.5227C29.0961 27.8057 28.0571 29.0347 28.0571 29.0347C28.0571 29.0347 28.6601 29.3367 28.4001 29.8797C28.1411 30.4217 27.5741 31.6737 28.2111 32.1707C28.8491 32.6667 28.1881 34.2257 26.3221 34.2257C24.4561 34.2257 22.0571 33.9947 22.0571 33.9947C22.0571 33.9947 20.6871 36.0267 20.4981 36.9237C20.3091 37.8217 19.7891 39.1437 19.0811 39.9007C18.3721 40.6567 20.7341 42.9707 20.7341 42.9707C20.7341 42.9707 24.1001 49.3307 17.2961 48.9057C10.4941 48.4797 0.785074 39.9057 2.98207 38.4887C2.98207 38.4887 8.29707 36.8547 8.55307 33.0087C8.81007 29.1647 7.01507 28.2237 4.79307 25.4897C2.57107 22.7547 -0.248925 15.2357 4.87807 8.99771C10.0061 2.75971 21.0551 4.31471 24.3861 7.78771C26.9301 10.4397 28.0641 14.9887 28.6021 15.7957C29.0271 16.4327 28.6021 17.5667 28.6021 17.5667" fill="#db8c5c"/><path id="Fill 122" fill-rule="evenodd" clip-rule="evenodd" d="M11.1477 21.2943C11.1477 21.2943 10.9747 21.0943 10.9807 21.4143C10.9877 21.7343 10.9077 21.9073 10.8147 21.8813C10.7207 21.8553 10.2807 21.0873 10.9407 20.7283C11.6017 20.3673 11.9607 21.0803 12.4347 21.9683C12.9087 22.8553 12.7287 24.1153 12.2677 24.1623C11.8077 24.2093 11.9407 23.8893 11.9877 23.2483C12.0347 22.6083 11.3877 21.4283 11.1477 21.2943" fill="black"/><path id="Fill 124" fill-rule="evenodd" clip-rule="evenodd" d="M21.709 16.4769C21.709 16.4769 22.01 16.2989 22.736 16.2819C23.463 16.2639 26.421 16.5119 26.475 16.4059C26.528 16.2989 26.421 15.7149 26.421 15.7149C26.421 15.7149 25.925 15.6439 25.943 15.5729C25.961 15.5019 26.528 15.2009 26.528 15.1299C26.528 15.0589 22.701 14.1209 21.709 16.4769" fill="black"/><path id="Fill 126" fill-rule="evenodd" clip-rule="evenodd" d="M24.9543 28.1097C24.9543 28.1097 26.6103 29.0807 28.3523 28.2097C28.3523 28.2097 28.6213 28.0517 28.6213 28.3087C28.6213 28.5667 27.8863 29.0087 26.7453 29.0227C25.6043 29.0377 24.7823 28.6517 24.6113 28.3087C24.4393 27.9657 24.9543 28.1097 24.9543 28.1097" fill="black"/><path id="Fill 128" fill-rule="evenodd" clip-rule="evenodd" d="M22.9062 19.3382C22.9062 19.3382 25.6463 18.2522 25.9773 18.3942C26.3073 18.5352 25.6943 19.1022 25.6943 19.1022C25.6943 19.1022 26.3552 19.2442 25.8352 19.6222C25.3162 20.0002 25.8833 20.0942 25.7403 20.1422C25.5993 20.1892 22.9062 19.3382 22.9062 19.3382" fill="black"/><path id="Fill 130" fill-rule="evenodd" clip-rule="evenodd" d="M8.54372 31.6224C8.54372 31.6224 5.37872 27.7954 3.44172 25.6694C1.50472 23.5434 -0.243278 19.0554 0.701722 15.3704C1.64672 11.6854 2.63872 11.1184 3.20572 9.8904C3.77272 8.6614 4.71672 6.2524 8.21272 4.8824C11.7097 3.5124 12.3237 3.1814 13.3157 2.5664C14.3077 1.9524 14.8277 1.1494 16.5757 1.2444C18.3237 1.3384 16.7647 -0.0315951 20.2127 0.913405C23.6617 1.8584 27.2287 1.7644 27.4057 7.1854C27.4057 7.1854 28.6107 4.8824 26.5907 2.1884C26.5907 2.1884 27.5837 1.9404 28.1497 3.5354C28.7167 5.1304 28.7527 9.59441 26.0237 9.70041C23.2957 9.80741 21.5237 8.5314 20.7447 8.4604C19.9647 8.3904 16.6697 9.27541 16.3867 9.73641C16.1027 10.1964 15.2167 11.7564 15.7127 12.8904C16.2097 14.0234 15.8907 14.9094 15.2877 16.3974C14.6857 17.8864 15.2877 22.0314 15.5007 22.4924C15.7127 22.9524 14.8277 23.2004 14.3667 21.8184C13.9057 20.4364 11.8157 18.0274 9.93772 18.8074C8.05972 19.5864 9.37072 24.6184 11.0007 25.6814C11.0007 25.6814 10.5757 30.6774 8.54372 31.6224" fill="#110b05"/><path id="Fill 132" fill-rule="evenodd" clip-rule="evenodd" d="M22.5508 2.6615C23.0268 2.9145 23.4298 3.2835 23.7798 3.7005C24.1318 4.1175 24.3978 4.6155 24.5548 5.1545C24.7138 5.6925 24.7118 6.2855 24.5548 6.8195C24.4208 7.3655 24.0938 7.8275 23.7318 8.2125C23.9228 7.7105 24.1358 7.2425 24.1778 6.7415C24.2328 6.2515 24.2218 5.7575 24.0738 5.2865C23.8088 4.3365 23.2268 3.4795 22.5508 2.6615" fill="#703312"/><path id="Fill 134" fill-rule="evenodd" clip-rule="evenodd" d="M25.3397 4.12631C25.4807 4.49331 25.5417 4.87831 25.5767 5.26431C25.6187 5.65031 25.5947 6.04231 25.5417 6.43131C25.4777 6.81731 25.3807 7.20931 25.1787 7.56331C24.9887 7.91331 24.7157 8.24731 24.3477 8.40131C24.5807 8.08531 24.7207 7.75631 24.8247 7.41331C24.9237 7.06931 24.9997 6.71731 25.0477 6.35531C25.1677 5.63331 25.2157 4.89631 25.3397 4.12631" fill="#703312"/><path id="Fill 136" fill-rule="evenodd" clip-rule="evenodd" d="M18.8438 1.52771C19.4268 1.75871 19.9447 2.13671 20.3967 2.58471C20.8517 3.03071 21.2097 3.58771 21.4337 4.19971C21.6547 4.81071 21.7288 5.48771 21.5968 6.12071C21.5588 6.44171 21.4357 6.73971 21.3347 7.03871C21.2057 7.32671 21.0388 7.59671 20.8758 7.85871C21.0308 7.25271 21.2088 6.67371 21.2148 6.07871C21.2488 5.49171 21.1687 4.90871 20.9637 4.36771C20.5767 3.26771 19.7778 2.33871 18.8438 1.52771" fill="#703312"/><path id="Fill 138" fill-rule="evenodd" clip-rule="evenodd" d="M18.5586 2.23671C19.4886 2.66371 20.2246 3.48771 20.6556 4.43071C20.8616 4.90771 21.0186 5.41371 21.0476 5.93271C21.1016 6.44771 21.0486 6.96571 20.9206 7.45671C20.8406 6.95171 20.7966 6.46471 20.6676 5.99471C20.5556 5.52471 20.3986 5.07171 20.2006 4.63771C19.8146 3.75971 19.2486 2.97471 18.5586 2.23671" fill="#703312"/><path id="Fill 140" fill-rule="evenodd" clip-rule="evenodd" d="M13.4805 3.181C14.1655 3.191 14.8395 3.354 15.4875 3.594C16.1375 3.833 16.7475 4.197 17.2775 4.666C17.8015 5.143 18.2045 5.765 18.4115 6.44C18.6505 7.113 18.6055 7.834 18.4885 8.496C18.3985 7.82 18.3425 7.157 18.0505 6.574C17.7805 5.994 17.4215 5.459 16.9385 5.034C15.9835 4.17 14.7635 3.613 13.4805 3.181" fill="#703312"/><path id="Fill 142" fill-rule="evenodd" clip-rule="evenodd" d="M11.6855 4.36261C12.3125 4.21361 12.9655 4.20861 13.6095 4.27361C14.2565 4.33761 14.8935 4.51861 15.4945 4.78661C16.0945 5.05561 16.6415 5.45661 17.0815 5.94461C17.5425 6.41861 17.8365 7.02061 18.0395 7.62261C17.6495 7.11161 17.2945 6.60161 16.8115 6.21861C16.3435 5.83061 15.8455 5.47961 15.2845 5.24061C14.1785 4.72761 12.9555 4.48061 11.6855 4.36261" fill="#703312"/><path id="Fill 144" fill-rule="evenodd" clip-rule="evenodd" d="M5.33203 7.36261C6.09903 7.28761 6.87003 7.33061 7.63403 7.41661C8.40003 7.50261 9.15903 7.66361 9.90003 7.88961C10.635 8.13261 11.36 8.42661 12.024 8.83761C12.682 9.25461 13.289 9.76161 13.741 10.3856C13.138 9.90661 12.507 9.50761 11.838 9.17461C11.161 8.85961 10.465 8.59161 9.75103 8.36661C8.31903 7.91961 6.84203 7.62661 5.33203 7.36261" fill="#703312"/><path id="Fill 146" fill-rule="evenodd" clip-rule="evenodd" d="M6.41797 6.44081C7.18797 6.28081 7.98097 6.26781 8.76797 6.32281C9.55697 6.37681 10.339 6.54481 11.095 6.79781C11.847 7.06681 12.563 7.45281 13.185 7.95481C13.814 8.45381 14.305 9.10181 14.662 9.79481C14.131 9.21581 13.597 8.67281 12.956 8.26381C12.316 7.86181 11.646 7.51381 10.929 7.26881C9.49697 6.77181 7.97597 6.53881 6.41797 6.44081" fill="#703312"/><path id="Fill 148" fill-rule="evenodd" clip-rule="evenodd" d="M12.3937 14.7562C12.6937 15.6302 12.8667 16.5122 13.0357 17.3952C13.1897 18.2822 13.3187 19.1572 13.4327 20.0702C13.1797 19.6802 13.0177 19.2452 12.8727 18.8122C12.7237 18.3772 12.6297 17.9302 12.5437 17.4832C12.3927 16.5862 12.3077 15.6772 12.3937 14.7562" fill="#703312"/><path id="Fill 150" fill-rule="evenodd" clip-rule="evenodd" d="M4.50391 16.5511C5.43191 18.1691 6.27491 19.8151 7.15691 21.4391C8.03191 23.0691 8.90791 24.6841 9.93691 26.2371C9.25691 25.5931 8.69291 24.8381 8.16291 24.0711C7.62691 23.3041 7.16391 22.4921 6.71691 21.6751C5.84491 20.0291 5.07591 18.3271 4.50391 16.5511" fill="#703312"/><path id="Fill 152" fill-rule="evenodd" clip-rule="evenodd" d="M2.80273 17.0706C3.58373 19.0136 4.48673 20.8826 5.53073 22.6726C6.04473 23.5706 6.60073 24.4446 7.18573 25.3006C7.76073 26.1676 8.40873 26.9776 9.03873 27.8186C7.46673 26.4286 6.15173 24.7436 5.09773 22.9226C4.57173 22.0086 4.10073 21.0636 3.71773 20.0836C3.32973 19.1066 2.99373 18.1046 2.80273 17.0706" fill="#703312"/></g></g></g><g id="Male Character Running/Upper Body" transform="translate(95 72) scale(1 1)"><g id="Male Character Running/Upper Body/Shirt 5"><g id="Group 180"><path id="Fill 155" fill-rule="evenodd" clip-rule="evenodd" d="M0.788129 37.9847C0.788129 37.9847 6.74113 56.5507 9.43413 61.7957C12.1271 67.0397 10.4261 68.3147 10.2841 69.4487C10.1421 70.5827 10.2841 70.8667 10.0011 71.6457C9.71713 72.4247 9.08013 76.2277 8.98513 76.7957C8.89113 77.3627 8.37113 80.6227 8.37113 81.0937C8.37113 81.5667 9.12713 81.5197 9.41013 81.4247C9.69413 81.3307 10.1661 79.8667 10.3551 78.9217C10.5441 77.9757 11.4421 75.9447 11.4421 75.9447C11.4421 75.9447 11.0171 82.6067 11.0171 83.0787C11.0171 83.5507 12.0561 83.7877 12.2451 83.5977C12.4341 83.4097 14.0401 75.9447 14.0401 75.9447V80.7157C14.0401 81.3307 14.4651 84.2597 14.5131 84.4967C14.5591 84.7327 15.5991 84.9677 15.9771 84.3537C15.9771 84.3537 16.2131 81.2367 16.2611 80.1017C16.3081 78.9677 16.6391 76.8417 16.6391 76.8417C16.6391 76.8417 17.1111 79.9607 17.2531 80.6227C17.3941 81.2837 18.3871 84.0707 18.5761 84.1657C18.7651 84.2597 19.8041 84.1187 19.8981 83.8347C19.9931 83.5507 19.4261 79.6297 19.3791 78.9217C19.3311 78.2127 19.0011 72.0707 19.0011 72.0707C19.0011 72.0707 20.9851 74.8587 21.5991 74.8587C22.2131 74.8587 23.0641 74.8107 23.3001 74.5277C23.5361 74.2447 23.6311 73.7237 23.3471 73.5357C23.0641 73.3457 21.2211 69.6617 20.7961 68.1497C20.3711 66.6377 18.4811 64.3707 16.5441 63.3307C16.5441 63.3307 15.4571 58.5587 15.3631 54.2597C15.2681 49.9607 12.6701 35.5047 12.6701 35.5047C12.6701 35.5047 31.8511 28.7957 36.8591 26.4327C41.8671 24.0707 46.7801 21.2367 48.4811 18.4967C50.1821 15.7557 47.1581 2.33871 42.3391 3.84971C37.5201 5.36271 33.1271 7.11071 29.6311 10.7007C26.1351 14.2917 2.74813 27.8497 2.08713 28.7957C1.42613 29.7407 -0.416871 34.0397 0.788129 37.9847" fill="#db8c5c"/><g id="Group 159"><path id="Fill 157" fill-rule="evenodd" clip-rule="evenodd" d="M66.623 7.63019C66.623 7.63019 70.403 9.61419 71.726 15.4722C73.048 21.3302 81.93 36.8262 81.93 36.8262C81.93 36.8262 86.182 35.1262 90.245 34.3702C94.308 33.6142 97.993 30.4012 99.033 28.2282C100.072 26.0552 99.316 24.2602 101.489 22.8422C103.663 21.4252 104.324 18.4012 105.458 18.7792C106.592 19.1572 105.269 21.8032 105.269 21.8032C105.269 21.8032 108.292 20.3862 109.804 18.8742C111.316 17.3622 112.828 15.7562 113.395 16.1342C113.962 16.5122 113.298 19.1042 111.623 20.1262C111.623 20.1262 115.166 17.8222 115.698 18.2122C116.459 18.7712 115.769 19.7362 115.556 19.9132C115.344 20.0902 114.174 21.3302 114.174 21.3302C114.174 21.3302 115.592 20.4812 116.265 20.7642C116.938 21.0472 116.655 22.9962 114.706 24.3072C114.706 24.3072 115.344 23.9172 115.84 24.3782C116.336 24.8382 114.706 26.8222 111.34 29.0902C107.974 31.3592 106.131 33.0942 102.8 34.3342C99.47 35.5742 90.115 49.6772 80.974 52.1222C80.974 52.1222 73.993 49.5352 69.564 40.1462C65.135 30.7562 63.222 9.23619 66.623 7.63019" fill="#db8c5c"/></g><path id="Fill 160" fill-rule="evenodd" clip-rule="evenodd" d="M105.268 21.8031C104.814 22.3431 104.415 22.9161 104.138 23.5321C103.854 24.1501 103.771 24.7871 103.74 25.4911C103.688 26.1821 103.669 26.9031 103.468 27.6081C103.293 28.3131 102.862 28.9951 102.232 29.3381C102.727 28.8251 102.999 28.1951 103.092 27.5251C103.194 26.8571 103.201 26.1651 103.242 25.4581C103.278 24.7661 103.4 23.9801 103.798 23.3561C104.172 22.7271 104.674 22.1941 105.268 21.8031" fill="black"/><path id="Fill 162" fill-rule="evenodd" clip-rule="evenodd" d="M108.221 22.5706C108.806 23.0326 109.24 23.6346 109.582 24.2846C109.741 24.6166 109.891 24.9566 109.969 25.3226C110.05 25.6846 110.097 26.0636 110.028 26.4326C109.759 25.7446 109.459 25.1386 109.137 24.5096C108.826 23.8806 108.492 23.2616 108.221 22.5706" fill="black"/><path id="Fill 164" fill-rule="evenodd" clip-rule="evenodd" d="M111.623 20.1263C111.275 20.5273 110.864 20.8563 110.457 21.1913C110.035 21.5023 109.615 21.8203 109.15 22.0533C109.509 21.6423 109.913 21.3173 110.315 20.9863C110.733 20.6793 111.146 20.3663 111.623 20.1263" fill="black"/><path id="Fill 166" fill-rule="evenodd" clip-rule="evenodd" d="M114.174 21.3304C113.682 21.9184 113.11 22.4224 112.526 22.9114C111.922 23.3694 111.308 23.8504 110.578 24.1054C110.898 23.8974 111.19 23.6584 111.487 23.4264L112.369 22.7164C112.967 22.2534 113.544 21.7654 114.174 21.3304" fill="black"/><path id="Fill 168" fill-rule="evenodd" clip-rule="evenodd" d="M114.705 24.307C114.168 24.914 113.549 25.433 112.916 25.935C112.263 26.396 111.599 26.906 110.799 27.102C111.162 26.923 111.483 26.687 111.807 26.454C112.128 26.218 112.453 25.986 112.766 25.736C113.41 25.262 114.033 24.759 114.705 24.307" fill="black"/><path id="Fill 170" fill-rule="evenodd" clip-rule="evenodd" d="M50.1816 0.638C50.1816 0.638 56.7956 9.142 61.3316 8.669C65.8666 8.197 62.6306 6.307 62.9136 5.197L63.3396 4.63C63.3396 4.63 67.9456 5.078 69.8356 9.189C71.7246 13.299 75.5516 22.086 75.5516 22.086C75.5516 22.086 74.3706 24.543 72.1506 27.898C72.1506 27.898 73.2366 37.772 67.0006 48.071C60.7646 58.37 58.7806 70.559 58.7806 70.559C58.7806 70.559 50.1816 64.607 39.4106 65.741C28.6386 66.874 25.0476 70.654 28.0716 63.756C31.0956 56.859 31.3786 50.906 30.8116 45.708C30.2446 40.512 31.2846 29.929 31.2846 29.929L29.9616 30.402C29.9616 30.402 23.7246 17.646 23.7246 14.15C23.7246 14.15 26.4656 12.638 28.2606 10.654C30.0556 8.669 38.5596 3.756 43.7566 2.811C48.9536 1.867 47.9136 0.733 50.1816 0.638" fill="#252833"/><path id="Fill 172" fill-rule="evenodd" clip-rule="evenodd" d="M31.2852 29.929C32.1532 29.275 33.0352 28.652 33.9292 28.056L35.2642 27.158C35.7112 26.869 36.1232 26.546 36.6532 26.267C37.6812 25.762 38.7572 25.51 39.8362 25.34C40.9152 25.176 42.0102 25.101 43.0962 25.204C42.0292 25.392 40.9872 25.658 39.9542 25.913C38.9322 26.191 37.8972 26.475 36.9932 26.935C36.5612 27.142 36.1152 27.479 35.6452 27.755C35.1762 28.031 34.7112 28.306 34.2302 28.555C33.2782 29.07 32.2952 29.527 31.2852 29.929" fill="#0D0E12"/><path id="Fill 174" fill-rule="evenodd" clip-rule="evenodd" d="M37.8984 59.9759C39.4644 59.3539 41.1324 59.0649 42.8124 58.9899C44.4734 58.9439 46.2574 59.1019 47.7254 59.9759C46.8984 59.8109 46.0874 59.7629 45.2774 59.7219C44.4674 59.6899 43.6534 59.7089 42.8394 59.7389C41.2074 59.7889 39.5774 59.9329 37.8984 59.9759" fill="#0D0E12"/><path id="Fill 176" fill-rule="evenodd" clip-rule="evenodd" d="M34.3086 63.7562C35.7236 63.1242 37.2296 62.7192 38.7546 62.4242C40.2806 62.1262 41.8416 62.0082 43.4026 62.0222C44.9636 62.0382 46.5266 62.2722 48.0326 62.6812C49.5456 63.0802 50.9706 63.7642 52.2616 64.6072C51.5216 64.3612 50.8506 63.9902 50.0996 63.8192C49.7336 63.7112 49.3786 63.5762 49.0096 63.4852L47.8976 63.2412C46.4076 62.9772 44.9056 62.7712 43.3886 62.7722C41.8736 62.7392 40.3556 62.8342 38.8396 62.9912C37.3256 63.1642 35.8156 63.4202 34.3086 63.7562" fill="#0D0E12"/><path id="Fill 178" fill-rule="evenodd" clip-rule="evenodd" d="M68.5137 12.7328C69.2947 13.8058 69.9107 14.9908 70.4467 16.2058C70.9927 17.4188 71.3997 18.6908 71.7317 19.9798C72.0537 21.2728 72.2747 22.5938 72.3417 23.9248C72.4437 25.2538 72.3557 26.5918 72.1517 27.8978C72.0727 27.2348 72.0977 26.5808 71.9957 25.9278C71.9477 25.2758 71.8777 24.6288 71.7677 23.9848C71.5697 22.6978 71.3347 21.4198 71.0047 20.1618C70.6987 18.8978 70.3207 17.6518 69.9107 16.4128C69.4937 15.1738 69.0227 13.9538 68.5137 12.7328" fill="#0D0E12"/></g></g></g><g id="Profile Facial Hair" transform="translate(153 58) scale(16 14)"><g id="Profile Facial Hair/None" stroke="none" stroke-width="1" fill="none" fill-rule="evenodd" fill-opacity="0"/></g></g></svg>