<svg viewBox="18.75 30.00000000000003 270.00000000000006 240.00000000000006" fill="none" xmlns="http://www.w3.org/2000/svg" xmlns:xlink="http://www.w3.org/1999/xlink" overflow="visible" width="270.00000000000006px" height="240.00000000000006px"><g id="Master/Spot Illustrations/Staying Home 1"><g id="Texture Backgrounds" opacity="0.5" transform="translate(27 11) scale(1 1)"><g id="Texture Backgrounds/Abstract 3"><g id="Group 2"><g id="Group"><path id="Fill 12" fill-rule="evenodd" clip-rule="evenodd" d="M214.835 174C215.53 174 216.196 173.515 216.504 172.687C216.553 172.556 217.735 169.367 218.938 163.827C219.198 162.628 218.615 161.396 217.639 161.079C216.641 160.752 215.65 161.474 215.393 162.67C214.275 167.809 213.176 170.791 213.164 170.818C212.746 171.947 213.154 173.284 214.074 173.796C214.322 173.937 214.581 174 214.835 174" fill="#FFECE9"/><path id="Fill 14" fill-rule="evenodd" clip-rule="evenodd" d="M69.0079 24.5448C69.0695 24.5448 69.1338 24.5421 69.1981 24.5367C74.3463 24.0447 79.5882 23.9332 85.3688 24.2567C86.4756 24.3219 87.427 23.4603 87.4886 22.335C87.5503 21.2069 86.7034 20.2474 85.5939 20.1849C79.824 19.8615 74.2069 19.9648 68.8229 20.4758C67.7188 20.5818 66.9068 21.5766 67.0086 22.6965C67.1078 23.7538 67.9814 24.5448 69.0079 24.5448M117.804 30.435C118.656 30.435 119.447 29.8805 119.72 29.0134C120.055 27.9398 119.471 26.7927 118.412 26.453C113.015 24.7133 107.564 23.3081 102.212 22.2725C101.124 22.0523 100.071 22.7862 99.8619 23.8925C99.6528 24.9988 100.366 26.067 101.456 26.2763C106.653 27.282 111.948 28.6492 117.196 30.3399C117.399 30.4051 117.603 30.435 117.804 30.435M147.98 43.7784C148.685 43.7784 149.371 43.4006 149.741 42.7292C150.277 41.7452 149.926 40.503 148.955 39.9567C144.003 37.1733 138.978 34.6427 134.023 32.441C133.013 31.9898 131.823 32.4573 131.375 33.4902C130.928 34.5204 131.391 35.7218 132.41 36.173C137.252 38.3258 142.165 40.7966 147.004 43.5229C147.315 43.6968 147.65 43.7784 147.98 43.7784M175.401 62.2971C175.993 62.2971 176.58 62.0334 176.974 61.5251C177.666 60.6417 177.521 59.3615 176.653 58.6629C174.723 57.1081 172.716 55.5615 170.628 54.0258C168.184 52.2236 165.673 50.4487 163.17 48.7526C162.245 48.1301 160.996 48.3829 160.383 49.3179C159.766 50.253 160.016 51.5196 160.94 52.1448C163.4 53.811 165.866 55.5506 168.267 57.3229C170.309 58.826 172.268 60.3373 174.149 61.854C174.522 62.153 174.962 62.2971 175.401 62.2971M198.698 85.847C199.126 85.847 199.558 85.7084 199.925 85.4203C200.804 84.7299 200.962 83.4496 200.281 82.5608C196.974 78.2281 193.233 73.9606 189.16 69.8752C188.367 69.0843 187.094 69.0897 186.316 69.8915C185.537 70.6907 185.542 71.9818 186.332 72.7728C190.28 76.7331 193.903 80.8674 197.106 85.056C197.5 85.5752 198.095 85.847 198.698 85.847M214.418 115.062C214.632 115.062 214.85 115.026 215.061 114.953C216.114 114.594 216.677 113.436 216.321 112.371C214.557 107.078 212.269 101.83 209.525 96.7631C208.989 95.7764 207.767 95.4122 206.794 95.9585C205.821 96.5021 205.467 97.7416 206 98.7283C208.635 103.583 210.824 108.614 212.515 113.675C212.797 114.526 213.579 115.062 214.418 115.062M218.853 148C219.912 148 220.799 147.16 220.858 146.078C220.949 144.45 221 142.759 221 141.014C221 137.005 220.727 132.963 220.191 128.997C220.038 127.883 219.046 127.081 217.923 127.255C216.825 127.41 216.056 128.438 216.208 129.555C216.72 133.333 216.98 137.19 216.98 141.014C216.98 142.681 216.929 144.292 216.843 145.845C216.782 146.97 217.629 147.935 218.735 147.997C218.776 148 218.813 148 218.853 148" fill="#FFECE9"/><path id="Fill 16" fill-rule="evenodd" clip-rule="evenodd" d="M42.2566 30C42.5813 30 42.9151 29.9447 43.2278 29.822C43.2578 29.8123 46.1292 28.7225 51.3548 27.5436C52.5545 27.2741 53.2521 26.2781 52.9153 25.3205C52.5816 24.363 51.3579 23.7903 50.1341 24.0718C44.4846 25.3422 41.4027 26.5211 41.2764 26.5692C40.1549 27.0022 39.6859 28.0777 40.2211 28.9751C40.6089 29.6223 41.4177 30 42.2566 30" fill="#FFECE9"/><path id="Fill 18" fill-rule="evenodd" clip-rule="evenodd" d="M198.478 182C199.345 182 200.188 181.642 200.641 181.006C200.72 180.894 202.601 178.243 204.836 173.644C205.325 172.642 204.684 171.515 203.404 171.131C202.125 170.742 200.69 171.251 200.204 172.255C198.111 176.56 196.333 179.076 196.316 179.102C195.649 180.04 196.072 181.226 197.268 181.751C197.652 181.92 198.069 182 198.478 182" fill="#FFECE9"/><path id="Fill 20" fill-rule="evenodd" clip-rule="evenodd" d="M58.0251 40.5051C58.1387 40.5051 58.2522 40.4971 58.3658 40.4757C63.658 39.5899 69.1557 39.1001 74.7075 39.0144C75.8271 38.9984 76.7195 38.0858 76.7033 36.9778C76.6843 35.8778 75.7811 35 74.6751 35H74.6453C68.8907 35.091 63.1821 35.5995 57.6898 36.5201C56.5864 36.7021 55.8401 37.7405 56.0294 38.8325C56.1943 39.812 57.0543 40.5051 58.0251 40.5051M107.802 43.0128C108.705 43.0128 109.533 42.4107 109.765 41.5034C110.041 40.4302 109.387 39.3356 108.302 39.0626C102.737 37.6602 97.1257 36.6058 91.6225 35.9287C90.4705 35.7975 89.4943 36.5737 89.3591 37.6709C89.2212 38.7736 90.0081 39.7772 91.1195 39.911C96.4577 40.5667 101.901 41.589 107.299 42.9513C107.467 42.9941 107.637 43.0128 107.802 43.0128M139.058 54.6628C139.804 54.6628 140.521 54.256 140.878 53.5494C141.375 52.5565 140.967 51.3522 139.964 50.8571C134.815 48.3226 129.601 46.0585 124.46 44.1315C123.43 43.7354 122.243 44.2573 121.848 45.2984C121.45 46.3341 121.975 47.493 123.024 47.8864C128.038 49.7651 133.127 51.9758 138.157 54.454C138.446 54.5959 138.755 54.6628 139.058 54.6628M167.552 71.9383C168.166 71.9383 168.777 71.6626 169.177 71.1381C169.851 70.2522 169.67 68.9943 168.774 68.3279C166.587 66.6981 164.25 65.0629 161.838 63.4624C159.45 61.8861 157.084 60.3927 154.745 58.9743C153.785 58.3882 152.538 58.6933 151.954 59.638C151.373 60.5854 151.67 61.8219 152.625 62.3999C154.923 63.7889 157.241 65.2582 159.585 66.8025C161.935 68.3574 164.207 69.9498 166.335 71.5368C166.7 71.8071 167.13 71.9383 167.552 71.9383M191.168 95.2221C191.582 95.2221 191.998 95.0963 192.358 94.842C193.264 94.189 193.467 92.9338 192.81 92.0373C189.581 87.6348 185.833 83.342 181.666 79.274C180.871 78.5006 179.581 78.5006 178.796 79.2954C178.009 80.0849 178.02 81.3562 178.818 82.135C182.826 86.0477 186.428 90.1719 189.524 94.3951C189.922 94.9357 190.541 95.2221 191.168 95.2221M205.025 125.106C205.174 125.106 205.325 125.09 205.474 125.057C206.569 124.814 207.253 123.741 207.007 122.657C205.758 117.168 203.897 111.767 201.485 106.61C201.012 105.601 199.806 105.173 198.792 105.633C197.775 106.099 197.334 107.292 197.802 108.298C200.098 113.199 201.861 118.327 203.051 123.54C203.262 124.474 204.1 125.106 205.025 125.106M205.547 158C206.507 158 207.361 157.32 207.54 156.354C208.508 151.087 209 145.775 209 140.564L208.992 139.488C208.976 138.388 208.07 137.51 206.964 137.51H206.934C205.812 137.526 204.919 138.439 204.936 139.547L204.944 140.564C204.944 145.534 204.473 150.605 203.548 155.634C203.345 156.726 204.078 157.767 205.179 157.971C205.303 157.989 205.425 158 205.547 158" fill="#FFECE9"/><path id="Fill 22" fill-rule="evenodd" clip-rule="evenodd" d="M33.9454 47C34.272 47 34.6011 46.9288 34.9044 46.7796C34.9277 46.7684 37.3303 45.6084 41.7182 44.2391C42.729 43.9229 43.2499 42.9655 42.8819 42.0994C42.5191 41.231 41.3994 40.788 40.3912 41.0997C35.656 42.5781 33.0849 43.8272 32.9787 43.8806C32.0482 44.3371 31.7242 45.3546 32.2556 46.1561C32.6132 46.695 33.2689 47 33.9454 47" fill="#FFECE9"/><path id="Fill 24" fill-rule="evenodd" clip-rule="evenodd" d="M182.472 186C183.346 186 184.19 185.634 184.638 184.986C184.718 184.877 186.557 182.218 188.829 177.662C189.326 176.659 188.703 175.528 187.431 175.133C186.165 174.746 184.727 175.232 184.223 176.235C182.083 180.537 180.323 183.089 180.303 183.115C179.65 184.058 180.086 185.244 181.286 185.758C181.661 185.925 182.07 186 182.472 186" fill="#FFECE9"/><path id="Fill 26" fill-rule="evenodd" clip-rule="evenodd" d="M100.304 55.2083C101.246 55.2083 102.084 54.5335 102.271 53.5622C102.483 52.4522 101.776 51.3829 100.689 51.1653C95.298 50.0933 89.9202 49.3669 84.6978 49.0023C83.6779 48.9506 82.6339 49.7696 82.559 50.8987C82.484 52.0223 83.3165 52.9963 84.4247 53.0725C89.4786 53.4262 94.6903 54.1309 99.9128 55.1702C100.044 55.1946 100.175 55.2083 100.304 55.2083M53.0042 55.6599C53.1675 55.6599 53.3281 55.6408 53.4914 55.6C58.3927 54.3594 63.5536 53.5241 68.8376 53.1106C69.9431 53.0235 70.7703 52.0441 70.6873 50.9204C70.6016 49.794 69.6647 48.9914 68.5298 49.0404C63.0236 49.473 57.6405 50.3463 52.5224 51.6387C51.4463 51.9108 50.7905 53.0181 51.0609 54.1118C51.2857 55.0396 52.1048 55.6599 53.0042 55.6599M130.635 64.66C131.424 64.66 132.171 64.1839 132.49 63.3976C132.915 62.3556 132.425 61.1612 131.4 60.7313C126.336 58.6091 121.25 56.74 116.29 55.181C115.219 54.86 114.103 55.4531 113.776 56.5278C113.449 57.6052 114.044 58.7479 115.101 59.0825C119.949 60.6034 124.917 62.429 129.869 64.5049C130.121 64.611 130.378 64.66 130.635 64.66M158.84 79.4198C159.491 79.4198 160.133 79.0988 160.516 78.5057C161.132 77.567 160.877 76.3019 159.951 75.6789C156.629 73.4424 153.042 71.2931 149.295 69.2852C148.181 68.6894 147.073 68.1044 145.97 67.5412C144.982 67.0325 143.772 67.4406 143.275 68.4472C142.774 69.4512 143.176 70.6809 144.166 71.187C145.242 71.7393 146.329 72.3079 147.421 72.8956C151.053 74.8409 154.525 76.9195 157.735 79.0797C158.077 79.311 158.463 79.4198 158.84 79.4198M181.904 101.376C182.311 101.376 182.72 101.251 183.076 100.99C183.976 100.331 184.179 99.0552 183.531 98.141C180.456 93.8042 176.82 89.6497 172.722 85.7999C171.914 85.0381 170.637 85.0816 169.885 85.9142C169.133 86.7413 169.181 88.0309 169.997 88.7981C173.897 92.4602 177.353 96.4107 180.274 100.527C180.664 101.079 181.28 101.376 181.904 101.376M194.032 130.909C194.142 130.909 194.255 130.901 194.367 130.879C195.459 130.694 196.198 129.641 196.013 128.531C195.106 123.016 193.591 117.654 191.511 112.596C191.083 111.551 189.905 111.064 188.885 111.497C187.862 111.935 187.378 113.129 187.803 114.169C189.766 118.941 191.195 123.999 192.054 129.206C192.217 130.202 193.069 130.909 194.032 130.909M192.935 163C193.858 163 194.691 162.35 194.894 161.395C196.08 155.896 196.787 150.395 196.998 145.049C197.044 143.92 196.182 142.973 195.074 142.927C193.915 142.872 193.031 143.756 192.988 144.883C192.785 149.992 192.108 155.254 190.973 160.524C190.735 161.623 191.42 162.712 192.504 162.954C192.648 162.984 192.793 163 192.935 163" fill="#FFECE9"/><path id="Fill 28" fill-rule="evenodd" clip-rule="evenodd" d="M27.0207 67C27.4486 67 27.8792 66.8501 28.2451 66.5412C28.2694 66.5202 30.5351 64.6071 34.8622 62.2712C35.8633 61.7284 36.2831 60.385 35.7987 59.2665C35.3143 58.1511 34.1088 57.6863 33.1023 58.223C28.3635 60.7809 25.8905 62.8829 25.7883 62.9698C24.9056 63.7285 24.7388 65.1379 25.4169 66.1214C25.8152 66.6971 26.4126 67 27.0207 67" fill="#FFECE9"/></g><path id="Fill 10" opacity="0.526646" fill-rule="evenodd" clip-rule="evenodd" d="M34.5075 83.3292C19.0634 107.749 37.2131 147.323 75.0385 171.717C112.866 196.113 156.051 196.091 171.493 171.671C186.935 147.251 168.789 107.679 130.96 83.2827C93.1349 58.8887 49.9498 58.9073 34.5075 83.3292" fill="#FEDAD4"/></g></g></g><g id="Couch"><path id="Fill 1" fill-rule="evenodd" clip-rule="evenodd" d="M260.556 194H37.4431C36.0942 194 35 191.844 35 189.187V175.813C35 173.156 36.0942 171 37.4431 171H260.556C261.905 171 263 173.156 263 175.813V189.187C263 191.844 261.905 194 260.556 194" fill="#EABD91"/><path id="Fill 3" fill-rule="evenodd" clip-rule="evenodd" d="M261.702 222H31.2984C30.581 222 30 220.843 30 219.415V212H263V219.415C263 220.843 262.419 222 261.702 222" fill="#EABD90"/><path id="Fill 5" fill-rule="evenodd" clip-rule="evenodd" d="M36 254H40V217H36V254Z" fill="#EABD90"/><path id="Fill 7" fill-rule="evenodd" clip-rule="evenodd" d="M253 254H257V217H253V254Z" fill="#EABD90"/><path id="Fill 9" fill-rule="evenodd" clip-rule="evenodd" d="M268.638 217H22.4763C20.3534 217 19.2182 212.369 20.6159 209.41L30.1779 189.159C31.7267 185.878 33.9634 184 36.3153 184H258.394C262.416 184 266.174 187.705 268.418 193.886L272.251 204.437C274.197 209.794 272.124 217 268.638 217" fill="#FFDFD7"/><path id="Fill 10" fill-rule="evenodd" clip-rule="evenodd" d="M256.396 188H40C40 188 43.5132 181.754 43.7682 178.991C44.2578 173.671 40.9472 163.88 41.0815 158.5C41.2181 152.966 44.2805 142.781 43.7159 137.337C43.4039 134.352 40 129 40 129H256.396C256.396 129 252.596 135.158 252.856 140.695C253.172 147.413 258.282 159.14 257.988 166.079C257.726 172.233 252.726 175.721 253.464 181.46C253.728 183.497 256.396 188 256.396 188" fill="#FFD6CB"/><path id="Fill 12" fill-rule="evenodd" clip-rule="evenodd" d="M96.8331 185.535C95.4366 196.024 85.6493 204.289 74.9705 203.992C64.2939 203.697 56.7721 194.956 58.1664 184.465C59.5652 173.976 69.3524 165.713 80.0313 166.008C90.7078 166.303 98.2297 175.046 96.8331 185.535" fill="#FFC0B0"/><path id="Fill 13" fill-rule="evenodd" clip-rule="evenodd" d="M229.849 147.732C229.849 147.732 229.73 147.497 228.312 147.732C226.893 147.966 211.752 149.388 204.657 147.628C197.559 145.868 183.72 148.455 180.883 147.628C178.043 146.801 179.581 151.927 179.581 153.092C179.581 154.257 180.647 158.452 177.926 165.21C175.206 171.968 179.345 185.362 179.345 188.687C179.345 192.009 178.162 194.687 180.528 194.687C182.894 194.687 198.861 195.738 206.549 193.988C214.237 192.242 225.117 193.055 228.785 192.591C232.451 192.124 235.407 192.706 235.407 190.028C235.407 187.348 236 183.27 236 179.075C236 174.88 232.451 155.887 231.032 152.743C229.611 149.596 229.968 148.897 229.849 147.732" fill="#EE9A83"/></g><g id="Master/Female Character/Sitting" transform="matrix(-1 0 0 1 355 11) scale(1 1)"><g id="Master/Female Character/Sitting"><g id="Female Character Sitting/Lower Body" transform="translate(68 108) scale(1 1)"><g id="Female Character Sitting/Lower Body/Jeans 4"><g id="Group 22"><path id="Fill 1" fill-rule="evenodd" clip-rule="evenodd" d="M58.4205 35.46C58.4205 35.46 63.6835 31.858 69.3615 32.136C75.0395 32.413 79.3515 34.213 80.9355 42.939C80.9355 42.939 93.7365 45.293 106.477 57.203C119.219 69.113 119.773 69.529 118.111 79.224C116.449 88.918 111.602 100.69 111.602 100.69L109.924 118.912C109.924 118.912 112.271 125.376 115.349 127.453C118.427 129.531 120.378 130.531 118.787 131.993C117.196 133.455 116.811 131.686 113.733 131.993C110.655 132.301 110.347 130.686 110.347 130.686C110.347 130.686 113.964 139.381 120.351 143.151C120.351 143.151 122.505 145.152 120.351 146.075C118.196 146.999 112.194 146.922 109.347 144.998C106.5 143.074 100.651 138.149 98.7285 137.61C96.8045 137.072 97.7285 134.225 97.7285 134.225L100.498 126.53C100.498 126.53 99.7285 125.529 97.5745 124.837C95.4195 124.145 94.2655 121.221 94.4965 120.143C94.7275 119.065 98.5745 113.603 98.6515 109.601C98.6515 109.601 96.7275 104.138 94.1115 99.289C91.4955 94.441 94.8805 82.668 96.8045 79.513C96.8045 79.513 93.8035 79.975 88.1085 80.437C82.4145 80.898 63.0745 82.286 51.7325 76.039C40.3895 69.791 41.5065 48.609 58.4205 35.46Z" fill="#a15122"/><path id="Fill 3" fill-rule="evenodd" clip-rule="evenodd" d="M73.7451 51.0899C77.4661 51.9439 81.1421 53.0239 84.7361 54.3339C88.3261 55.6519 91.8641 57.1429 95.2451 58.9569C98.6171 60.7779 101.878 62.8539 104.783 65.3939C107.696 67.9049 110.19 70.9979 111.725 74.5769L111.751 74.6379L111.752 74.7049C111.779 79.0359 111.763 83.3659 111.739 87.6969C111.739 92.0279 111.651 96.3599 111.602 100.691C111.49 96.3609 111.339 92.0309 111.276 87.6999C111.19 83.3709 111.111 79.0409 111.076 74.7099L111.102 74.8379C109.602 71.3899 107.138 68.4249 104.296 65.9469C101.468 63.4349 98.2621 61.3579 94.9351 59.5289C91.5941 57.7209 88.1381 56.1109 84.5851 54.7329C81.0351 53.3569 77.4341 52.0779 73.7451 51.0899" fill="#7A3710"/><path id="Fill 5" fill-rule="evenodd" clip-rule="evenodd" d="M98.6514 109.601C99.2754 110.911 99.7564 112.282 100.178 113.669C100.592 115.061 100.918 116.48 101.147 117.918C101.332 119.36 101.485 120.817 101.399 122.278C101.312 123.732 101.065 125.192 100.498 126.531C100.867 125.127 101.007 123.698 101.014 122.268C101.02 120.837 100.873 119.408 100.653 117.993C100.468 116.57 100.14 115.169 99.8094 113.77C99.4674 112.372 99.0814 110.983 98.6514 109.601" fill="black"/><path id="Fill 7" fill-rule="evenodd" clip-rule="evenodd" d="M109.925 118.912C109.799 120.897 109.691 122.864 109.71 124.831C109.729 126.798 109.87 128.752 110.348 130.685C109.917 129.785 109.654 128.808 109.471 127.824C109.293 126.837 109.231 125.835 109.21 124.836C109.207 123.836 109.257 122.838 109.379 121.848C109.499 120.858 109.658 119.873 109.925 118.912" fill="black"/><path id="Fill 9" fill-rule="evenodd" clip-rule="evenodd" d="M96.4766 79.5606C96.5436 78.9956 96.8056 78.5016 97.1186 78.0596C97.4476 77.6276 97.8486 77.2376 98.3656 77.0056C98.2496 77.2676 98.1026 77.4876 97.9636 77.7116C97.8266 77.9376 97.6706 78.1446 97.5206 78.3566C97.2036 78.7706 96.8886 79.1756 96.4766 79.5606" fill="#7A3710"/><path id="Fill 11" fill-rule="evenodd" clip-rule="evenodd" d="M68.9585 31.0001C68.9585 31.0001 60.2085 32.5821 57.1645 35.2741C54.1195 37.9671 35.7205 50.2761 42.4815 66.6481C49.2435 83.0201 75.6665 82.4651 94.4795 79.8141C94.4795 79.8141 90.4705 95.8061 90.1115 104.768C89.7535 113.73 88.3195 121.259 88.3195 121.259C88.3195 121.259 104.947 122.932 112.099 121.736V111.579C112.099 111.579 115.803 111.818 116.162 110.981C116.162 110.981 119.866 74.5351 119.149 71.5481C118.432 68.5601 101.393 46.8321 80.9355 42.9381L79.5415 36.9051C79.5415 36.9051 79.2575 30.9731 68.9585 31.0001" fill="#C1EDFB"/><path id="Fill 13" fill-rule="evenodd" clip-rule="evenodd" d="M73.7451 51.0899C77.4811 51.8889 81.1591 52.9759 84.7631 54.2649C88.3571 55.5769 91.9121 57.0409 95.2981 58.8609C98.6821 60.6739 101.947 62.7579 104.87 65.2949C107.779 67.8269 110.315 70.9149 111.829 74.5339L111.863 74.6129L111.864 74.6989C111.973 80.8449 112.024 86.9909 112.065 93.1379C112.124 99.2839 112.124 105.432 112.099 111.579C111.846 105.437 111.618 99.2929 111.448 93.1499C111.261 87.0059 111.083 80.8609 110.964 74.7159L110.998 74.8809C109.532 71.4399 107.035 68.5189 104.221 66.0339C101.399 63.5339 98.2081 61.4469 94.8861 59.6239C91.5531 57.8119 88.1051 56.1899 84.5621 54.7959C81.0201 53.4009 77.4201 52.1319 73.7451 51.0899" fill="#AADBEB"/><g id="Group 17"><path id="Fill 15" fill-rule="evenodd" clip-rule="evenodd" d="M99.6221 127.618C99.6221 127.618 100.042 127.556 100.08 127.692C100.116 127.822 99.8321 128.38 99.8321 128.38C100.416 130.521 102.026 136.594 102.2 139.02C102.232 139.469 102.469 139.87 102.842 140.12L109.273 144.422C109.848 144.806 110.62 144.651 111.002 144.075C112.04 142.512 114.178 139.796 116.418 139.954C116.418 139.954 124.812 144.556 124.812 145.141C124.812 145.725 119.526 148.865 109.902 146.163C109.902 146.163 102.178 140.687 99.6221 139.081C97.0661 137.474 95.3141 136.744 96.5561 133.824C97.7971 130.903 99.6221 127.618 99.6221 127.618" fill="#131313"/></g><path id="Fill 18" fill-rule="evenodd" clip-rule="evenodd" d="M110.25 130.408L110.689 131.439C110.689 131.439 115.212 134.208 121.459 131.638C121.459 131.638 122.138 131.233 121.595 130.99C121.052 130.746 115.514 127.098 115.065 127.245C114.617 127.392 112.428 130.718 110.25 130.408" fill="#131313"/><path id="Fill 20" fill-rule="evenodd" clip-rule="evenodd" d="M92.7832 121.64C92.7832 121.64 92.1932 123.028 93.2642 123.442C94.3352 123.857 100.379 126.862 100.379 126.862L100.498 126.531C100.121 125.583 99.0602 123.457 98.7922 122.009L92.7832 121.64Z" fill="#131313"/></g></g></g><g id="Female Character/Upper Body" transform="translate(82 93) scale(1 1)"><g id="Female Character/Upper Body/Blouse 2"><path id="Fill 55" fill-rule="evenodd" clip-rule="evenodd" d="M51.124 1.21845C51.124 1.21845 52.0261 9.92579 44.0001 14.3982C44.0001 14.3982 43.8584 20 52.8344 20C61.8104 20 62 15.2458 62 15.2458C62 15.2458 57.8688 12.1847 57.3928 11.4321C57.3928 11.4321 57.6782 8.46699 58.4386 7.1961C59.1979 5.9252 59.8156 2.53683 56.1115 0.700194C52.4063 -1.13543 51.124 1.21845 51.124 1.21845" fill="#a15122"/><g id="Group 34"><g id="Group 3"><path id="Fill 1" fill-rule="evenodd" clip-rule="evenodd" d="M47.2702 11.8731C47.2702 11.8731 42.0043 15.0646 38.7923 16.1986C35.5803 17.3326 35.5803 17.4266 32.5563 20.7336C29.5333 24.0416 17.2483 39.1596 15.9263 42.4656C14.6033 45.7736 12.2413 62.3086 9.6903 64.3876C7.1383 66.4656 4.2093 68.4986 2.6983 70.7656C1.1863 73.0336 -0.0887011 73.1746 0.00429888 73.6476C0.0992989 74.1206 1.6593 73.9776 4.0203 71.9946C4.0203 71.9946 3.4073 73.5056 3.0293 74.4986C2.6513 75.4896 0.903299 76.9546 1.0913 77.2376C1.2813 77.5216 3.1703 76.3876 3.5003 75.7256C3.5003 75.7256 2.7453 77.5686 2.1783 77.9466C1.6113 78.3246 3.6903 78.2776 4.7773 76.6246C5.8633 74.9696 7.1863 72.8916 7.6593 72.9386C8.1303 72.9856 5.7213 75.3956 5.3433 77.3796C4.9653 79.3636 4.0683 79.1276 4.2093 79.6476C4.3513 80.1666 6.5723 78.7966 7.3283 76.5766C8.0833 74.3556 10.3043 73.4586 10.3043 73.4586C10.3043 73.4586 10.5403 76.8126 11.4383 76.5296C12.3353 76.2466 12.0043 74.0256 12.9503 72.9856C13.8943 71.9466 13.8473 71.0956 13.7523 69.8206C13.6593 68.5446 13.4223 66.4186 14.7453 64.3396C16.0683 62.2616 21.8313 50.3556 22.3993 47.5216C22.3993 47.5216 33.1223 33.4426 38.1303 30.5606C38.1303 30.5606 39.3593 36.1826 41.2023 39.3476C43.0443 42.5136 44.5563 48.3726 43.7063 49.8836H65.0833C65.0833 49.8836 65.9343 44.3556 67.3513 41.8046C67.3513 41.8046 69.8313 50.6636 70.8943 51.8686C71.9573 53.0726 86.4143 61.2216 86.6263 63.9856C86.8393 66.7496 90.2413 66.7966 92.5083 71.8516C92.5083 71.8516 93.3123 72.8436 93.3593 71.9946C93.4073 71.1436 92.4143 69.1596 92.4143 69.1596C92.4143 69.1596 93.7853 71.4266 94.0683 72.5136C94.3513 73.5996 95.5803 72.9856 95.5803 72.9856L95.3433 72.0416C95.3433 72.0416 96.4773 73.2696 97.2813 72.9856C97.2813 72.9856 96.3353 70.1986 95.6743 69.3956C95.6743 69.3956 97.9893 71.5686 98.6983 71.2856C99.4073 71.0016 97.5493 69.1596 96.9203 68.0986C96.3113 67.0716 95.1953 64.3496 95.0533 63.9246C94.9123 63.4996 89.4853 60.4656 88.9653 59.9466C88.4463 59.4266 85.2813 56.1206 83.5803 53.6166C81.8783 51.1116 77.4383 47.6166 77.4383 47.6166C77.4383 47.6166 72.9033 31.0806 72.1943 29.0956C71.4853 27.1116 70.5403 21.7736 68.0373 19.7896C65.5333 17.8046 59.3046 13.1382 59.3046 13.1382L47.2702 11.8731Z" fill="#a15122"/></g><path id="Fill 4" fill-rule="evenodd" clip-rule="evenodd" d="M86.9526 63.0049C87.9056 63.9099 88.9826 64.6649 90.1356 65.2499C91.3336 65.7789 92.4446 66.6009 93.5356 67.2269C93.8026 67.3739 94.0946 67.4969 94.2926 67.4439C94.5586 67.3729 94.9076 67.2339 95.0176 67.0869C95.0396 67.0529 95.0456 67.0409 95.0426 67.0099C95.0726 67.0809 95.0146 66.9799 94.9696 66.9429C94.8656 66.8379 94.7416 66.7339 94.6186 66.6319L93.8526 66.0299L93.4626 65.7419C93.3166 65.6499 93.1736 65.5059 93.0706 65.3739C92.8586 65.1039 92.6886 64.8379 92.4606 64.6239C92.3596 64.5249 92.1996 64.4039 92.1096 64.2479C92.0156 64.0979 91.9526 63.9389 91.9056 63.7769C91.8076 63.4539 91.7646 63.1239 91.7576 62.7939C91.9006 63.4209 92.0486 64.1239 92.6226 64.4399C92.8936 64.6559 93.0986 64.9379 93.3096 65.1679C93.4206 65.2859 93.5156 65.3729 93.6536 65.4489L94.0756 65.7169C94.3526 65.8979 94.6266 66.0859 94.8896 66.2939C95.0206 66.3989 95.1516 66.5019 95.2816 66.6279C95.3426 66.7109 95.4266 66.7189 95.4886 66.9549C95.5106 67.0889 95.4646 67.2429 95.3926 67.3449C95.0816 67.7149 94.7586 67.7819 94.4126 67.9059C93.9536 68.0109 93.6026 67.8139 93.3006 67.6669C92.7016 67.3249 92.1826 66.9359 91.6346 66.5829C91.0886 66.2189 90.5296 65.9219 89.9526 65.5859C88.8016 64.9119 87.7576 64.0529 86.9526 63.0049" fill="black"/><path id="Fill 6" fill-rule="evenodd" clip-rule="evenodd" d="M95.0605 68.2266L95.4885 68.8816C95.6455 69.0926 95.7565 69.3286 95.8245 69.5886L95.8105 69.5966C95.6225 69.4036 95.4805 69.1846 95.3825 68.9406L95.0465 68.2336L95.0605 68.2266Z" fill="black"/><path id="Fill 8" fill-rule="evenodd" clip-rule="evenodd" d="M93.5923 68.5752L94.4943 70.2962C94.8263 70.8532 95.1123 71.4242 95.3543 72.0342L95.3323 72.0482C94.8653 71.5732 94.5623 70.9842 94.3163 70.3852C94.0473 69.7922 93.8003 69.1922 93.5693 68.5862L93.5923 68.5752Z" fill="black"/><path id="Fill 10" fill-rule="evenodd" clip-rule="evenodd" d="M91.98 68.2276C92.057 68.3786 92.162 68.5186 92.255 68.6606C92.375 68.7896 92.453 68.9376 92.425 69.1526L92.404 69.1646C92.204 69.0816 92.114 68.9286 92.077 68.7506C92.02 68.5836 91.966 68.4146 91.956 68.2316L91.98 68.2276Z" fill="black"/><path id="Fill 12" fill-rule="evenodd" clip-rule="evenodd" d="M58.4292 51.6788C58.4292 51.6788 63.6098 69.119 63.1072 82.4138C63.1072 82.4138 67.6892 81.4898 71.7052 78.7498C71.7052 78.7498 68.8702 59.5688 61.7372 51.3478L58.4292 51.6788Z" fill="#819500"/><path id="Fill 14" fill-rule="evenodd" clip-rule="evenodd" d="M36.4374 14.4649C36.4374 14.4649 48.2514 15.7259 52.6564 15.4429C52.6564 15.4429 57.9844 28.5929 59.2134 32.6029C59.2384 32.6809 59.3514 32.6539 59.3414 32.5729C58.9804 29.4819 57.8194 19.6969 57.3434 17.4979C56.7764 14.8759 63.2314 14.8759 63.2314 14.8759C63.2314 14.8759 68.0434 18.4359 69.0364 19.0659C70.0284 19.6939 80.9984 35.2139 80.9984 35.2139C80.9984 35.2139 73.6404 39.9619 67.9724 41.6629C67.9724 41.6629 67.8324 44.1439 65.6344 47.1909C63.4374 50.2369 65.6344 47.1909 65.6344 47.1909C65.6344 47.1909 64.8744 49.8839 64.9794 49.8839C65.0834 49.8839 43.1694 49.2679 43.1694 49.2679L43.6144 45.8959C43.6144 45.8959 40.2644 42.5839 38.7764 40.6709C38.7764 40.6709 22.8324 35.7809 16.5954 32.3799C16.5954 32.3799 15.6734 31.7419 17.7994 29.2619C19.9254 26.7809 34.7374 16.6049 36.4374 14.4649" fill="#FFFFF1"/><path id="Fill 16" fill-rule="evenodd" clip-rule="evenodd" d="M68.5172 23.0958C69.3692 26.2218 69.9302 29.3938 70.5612 32.5228C70.6402 32.9118 70.7172 33.3008 70.8092 33.6798C70.8522 33.8738 70.9082 34.0358 70.9562 34.2318C71.0062 34.4798 71.0752 34.7418 71.0502 34.9668C71.0182 35.8958 70.7492 36.6888 70.4362 37.4538C69.8052 38.9808 68.9472 40.3668 67.9722 41.6628C68.6102 40.1768 69.2222 38.6868 69.7022 37.1908C69.9162 36.4458 70.1332 35.6718 70.1032 34.9868C70.1122 34.8068 70.0592 34.6778 70.0382 34.5308C69.9862 34.3368 69.9092 34.1178 69.8622 33.9208C69.7572 33.5188 69.6672 33.1198 69.5812 32.7228C68.9732 29.5358 68.5912 26.3388 68.5172 23.0958" fill="#E0D4B6"/><path id="Fill 18" fill-rule="evenodd" clip-rule="evenodd" d="M41.3276 31.836C42.9736 34.47 44.3886 37.199 45.8086 39.924L47.9096 44.018C48.2656 44.694 48.6176 45.375 48.9956 46.038C49.3756 46.695 49.7276 47.393 50.3196 47.887C49.9476 47.75 49.6486 47.466 49.3766 47.19C49.0966 46.912 48.8426 46.614 48.5906 46.314C48.1046 45.7 47.6566 45.064 47.2346 44.41C46.3856 43.108 45.6386 41.751 44.9206 40.382C43.5196 37.625 42.2606 34.801 41.3276 31.836" fill="#E0D4B6"/><path id="Fill 20" fill-rule="evenodd" clip-rule="evenodd" d="M37.7837 37.3165C39.0517 38.5775 40.0927 39.9655 41.1067 41.3755C42.1007 42.8015 43.0567 44.2345 43.8787 45.8205C42.4467 44.7415 41.3157 43.3725 40.2907 41.9525C39.2947 40.5095 38.3877 39.0025 37.7837 37.3165" fill="#E0D4B6"/><path id="Fill 22" fill-rule="evenodd" clip-rule="evenodd" d="M57.1756 46.379L60.1426 48.089L55.6426 48.239C55.6426 48.239 56.2896 46.275 57.1756 46.379" fill="#819500"/><path id="Fill 24" fill-rule="evenodd" clip-rule="evenodd" d="M55.1276 45.1651C54.3066 44.7711 53.3206 45.0501 52.8396 45.8241C52.4816 46.3981 52.0516 47.1461 51.5736 48.0111C50.9406 49.1531 50.2246 50.5031 49.4736 51.9511C46.0946 58.4611 42.0356 66.9031 42.0356 66.9031C42.2486 67.6121 49.4286 70.6241 49.4286 70.6241C49.8156 69.7371 53.0526 59.5061 55.2176 52.6201C55.7656 50.8781 56.2416 49.3591 56.5886 48.2511C56.9526 47.0891 57.1756 46.3791 57.1756 46.3791L55.1276 45.1651Z" fill="#819500"/><path id="Fill 26" fill-rule="evenodd" clip-rule="evenodd" d="M56.5883 48.2515C56.2413 49.3595 55.7653 50.8785 55.2173 52.6205C60.7833 52.7665 65.093 51.2863 65.783 50.6973C66.916 49.7293 65.6343 47.1905 65.6343 47.1905C62.2453 47.9125 59.2323 48.2075 56.5883 48.2515Z" fill="#819500"/><path id="Fill 28" fill-rule="evenodd" clip-rule="evenodd" d="M66.2508 48.6962C66.2728 49.2892 66.4133 49.9537 66.0273 50.5037C65.8253 50.7787 65.5273 50.9487 65.2623 51.0797C64.9903 51.2197 64.2851 51.553 64.0041 51.659C63.4421 51.868 62.8731 52.05 62.2931 52.192C59.9721 52.748 57.5811 52.909 55.2121 52.818C55.1041 52.816 55.0171 52.727 55.0191 52.619C55.0191 52.601 55.0241 52.578 55.0291 52.561L56.4481 48.207C56.4661 48.145 56.5251 48.105 56.5861 48.103C58.1011 48.091 59.6171 48.006 61.1261 47.849C62.6441 47.692 64.1211 47.457 65.6471 47.169C65.8551 47.762 66.1998 48.0882 66.2508 48.6962ZM61.1481 48.028C59.6381 48.232 58.1171 48.358 56.5911 48.399L55.2221 52.423C56.3931 52.436 57.5641 52.384 58.7261 52.262C59.8871 52.148 61.0451 51.981 62.1771 51.706C62.7461 51.581 63.3081 51.432 63.8581 51.25C64.3861 51.057 65.4173 50.6487 65.7513 50.2837C66.0873 49.8787 66.0058 49.2692 66.0208 48.6992C66.0398 48.1282 65.7251 47.756 65.6221 47.212C64.1741 47.555 62.6501 47.826 61.1481 48.028Z" fill="#586600"/><path id="Fill 30" fill-rule="evenodd" clip-rule="evenodd" d="M43.614 45.8956C42.594 46.1126 42.603 49.8126 42.603 49.8126C45.01 50.8316 47.311 51.5086 49.473 51.9516C50.224 50.5026 50.941 49.1536 51.574 48.0106C46.382 47.4046 43.614 45.8956 43.614 45.8956" fill="#819500"/><path id="Fill 32" fill-rule="evenodd" clip-rule="evenodd" d="M47.5568 47.0702C48.8938 47.3682 50.2458 47.5832 51.6028 47.7582C51.7428 47.7742 51.8428 47.9012 51.8258 48.0412C51.8218 48.0732 51.8108 48.1062 51.7968 48.1342L49.6428 52.0402L49.6388 52.0462C49.5978 52.1212 49.5138 52.1562 49.4338 52.1402C47.0758 51.6232 44.7668 50.8802 42.5658 49.8992C42.5308 49.8862 42.5098 49.8492 42.5088 49.8122C42.5278 49.1052 42.5828 48.4042 42.6998 47.7082C42.7608 47.3602 42.8308 47.0142 42.9548 46.6802C43.0838 46.3632 43.2288 45.9832 43.6178 45.8702C44.9038 46.4092 46.2228 46.7552 47.5568 47.0702ZM43.0348 46.7082C42.9258 47.0362 42.8668 47.3822 42.8178 47.7252C42.7248 48.4162 42.6938 49.1172 42.6978 49.8122L42.6398 49.7252C44.8638 50.6182 49.3028 51.8632 49.3028 51.8632L51.3128 48.239C49.9308 48.092 48.7948 47.8422 47.4558 47.4712C46.1248 47.0942 44.7968 46.6092 43.6108 45.9202C43.3018 46.0292 43.1398 46.3922 43.0348 46.7082Z" fill="#586600"/></g><path id="Path (Stroke)" fill-rule="evenodd" clip-rule="evenodd" d="M58.0033 47.2512L58.0084 47.2517L58.0074 47.257L56.0522 52.6034L50.0458 70.957L50.0372 70.9607L56.0443 52.6082L58.0033 47.2512ZM45.8418 69.0298L42.2944 67.3451L42.2958 67.3492L45.8418 69.0298ZM42.2752 67.2892L42.316 67.2115L42.4267 67.2695C42.316 67.2115 42.3159 67.2116 42.316 67.2115L42.6906 66.4972C42.7187 66.4437 42.7482 66.3874 42.7791 66.3285C42.7253 66.4292 42.675 66.5233 42.6286 66.6102L42.2717 67.2789L42.2752 67.2892ZM42.1359 67.268C42.0256 67.2091 42.0256 67.2091 42.0257 67.2089L42.4081 66.4925C42.6515 66.0365 42.9994 65.3851 43.417 64.6035C44.2522 63.0404 45.3665 60.9565 46.4827 58.8736C47.5989 56.7908 48.7172 54.7088 49.5603 53.1496C49.9818 52.37 50.3347 51.7209 50.5842 51.2675C50.7089 51.0409 50.8081 50.8628 50.8771 50.7416C50.9116 50.6812 50.9391 50.634 50.9587 50.6017C50.9683 50.5859 50.9772 50.5719 50.9846 50.5613C50.9879 50.5565 50.9933 50.549 50.9997 50.5416C51.0023 50.5387 51.0098 50.5303 51.021 50.522C51.0274 50.5175 51.0449 50.5079 51.0565 50.5034C51.0763 50.4985 51.1266 50.5006 51.1549 50.5113C51.184 50.5326 51.2147 50.5805 51.22 50.6011C51.2214 50.6126 51.2216 50.6308 51.2209 50.6378C51.2195 50.6495 51.2167 50.6589 51.2158 50.6619C51.2133 50.6699 51.2103 50.6776 51.2083 50.6826C51.2036 50.6939 51.1971 50.7084 51.1894 50.7249C51.1737 50.7585 51.1501 50.807 51.1194 50.8688C51.0579 50.9927 50.9666 51.1731 50.8497 51.4017C50.6158 51.8591 50.2792 52.5107 49.8739 53.2918C49.0633 54.8539 47.978 56.9341 46.8911 59.0135C45.8042 61.0928 44.7158 63.1714 43.8991 64.7301C43.4907 65.5094 43.1503 66.1588 42.912 66.6133L42.5978 67.2124L49.8705 70.6663L55.8087 52.5244L57.769 47.164C57.8082 47.059 57.9103 46.9977 58.0132 47.0001L58.0229 47.0003L58.0825 47.0111L58.0917 47.0142C58.1956 47.0502 58.2634 47.1477 58.2607 47.2548L58.2605 47.2653L58.249 47.3242L56.2877 52.6872L50.2481 71.1427L49.9677 71.2619L42.0934 67.5299L42 67.2571L42.0257 67.2089L42.1359 67.268Z" fill="#586600"/><path id="Path 2 (Stroke)" fill-rule="evenodd" clip-rule="evenodd" d="M62.3002 52.2507C62.2997 52.25 62.2985 52.2498 62.2977 52.2504C62.297 52.2509 62.2969 52.2517 62.2973 52.2523L62.2979 52.2531L62.4624 52.486C65.5488 56.9301 68.6722 65.6186 71.8309 78.5204L71.9921 79.1822L71.9941 79.1771L71.4951 77.1503C71.4951 77.1502 71.4951 77.1504 71.4951 77.1503C68.3883 64.7469 65.3232 56.4567 62.3002 52.2507ZM71.9723 79.2324L71.6895 79.4132L71.688 79.4141C69.7834 80.5949 67.0087 82.054 63.7346 82.8671L63.2379 82.9868L63.2417 82.9896L63.7367 82.8696C63.7369 82.8696 63.7366 82.8697 63.7367 82.8696C67.1631 82.0186 70.0281 80.5097 71.9698 79.2386L71.9723 79.2324ZM63.1822 82.945L63.1492 82.2555C63.1492 82.2555 63.1492 82.2555 63.1492 82.2555C63.0623 80.5614 62.9654 78.9259 62.8573 77.3502C62.9791 79.1382 63.0862 81.003 63.1801 82.9433L63.1822 82.945ZM60.6222 59.8039C59.9687 56.9119 59.1869 54.5345 58.2533 52.6898C58.2529 52.6891 58.2519 52.6886 58.2509 52.6891C58.2501 52.6895 58.2499 52.6904 58.2502 52.691C59.1866 54.5411 59.9691 56.9197 60.6222 59.8039ZM62.1521 52.0471C62.2649 51.9663 62.4221 51.992 62.5032 52.1048C65.5572 56.3539 68.6311 64.6873 71.7376 77.0895L72.2559 79.1948L72.1732 79.4041L72.1401 79.4258C70.181 80.7126 67.2772 82.2479 63.797 83.1123L63.1859 83.2604L62.936 83.0727L62.9332 83.014C62.5843 75.7754 62.0521 69.593 61.2591 64.5332C60.4658 59.4715 59.4129 55.542 58.0271 52.8038C57.9643 52.6797 58.0143 52.5284 58.1383 52.4659C58.2622 52.4034 58.4136 52.4529 58.4764 52.5769C59.8656 55.3219 60.9146 59.2128 61.7071 64.1753C62.4999 69.1395 63.0372 75.1845 63.3988 82.2427L63.4201 82.6857L63.6744 82.6245C63.6745 82.6244 63.6742 82.6245 63.6744 82.6245C66.9137 81.8199 69.6636 80.3749 71.5556 79.2021C71.5558 79.2019 71.5553 79.2023 71.5556 79.2021L71.7148 79.1002L71.5881 78.5799M62.1521 52.0471C62.0393 52.1279 62.0132 52.2848 62.094 52.3977ZM62.094 52.3977C62.0939 52.3975 62.0941 52.3979 62.094 52.3977ZM62.094 52.3977L62.2577 52.6294C62.2576 52.6293 62.2577 52.6296 62.2577 52.6294" fill="#586600"/></g></g><g id="Female Character/Head" transform="translate(111 63) scale(1 1)"><g id="Female Character/Head/Hijab 2"><g id="Group 186"><path id="Fill 55" fill-rule="evenodd" clip-rule="evenodd" d="M15.528 44.299C15.528 44.299 15.6941 48.1563 24.5001 48.1563C33.3061 48.1563 33.187 45.138 33.187 45.138C33.187 45.138 29.134 42.108 28.667 41.363C28.667 41.363 28.947 38.428 29.693 37.17C30.438 35.912 31.044 32.558 27.41 30.74C23.775 28.923 22.517 31.253 22.517 31.253C22.517 31.253 23.402 39.872 15.528 44.299Z" fill="#a15122"/><path id="Fill 57" fill-rule="evenodd" clip-rule="evenodd" d="M20.3001 32.0304C20.3001 32.0304 21.4341 34.2984 23.9141 35.7864C26.3941 37.2744 29.5121 39.5424 31.0711 39.0464C32.6311 38.5504 36.7621 35.3844 37.7541 31.8414C38.7461 28.2984 39.3631 22.3924 38.7251 19.4864C38.0881 16.5814 34.4731 10.4864 28.0251 10.4864C21.5751 10.4864 15.8361 17.2894 17.3941 24.8014C17.3941 24.8014 15.6021 26.9994 17.1361 29.2664C18.6701 31.5344 20.3001 32.0304 20.3001 32.0304" fill="#a15122"/><path id="Fill 59" fill-rule="evenodd" clip-rule="evenodd" d="M24.1478 27.2823C24.1478 27.2823 26.9948 27.3523 27.7508 27.9023C27.7508 27.9023 28.0278 28.0003 27.9208 27.6363C27.9208 27.6363 28.3288 27.9283 28.3558 27.7693C28.3818 27.6093 28.1778 26.0683 26.5748 25.8553C24.9718 25.6433 23.7668 27.1133 24.1478 27.2823" fill="black"/><path id="Fill 61" fill-rule="evenodd" clip-rule="evenodd" d="M36.6205 26.8741C36.6205 26.8741 34.8145 26.8481 34.0825 27.3961C34.0825 27.3961 33.8145 27.4941 33.9165 27.1311C33.9165 27.1311 33.5225 27.4231 33.4965 27.2641C33.4715 27.1041 34.2055 25.6521 35.7585 25.4391C37.3105 25.2271 37.7185 26.5851 36.6205 26.8741" fill="black"/><path id="Fill 63" fill-rule="evenodd" clip-rule="evenodd" d="M31.8901 32.2247C31.8901 32.2247 31.6771 32.4027 31.8901 32.5787C32.1021 32.7567 33.5021 32.2607 33.8211 31.7997C34.1401 31.3387 33.9511 31.2867 33.4961 31.5517C33.0411 31.8177 31.8901 32.2247 31.8901 32.2247" fill="black"/><path id="Fill 65" fill-rule="evenodd" clip-rule="evenodd" d="M29.0198 33.6602C29.0198 33.6602 28.9318 33.5012 29.6928 33.5012C30.4548 33.5012 30.3838 33.6422 31.6238 33.6602C32.8638 33.6782 33.3718 33.6602 32.8878 33.9782C32.4038 34.2982 32.4388 34.2802 32.3508 34.5282C32.2618 34.7762 31.1408 35.2192 30.2568 34.9182C29.3738 34.6162 28.4718 33.8172 29.0198 33.6602" fill="#EE4E2F"/><path id="Fill 67" fill-rule="evenodd" clip-rule="evenodd" d="M23.699 23.1007C23.834 23.0587 23.652 23.3367 24.266 23.2307C24.88 23.1247 26.557 22.9357 28.069 23.8807C28.069 23.8807 28.339 23.6677 28.358 23.2667C28.375 22.8907 25.829 21.6037 23.663 23.0307C23.515 23.1277 23.561 23.1437 23.699 23.1007" fill="black"/><path id="Fill 69" fill-rule="evenodd" clip-rule="evenodd" d="M36.6204 23.2423C36.6204 23.2423 35.7224 22.2743 34.2104 22.7223C32.6994 23.1723 32.8394 23.8563 32.8874 24.0463C32.9354 24.2343 34.0214 23.3123 35.1554 23.3253C36.2894 23.3373 36.6204 23.5733 36.6204 23.2423" fill="black"/></g><g id="Group 23"><g id="Group 3"><path id="Fill 1" fill-rule="evenodd" clip-rule="evenodd" d="M38.3997 29.1102C38.3997 29.1102 41.3217 19.0035 36.8567 14.6405C32.3897 10.2755 24.6377 5.86051 19.6077 10.4305C14.5757 14.9995 13.2927 17.7715 12.4197 21.3145C11.5467 24.8565 10.7257 28.6545 14.3707 33.4295C14.3707 33.4295 14.9357 35.3805 15.8077 35.8935C16.6807 36.4065 18.4257 38.0495 18.4257 38.0495C18.4257 38.0495 16.9377 38.4605 17.2447 40.2575C17.2447 40.2575 16.2187 40.2575 15.8597 41.0265C15.4997 41.7975 15.0887 42.7215 13.9077 42.8755C12.7277 43.0295 11.8557 42.4645 10.5707 44.0565C9.28767 45.6485 8.51867 46.7265 9.33967 47.0335C9.33967 47.0335 10.9827 46.1095 11.3927 46.1095C11.3927 46.1095 23.7657 52.2185 34.5457 46.1095C34.5457 46.1095 32.6977 43.9535 32.4417 43.6965C32.1847 43.4405 31.4147 43.2345 31.4147 43.2345L30.2337 40.5145L30.9017 39.0765C30.9017 39.0765 24.2817 37.4345 22.7657 34.4045C21.2497 31.3755 19.9147 23.0085 23.2517 19.6195C26.5887 16.2315 40.6587 14.8813 38.3997 28.1773V29.1102Z" fill="#FFBCBD"/></g><path id="Fill 4" fill-rule="evenodd" clip-rule="evenodd" d="M28.2313 12.5348C27.3083 13.1178 26.3753 13.6788 25.4693 14.2808C24.5553 14.8638 23.6433 15.4618 22.8123 16.1288C22.6093 16.2958 22.4023 16.4688 22.2343 16.6488C22.0413 16.8418 21.9523 16.9658 21.8353 17.2238C21.6243 17.6998 21.4373 18.2018 21.2873 18.7128C20.9773 19.7328 20.7723 20.7858 20.6403 21.8458C20.3603 23.9638 20.4103 26.1278 20.7963 28.2398C21.1683 30.3558 21.8683 32.4158 22.7653 34.4048C21.5923 32.5618 20.7323 30.5078 20.2313 28.3538C19.7143 26.2018 19.6653 23.9528 19.8973 21.7498C20.0573 20.6518 20.2933 19.5648 20.6373 18.5078C20.8063 17.9768 21.0093 17.4598 21.2513 16.9448C21.3533 16.7068 21.5823 16.3758 21.7943 16.2038C22.0113 15.9998 22.2363 15.8368 22.4633 15.6718C24.2903 14.4078 26.2393 13.4328 28.2313 12.5348" fill="#CE6A62"/><path id="Fill 6" fill-rule="evenodd" clip-rule="evenodd" d="M20.1172 23.6754C20.3882 22.7064 20.8712 21.8204 21.4652 21.0124C21.7742 20.6174 22.0972 20.2284 22.4952 19.9084C22.8842 19.5864 23.3152 19.2974 23.8012 19.1544C23.0392 19.8014 22.4462 20.5364 21.8642 21.3134C21.2752 22.0804 20.7342 22.8854 20.1172 23.6754" fill="#CE6A62"/><g id="Group 10"><path id="Fill 8" fill-rule="evenodd" clip-rule="evenodd" d="M32.4922 13.151C33.6842 13.685 34.7562 14.467 35.7232 15.358C36.6952 16.249 37.5152 17.312 38.1582 18.478C38.8052 19.642 39.2072 20.951 39.3262 22.273C39.5022 23.598 39.2632 24.928 38.9082 26.169C38.9582 24.868 39.0392 23.591 38.7552 22.354C38.5122 21.125 38.1232 19.923 37.4992 18.834C36.9092 17.729 36.1532 16.713 35.3142 15.76C34.8922 15.286 34.4432 14.831 33.9662 14.405C33.5072 13.954 33.0042 13.553 32.4922 13.151" fill="#CE6A62"/></g><path id="Fill 11" fill-rule="evenodd" clip-rule="evenodd" d="M33.6221 17.566C34.2821 17.832 34.8981 18.186 35.4941 18.573C36.0931 18.958 36.6461 19.41 37.1691 19.9C37.6841 20.395 38.1571 20.953 38.5051 21.592C38.8511 22.221 39.0991 22.962 38.9611 23.675C38.8861 22.965 38.5661 22.349 38.1791 21.795C37.7791 21.246 37.3271 20.729 36.8221 20.26C35.8301 19.299 34.7301 18.447 33.6221 17.566" fill="#CE6A62"/><path id="Fill 13" fill-rule="evenodd" clip-rule="evenodd" d="M15.0381 24.2399C15.7901 26.1119 16.5801 27.9469 17.5001 29.7159C17.9611 30.5989 18.4671 31.4549 19.0011 32.2949C19.5551 33.1219 20.1651 33.9069 20.8391 34.6619C20.0241 34.0609 19.3201 33.3159 18.6871 32.5179C18.0661 31.7129 17.5361 30.8419 17.0571 29.9469C16.5971 29.0429 16.1841 28.1149 15.8491 27.1599C15.5121 26.2059 15.2171 25.2359 15.0381 24.2399" fill="#CE6A62"/><path id="Fill 15" fill-rule="evenodd" clip-rule="evenodd" d="M12.0701 29.0192C12.7481 30.0412 13.4751 31.0162 14.2501 31.9272C15.0241 32.8592 15.9051 33.5812 16.9161 34.2752C18.8821 35.6962 20.8821 37.0902 22.7651 38.6652C20.5571 37.5872 18.4781 36.3032 16.4771 34.8832C15.9861 34.5132 15.4881 34.1602 15.0151 33.7172C14.5581 33.2762 14.1501 32.7982 13.7921 32.2892C13.0651 31.2782 12.4911 30.1742 12.0701 29.0192" fill="#CE6A62"/><path id="Fill 17" fill-rule="evenodd" clip-rule="evenodd" d="M16.7107 36.5485C17.7737 37.2225 18.8847 37.8025 20.0267 38.2945C21.1717 38.7805 22.3487 39.1895 23.5607 39.4355C24.7617 39.7395 26.0057 39.7965 27.2377 39.7615L28.1647 39.6995L29.0807 39.5365C29.7077 39.4755 30.2797 39.2115 30.9007 39.0765C29.7677 39.6115 28.5457 40.0475 27.2667 40.1455C25.9977 40.2625 24.7017 40.1975 23.4547 39.9235C22.2127 39.6285 20.9997 39.2135 19.8657 38.6425C18.7347 38.0675 17.6527 37.3905 16.7107 36.5485" fill="#CE6A62"/><path id="Fill 19" fill-rule="evenodd" clip-rule="evenodd" d="M17.418 39.693C19.556 40.49 21.664 41.154 23.822 41.429C24.899 41.56 25.978 41.552 27.053 41.431C28.134 41.297 29.161 40.939 30.233 40.514C29.397 41.286 28.356 41.901 27.209 42.196C26.066 42.493 24.868 42.547 23.702 42.422C22.541 42.259 21.409 41.952 20.35 41.49C19.292 41.029 18.281 40.455 17.418 39.693" fill="#CE6A62"/><path id="Fill 21" fill-rule="evenodd" clip-rule="evenodd" d="M11.3875 43.2779C13.0675 42.9889 14.9035 43.1109 16.5295 43.6879C18.1415 44.1229 19.8025 44.4309 21.4655 44.6099C24.7945 44.9739 28.1695 44.8769 31.4655 43.9019C29.9725 44.7569 28.2825 45.2909 26.5605 45.5359C24.8365 45.7959 23.0815 45.7829 21.3545 45.6039C19.6285 45.3969 17.9235 45.0369 16.2855 44.4259C14.7345 43.7419 13.1125 43.3839 11.3875 43.2779" fill="#CE6A62"/></g></g></g><g id="Female Character/Accesories" transform="translate(123 72) scale(34 36)"><g id="Female Character/Accesories/None" stroke="none" stroke-width="1" fill="none" fill-rule="evenodd" fill-opacity="0"/></g></g></g><g id="Master/Male Character/Sitting" transform="translate(-38 11) scale(1 1)"><g id="Master/Male Character/Sitting"><g id="Male Character/Head" transform="translate(110 70) scale(1 1)"><g id="Male Character/Head/Short Messy 2"><g id="Head"><path id="Fill 22" fill-rule="evenodd" clip-rule="evenodd" d="M6.60041 24.8188C6.60041 24.8188 7.89241 34.5038 1.23041 37.9608C1.23041 37.9608 0.776414 47.3828 13.9104 47.3828C27.0444 47.3828 20.3484 38.6928 20.3484 38.6928C20.3484 38.6928 15.9074 35.2788 17.0414 31.0768C18.1754 26.8758 13.9234 16.4158 6.60041 24.8188" fill="#ffc280"/><path id="Fill 24" fill-rule="evenodd" clip-rule="evenodd" d="M2.58125 16.4257C2.07425 16.1337 1.62925 16.1337 1.12025 16.3307C-0.580748 16.9927 0.316252 19.1187 1.21425 20.4417C2.11225 21.7637 2.39525 24.5047 5.18325 23.8897C5.18325 23.8897 5.32425 25.7327 6.55325 27.0557C7.78125 28.3787 13.3093 32.2527 14.8683 32.5827C16.4273 32.9137 18.5053 33.4337 20.0643 32.6307C20.0643 32.6307 20.9623 31.6857 21.5293 29.7007C22.0963 27.7167 22.5213 27.3387 22.7103 25.5437C22.8993 23.7487 23.8913 19.7327 23.4193 17.8897C22.9463 16.0477 25.9583 2.01165 12.2813 2.38665C-1.79575 2.77265 2.66025 16.4707 2.58125 16.4257" fill="#ffc280"/><path id="Fill 26" fill-rule="evenodd" clip-rule="evenodd" d="M2.58164 16.4257C2.58164 16.4257 4.60564 20.1577 5.24364 20.5827C5.88164 21.0087 5.73964 14.0637 7.01564 13.0717C8.29064 12.0787 9.03564 10.3787 9.21264 9.42167C9.38964 8.46467 20.6926 2.47667 23.3146 12.3977C23.3146 12.3977 23.5626 10.1657 27.1056 6.51567C27.1056 6.51567 25.9726 5.84267 25.2276 5.84267C24.4836 5.84267 23.4206 4.67367 23.4206 4.67367C23.4206 4.67367 24.8736 4.00067 25.6176 4.49667C25.6176 4.49667 25.4766 2.15767 22.0746 2.47667C22.0746 2.47667 22.6416 1.62667 22.7126 0.988672C22.7126 0.988672 19.9486 2.33467 17.6096 1.76767C17.6096 1.76767 18.7086 0.598672 18.8146 0.208672C18.8146 0.208672 18.7086 -0.00332758 15.5906 0.669672C12.4726 1.34267 9.49564 0.952672 7.08664 2.54767C4.67664 4.14167 0.672643 7.40167 1.06264 9.84667C1.45264 12.2917 2.58164 16.4257 2.58164 16.4257" fill="#f3ddb4"/><path id="Fill 28" fill-rule="evenodd" clip-rule="evenodd" d="M2.19947 19.0522C2.19947 19.0522 2.02647 18.8522 2.03247 19.1722C2.03947 19.4922 1.95947 19.6662 1.86647 19.6392C1.77247 19.6132 1.33247 18.8452 1.99247 18.4852C2.65347 18.1252 3.01347 18.8392 3.48747 19.7262C3.96047 20.6132 3.78047 21.8732 3.32047 21.9202C2.86047 21.9672 2.99347 21.6472 3.03947 21.0072C3.08647 20.3662 2.43947 19.1852 2.19947 19.0522" fill="black"/><path id="Fill 30" fill-rule="evenodd" clip-rule="evenodd" d="M4.01519 7.56726C3.77119 8.09226 3.66619 8.65026 3.66919 9.19226C3.69619 9.73526 3.76219 10.3123 3.82019 10.8743L3.98419 12.5773C4.04619 13.1443 4.07219 13.7153 4.20419 14.2753C3.87419 13.7813 3.74619 13.1963 3.60519 12.6383C3.46819 12.0733 3.38819 11.5003 3.32319 10.9253C3.27619 10.3453 3.22119 9.77526 3.28719 9.17026C3.36519 8.57026 3.59519 7.98226 4.01519 7.56726" fill="#2D1807"/><path id="Fill 32" fill-rule="evenodd" clip-rule="evenodd" d="M6.25943 7.89789C5.99543 9.37489 5.67543 10.8179 5.43543 12.2739C5.30243 12.9999 5.20843 13.7289 5.13643 14.4579C5.07543 15.1869 5.03943 15.9229 5.17343 16.6619C4.83743 15.9779 4.76943 15.1959 4.75243 14.4439C4.73443 13.6859 4.81843 12.9319 4.94243 12.1899C5.07643 11.4499 5.23743 10.7159 5.46543 10.0009C5.68543 9.28489 5.93243 8.57589 6.25943 7.89789" fill="#2D1807"/><path id="Fill 34" fill-rule="evenodd" clip-rule="evenodd" d="M10.6055 4.09468C11.6165 3.56268 12.6535 3.13968 13.6865 2.71068L15.2365 2.08168C15.7515 1.86568 16.2605 1.65068 16.7475 1.35468C16.3925 1.81168 15.8965 2.13568 15.4085 2.42568C14.9175 2.71868 14.3975 2.95368 13.8755 3.17368C12.8205 3.58968 11.7375 3.93268 10.6055 4.09468" fill="#2D1807"/><path id="Fill 36" fill-rule="evenodd" clip-rule="evenodd" d="M11.0068 5.25235C12.2118 5.06635 13.3548 4.75335 14.4068 4.23735C14.9378 3.99135 15.4368 3.68335 15.9108 3.33535C16.3988 2.99835 16.8148 2.57435 17.2668 2.15735C16.7138 3.24835 15.7518 4.15735 14.6238 4.68735C13.4998 5.22135 12.2188 5.45935 11.0068 5.25235" fill="#2D1807"/><path id="Fill 38" fill-rule="evenodd" clip-rule="evenodd" d="M15.4248 5.74846C16.0428 5.58346 16.6088 5.31746 17.1428 5.00746C17.4058 4.84246 17.6618 4.68146 17.9178 4.49746C18.2058 4.30546 18.5168 4.16546 18.8308 4.05946C19.4648 3.85446 20.1138 3.77146 20.7588 3.75546C21.4038 3.73846 22.0468 3.77446 22.6768 3.90546C22.0398 3.98246 21.4118 4.04246 20.7928 4.13846C20.1768 4.24246 19.5588 4.33746 18.9878 4.53446C18.6968 4.62146 18.4268 4.74546 18.1778 4.89146C17.9028 5.05346 17.6188 5.22746 17.3158 5.34946C16.7178 5.60346 16.0728 5.78846 15.4248 5.74846" fill="#2D1807"/><path id="Fill 40" fill-rule="evenodd" clip-rule="evenodd" d="M18.0469 5.65365C18.4669 5.48965 18.8809 5.34865 19.2929 5.20265C19.7099 5.05065 20.0999 4.91265 20.5379 4.77265C21.3969 4.51065 22.3799 4.46465 23.2199 4.80365C22.7699 4.84565 22.3369 4.86765 21.9189 4.94565C21.5009 5.02765 21.0889 5.12565 20.6779 5.25265C20.2739 5.36965 19.8279 5.51065 19.3889 5.57265C18.9469 5.64465 18.4989 5.69365 18.0469 5.65365" fill="#2D1807"/><path id="Fill 42" fill-rule="evenodd" clip-rule="evenodd" d="M10.8242 14.6127C10.8242 14.6127 11.1252 14.4357 11.8522 14.4177C12.5782 14.3997 15.5372 14.6477 15.5902 14.5417C15.6432 14.4357 15.5372 13.8507 15.5372 13.8507C15.5372 13.8507 15.0412 13.7797 15.0582 13.7087C15.0762 13.6377 15.6432 13.3367 15.6432 13.2657C15.6432 13.1957 11.8162 12.2567 10.8242 14.6127" fill="black"/><path id="Fill 44" fill-rule="evenodd" clip-rule="evenodd" d="M23.4027 14.3647C23.4027 14.3647 22.0387 14.2937 21.4187 14.4887C20.7987 14.6837 20.4967 14.7367 20.4437 14.6477C20.3907 14.5597 20.6387 14.2407 20.9047 14.0987C21.1707 13.9567 20.6387 13.7447 21.2057 13.4967C21.7727 13.2487 23.1727 13.3547 23.3667 13.7617L23.4027 14.3647Z" fill="black"/><path id="Fill 46" fill-rule="evenodd" clip-rule="evenodd" d="M11.5508 18.1025C11.5508 18.1025 13.0568 18.0315 13.8718 18.2265C14.6868 18.4215 15.7318 18.2085 15.7318 18.2085C15.7318 18.2085 14.9518 17.1635 13.9428 17.1635C12.9328 17.1635 11.9408 17.5715 11.5508 18.1025" fill="black"/><path id="Fill 48" fill-rule="evenodd" clip-rule="evenodd" d="M20.4268 18.3862C20.4268 18.3862 22.1458 17.9072 22.9778 18.0322C22.9778 18.0322 23.1728 17.7662 23.0848 17.5892C22.9958 17.4112 22.3578 17.0042 21.6848 17.1992C21.0108 17.3942 20.5868 17.9432 20.4268 18.3862" fill="black"/><path id="Fill 50" fill-rule="evenodd" clip-rule="evenodd" d="M17.6632 23.7187C17.6632 23.7187 18.1942 23.7547 18.5132 23.5947C18.8322 23.4357 20.2322 23.3647 20.2322 23.3647C20.2322 23.3647 19.3462 24.1087 18.9212 24.1267C18.4962 24.1437 17.5742 23.9487 17.6632 23.7187" fill="black"/><path id="Fill 52" fill-rule="evenodd" clip-rule="evenodd" d="M15.1824 26.2524C15.1824 26.2524 17.5744 27.4574 20.0904 26.3764C20.0904 26.3764 20.4794 26.1814 20.4794 26.5004C20.4794 26.8194 19.4164 27.3684 17.7694 27.3864C16.1214 27.4034 14.9344 26.9254 14.6864 26.5004C14.4384 26.0754 15.1824 26.2524 15.1824 26.2524" fill="black"/></g></g></g><g id="Facial Hair" transform="translate(115 90) scale(19 14)"><g id="Facial Hair/None" stroke="none" stroke-width="1" fill="none" fill-rule="evenodd" fill-opacity="0"/></g><g id="Male Character Sitting/Lower body" transform="translate(87 137) scale(1 1)"><g id="Male Character Sitting/Lower body/Jeans 1"><g id="Lower"><path id="Fill 21" fill-rule="evenodd" clip-rule="evenodd" d="M77.2706 89.994C77.2706 89.994 77.3066 90.986 76.3136 93.041C75.3216 95.097 74.9676 99.136 75.8536 99.915C75.8536 99.915 75.5696 100.305 75.4286 100.376C75.2866 100.446 75.3576 101.828 75.3576 101.828C75.3576 101.828 79.7156 103.281 83.0106 102.395C83.0106 102.395 83.2586 101.58 83.0816 100.942C83.0816 100.942 85.5626 100.73 86.0586 101.014C86.5546 101.297 86.6956 102.785 90.0976 102.856C93.4996 102.927 102.5 102.75 103.066 100.163L102.783 99.986C102.783 99.986 102.748 98.568 101.614 98.143C100.48 97.719 91.1606 95.273 88.7506 89.958C86.3416 84.643 77.6606 83.934 77.2706 89.994" fill="#422D18"/><path id="Fill 23" fill-rule="evenodd" clip-rule="evenodd" d="M81.7695 99.7381C82.0435 98.9501 82.3995 98.1951 82.7715 97.4441C83.1635 96.7031 83.6825 96.0401 84.1925 95.3751C84.7135 94.7171 85.2935 94.0951 85.9625 93.5641C86.6275 93.0391 87.3965 92.5761 88.2895 92.4391C88.3555 92.4281 88.4225 92.4481 88.4725 92.4851C89.5455 93.2791 90.6075 94.0821 91.6465 94.9251C92.1615 95.3491 92.6875 95.7731 93.1535 96.2821C93.5765 96.7401 94.1195 97.1401 94.6665 97.3371L94.6795 97.3411C94.8095 97.3871 94.8775 97.5311 94.8315 97.6621C94.8235 97.6821 94.8125 97.7031 94.8005 97.7201C94.5995 98.0091 94.4025 98.3121 94.2135 98.6141C94.0455 98.9291 93.8255 99.2131 93.6285 99.5121C93.4315 99.8101 93.2475 100.117 93.0825 100.433C92.9225 100.752 92.7665 101.078 92.7185 101.438C92.6875 100.697 93.0085 99.9961 93.2815 99.3241C93.4315 98.9891 93.5765 98.6481 93.7895 98.3501C93.9825 98.0401 94.1805 97.7361 94.3925 97.4321L94.5265 97.8161C93.8175 97.5621 93.2695 97.1321 92.7875 96.6221C92.3545 96.1481 91.8415 95.7331 91.3315 95.3121C90.3035 94.4791 89.2435 93.6761 88.1775 92.8881L88.3595 92.9341C87.6005 93.0501 86.8965 93.4621 86.2735 93.9561C85.6465 94.4531 85.0875 95.0491 84.5825 95.6871C84.0635 96.3171 83.6305 97.0111 83.1595 97.6831C82.6665 98.3421 82.2125 99.0341 81.7695 99.7381" fill="#040302"/><path id="Fill 25" fill-rule="evenodd" clip-rule="evenodd" d="M75.8655 99.8934C76.3885 100.116 76.9515 100.239 77.5105 100.337C78.0695 100.439 78.6355 100.497 79.2015 100.529C79.7685 100.564 80.3365 100.526 80.9025 100.568C81.4695 100.618 82.0375 100.631 82.6195 100.74C82.6335 100.743 82.6425 100.755 82.6405 100.77C82.6385 100.78 82.6315 100.787 82.6225 100.789C82.0585 100.967 81.4795 101.027 80.8985 101.068C80.3165 101.091 79.7365 101.017 79.1615 100.927C78.0145 100.761 76.8625 100.497 75.8415 99.9364C75.8285 99.9304 75.8245 99.9144 75.8315 99.9034C75.8375 99.8914 75.8535 99.8884 75.8655 99.8934" fill="#040302"/><path id="Fill 27" fill-rule="evenodd" clip-rule="evenodd" d="M84.568 100.138C85.34 100.089 86.116 100.075 86.891 100.19C87.666 100.362 88.379 100.592 89.144 100.725C90.651 101.021 92.181 101.195 93.712 101.233C95.245 101.267 96.771 101.134 98.281 100.932C99.797 100.742 101.284 100.386 102.773 99.9625C102.786 99.9585 102.8 99.9655 102.804 99.9795C102.808 99.9915 102.802 100.003 102.791 100.008C101.401 100.701 99.89 101.143 98.357 101.426C96.818 101.7 95.247 101.722 93.696 101.632C92.143 101.543 90.602 101.317 89.09 100.969C88.338 100.806 87.587 100.53 86.864 100.337C86.116 100.193 85.339 100.172 84.571 100.188C84.557 100.188 84.546 100.178 84.545 100.164C84.544 100.151 84.555 100.139 84.568 100.138" fill="#040302"/><path id="Fill 29" fill-rule="evenodd" clip-rule="evenodd" d="M92.9314 96.7635C92.8864 96.7635 92.8404 96.7505 92.7984 96.7245C92.6814 96.6515 92.6464 96.4965 92.7204 96.3805C92.7474 96.3375 93.3874 95.3365 94.4284 95.0665C94.5654 95.0355 94.6984 95.1125 94.7334 95.2455C94.7674 95.3795 94.6874 95.5155 94.5544 95.5505C93.7074 95.7695 93.1484 96.6385 93.1434 96.6475C93.0954 96.7225 93.0144 96.7635 92.9314 96.7635" fill="#040302"/><path id="Fill 31" fill-rule="evenodd" clip-rule="evenodd" d="M91.3725 95.5223C91.3295 95.5223 91.2865 95.5113 91.2465 95.4883C91.1275 95.4183 91.0875 95.2663 91.1575 95.1473C91.1805 95.1073 91.7405 94.1723 93.0025 94.1723C93.1415 94.1723 93.2525 94.2853 93.2525 94.4223C93.2525 94.5603 93.1415 94.6723 93.0025 94.6723C92.0345 94.6723 91.6055 95.3713 91.5885 95.4003C91.5415 95.4783 91.4575 95.5223 91.3725 95.5223" fill="#040302"/><path id="Fill 33" fill-rule="evenodd" clip-rule="evenodd" d="M90.2026 94.5662C90.1596 94.5662 90.1156 94.5542 90.0756 94.5312C89.9566 94.4612 89.9176 94.3072 89.9886 94.1882C90.0536 94.0782 90.6486 93.1102 91.3726 93.1102C91.5106 93.1102 91.6226 93.2222 91.6226 93.3602C91.6226 93.4982 91.5106 93.6102 91.3726 93.6102C91.0386 93.6102 90.6096 94.1222 90.4176 94.4442C90.3706 94.5222 90.2876 94.5662 90.2026 94.5662" fill="#040302"/><path id="Fill 35" fill-rule="evenodd" clip-rule="evenodd" d="M88.7869 93.6805C88.7319 93.6805 88.6769 93.6625 88.6309 93.6255C88.5229 93.5385 88.5059 93.3815 88.5919 93.2745C88.6279 93.2285 89.4939 92.1545 90.2239 91.8855C90.3519 91.8355 90.4969 91.9035 90.5449 92.0345C90.5929 92.1625 90.5259 92.3065 90.3969 92.3545C89.8989 92.5375 89.2069 93.3065 88.9819 93.5865C88.9329 93.6485 88.8599 93.6805 88.7869 93.6805" fill="#040302"/><path id="Fill 37" fill-rule="evenodd" clip-rule="evenodd" d="M88.6628 91.2869C87.6778 91.9199 86.5808 92.8739 86.8518 93.4689C86.9428 93.6699 87.0298 93.6579 87.0718 93.6519C87.5368 93.5889 88.3218 92.4689 88.6628 91.2869M87.0438 94.1539C86.8508 94.1539 86.5778 94.0729 86.3968 93.6759C85.7878 92.3349 88.5908 90.7329 88.9128 90.5549C88.9958 90.5089 89.0998 90.5139 89.1768 90.5679C89.2558 90.6229 89.2958 90.7179 89.2808 90.8119C89.0608 92.2119 88.0298 94.0259 87.1398 94.1469C87.1108 94.1509 87.0788 94.1539 87.0438 94.1539" fill="#040302"/><path id="Fill 39" fill-rule="evenodd" clip-rule="evenodd" d="M90.0005 90.6766C91.1485 91.2736 92.1765 91.6526 92.3865 91.5296C92.3825 91.5256 92.3845 91.4946 92.3705 91.4356C92.2095 90.7756 90.9585 90.6606 90.0005 90.6766M92.2865 92.0326C91.4135 92.0326 89.7705 91.1436 89.0155 90.7066C88.9225 90.6536 88.8745 90.5466 88.8955 90.4416C88.9165 90.3366 89.0015 90.2566 89.1075 90.2416C89.4525 90.1946 92.4955 89.8296 92.8555 91.3176C92.9435 91.6746 92.7895 91.8526 92.6895 91.9266C92.5915 92.0006 92.4525 92.0326 92.2865 92.0326" fill="#040302"/><path id="Fill 41" fill-rule="evenodd" clip-rule="evenodd" d="M88.0773 97.5076C87.9603 97.5076 87.8563 97.4256 87.8323 97.3066C87.5063 95.6736 88.6383 91.3866 88.6863 91.2046C88.7223 91.0726 88.8573 90.9926 88.9933 91.0286C89.1263 91.0636 89.2053 91.1996 89.1703 91.3336C89.1583 91.3766 88.0193 95.6896 88.3233 97.2086C88.3493 97.3436 88.2623 97.4756 88.1263 97.5026C88.1103 97.5056 88.0943 97.5076 88.0773 97.5076" fill="#040302"/><path id="Fill 43" fill-rule="evenodd" clip-rule="evenodd" d="M68.3877 94.3992C68.3877 94.3992 65.4117 96.2892 64.9867 98.7932C64.5607 101.296 64.6527 103.572 64.5607 105.265C64.2657 110.722 63.2387 115.434 72.1677 114.998C82.7557 114.479 75.7107 106.352 75.6637 105.643C75.6167 104.934 74.3877 99.3122 74.0097 97.6122C73.6317 95.9112 70.1357 92.3682 68.3877 94.3992" fill="#422D18"/><path id="Fill 45" fill-rule="evenodd" clip-rule="evenodd" d="M64.5488 111.572C64.6228 110.802 64.8348 110.052 65.1038 109.326C65.3698 108.597 65.7338 107.905 66.1518 107.248C66.9918 105.942 68.1598 104.812 69.5448 104.132C68.9768 104.655 68.4028 105.143 67.9218 105.725C67.4328 106.296 66.9678 106.884 66.5708 107.52C65.7488 108.776 65.0968 110.137 64.5488 111.572" fill="#040302"/><path id="Fill 47" fill-rule="evenodd" clip-rule="evenodd" d="M75.6635 105.643C75.0685 105.268 74.4945 104.972 73.8945 104.688C73.2985 104.397 72.6865 104.149 72.0605 103.812C72.4165 103.788 72.7665 103.827 73.1105 103.9C73.4565 103.967 73.7885 104.089 74.1095 104.237C74.4255 104.396 74.7335 104.576 74.9995 104.815C75.2655 105.049 75.5175 105.313 75.6635 105.643" fill="#040302"/><path id="Fill 49" fill-rule="evenodd" clip-rule="evenodd" d="M68.2695 103.602C68.1695 103.602 68.0745 103.541 68.0365 103.442C67.9865 103.313 68.0505 103.168 68.1795 103.119C68.2835 103.079 70.7605 102.139 73.2205 102.755C73.3545 102.789 73.4355 102.924 73.4025 103.058C73.3685 103.191 73.2325 103.278 73.0995 103.24C70.7985 102.665 68.3845 103.577 68.3595 103.585C68.3305 103.597 68.2995 103.602 68.2695 103.602" fill="#040302"/><path id="Fill 51" fill-rule="evenodd" clip-rule="evenodd" d="M68.1284 102.043C68.0104 102.043 67.9064 101.96 67.8834 101.84C67.8574 101.704 67.9464 101.573 68.0824 101.548C68.2054 101.523 71.1124 100.979 72.8664 101.154C73.0034 101.169 73.1044 101.291 73.0894 101.429C73.0764 101.566 72.9524 101.659 72.8154 101.652C71.1374 101.48 68.2054 102.034 68.1754 102.038C68.1594 102.042 68.1444 102.043 68.1284 102.043" fill="#040302"/><path id="Fill 53" fill-rule="evenodd" clip-rule="evenodd" d="M69.2014 103.529C69.0584 103.313 69.0224 103.098 68.9764 102.883C68.9444 102.667 68.9994 102.451 69.0264 102.236C69.0714 101.804 69.1294 101.374 69.2014 100.942H69.2514C69.3244 101.374 69.3824 101.804 69.4264 102.236C69.4534 102.451 69.5094 102.667 69.4764 102.883C69.4304 103.098 69.3944 103.313 69.2514 103.529H69.2014Z" fill="#040302"/><path id="Fill 55" fill-rule="evenodd" clip-rule="evenodd" d="M72.0722 103.288C71.8772 103.123 71.7862 102.926 71.6892 102.73C71.6042 102.532 71.6072 102.31 71.5852 102.097C71.5362 101.67 71.4972 101.236 71.5402 100.802L71.5902 100.8C71.6902 101.212 71.8412 101.607 71.9752 102.007C72.0492 102.205 72.1532 102.394 72.1732 102.605C72.1812 102.82 72.2012 103.032 72.1202 103.274L72.0722 103.288Z" fill="#040302"/><path id="Fill 57" fill-rule="evenodd" clip-rule="evenodd" d="M24.2072 51.0984C32.9082 55.5014 46.2072 55.6074 57.1112 51.7274C57.1112 51.7274 53.9662 66.7194 57.5302 76.0504C61.0942 85.3814 64.3452 99.7454 64.2402 100.373C64.2402 100.373 70.7402 103.309 74.7242 98.3814C74.7242 98.3814 70.6352 81.1884 71.9982 69.3404C73.3612 57.4944 73.8852 45.3324 73.8852 45.3324L78.1842 45.2274C78.1842 45.2274 74.2002 62.6304 75.6682 73.9544C77.1352 85.2774 76.1922 90.9384 76.1922 90.9384C76.1922 90.9384 85.1032 93.9784 88.8782 90.5194C88.8782 90.5194 88.8782 60.5344 93.9102 45.3324C98.9422 30.1304 94.6442 29.9204 90.7652 28.5574C86.8852 27.1954 64.1482 22.5654 53.9202 23.2024C43.6912 23.8394 22.3032 15.4134 18.6342 22.2274C18.6342 22.2274 15.5052 46.6954 24.2072 51.0984Z" fill="#69313B"/><path id="Fill 59" fill-rule="evenodd" clip-rule="evenodd" d="M31.2148 28.6629C34.7468 28.4489 38.2858 28.3299 41.8248 28.3009C45.3648 28.2539 48.9068 28.2899 52.4458 28.4399C55.9848 28.5849 59.5278 28.7889 63.0508 29.2449C64.8118 29.4719 66.5698 29.7419 68.3128 30.1219C70.0488 30.5109 71.7968 30.9759 73.3968 31.8789L73.4588 31.9139L73.4858 31.9609C74.1038 33.0169 74.3808 34.1189 74.5938 35.2459C74.7958 36.3709 74.8648 37.5109 74.8478 38.6429C74.8408 39.7779 74.7108 40.9039 74.5638 42.0219L74.2708 43.6879L73.8848 45.3329L74.1628 43.6689L74.3718 41.9989C74.4648 40.8819 74.5398 39.7629 74.4918 38.6459C74.4618 37.5319 74.3698 36.4179 74.1398 35.3329C73.9128 34.2649 73.5738 33.1589 73.0258 32.2839L73.1148 32.3659C71.5958 31.5799 69.8808 31.1389 68.1728 30.7679C66.4558 30.4119 64.7128 30.1609 62.9648 29.9529C59.4638 29.5639 55.9428 29.2979 52.4158 29.1239C45.3608 28.8089 38.2908 28.6759 31.2148 28.6629" fill="#150711"/><path id="Fill 61" fill-rule="evenodd" clip-rule="evenodd" d="M38.0293 52.3563C39.8003 51.3903 41.5973 50.4873 43.3943 49.5853L48.8033 46.9233L54.2283 44.3043C55.1353 43.8743 56.0323 43.4243 56.9193 42.9583C57.8153 42.5043 58.7043 42.0433 59.5223 41.4533C58.0393 42.8393 56.2343 43.8073 54.4963 44.8153C52.7413 45.8123 50.9393 46.7123 49.1303 47.5973C47.3153 48.4683 45.4893 49.3173 43.6363 50.1053C41.7863 50.9003 39.9273 51.6723 38.0293 52.3563" fill="#150711"/><path id="Fill 63" fill-rule="evenodd" clip-rule="evenodd" d="M67.0654 40.6824C65.7404 41.9714 64.3354 43.1664 62.9064 44.3344C61.4834 45.5104 59.9994 46.6084 58.4944 47.6794C56.9824 48.7384 55.4314 49.7494 53.8134 50.6514C52.2004 51.5484 50.5314 52.4064 48.7344 52.8714C50.4184 52.1154 51.9764 51.1494 53.5164 50.1564C55.0464 49.1494 56.5704 48.1314 58.0644 47.0654L62.5584 43.8784C64.0544 42.8094 65.5454 41.7314 67.0654 40.6824" fill="#150711"/><path id="Fill 65" fill-rule="evenodd" clip-rule="evenodd" d="M67.727 41.1551C66.841 42.2781 65.874 43.3271 64.88 44.3481C63.892 45.3761 62.844 46.3441 61.773 47.2891C60.685 48.2141 59.571 49.1151 58.378 49.9121C57.182 50.6821 55.921 51.4721 54.498 51.7381C55.155 51.4471 55.767 51.1151 56.339 50.6981C56.926 50.3111 57.483 49.8791 58.038 49.4461C59.131 48.5541 60.215 47.6501 61.282 46.7221L64.486 43.9311C65.558 43.0011 66.622 42.0601 67.727 41.1551" fill="#150711"/><path id="Fill 67" fill-rule="evenodd" clip-rule="evenodd" d="M70.4673 46.4461C69.3663 49.4341 68.1353 52.3611 66.9813 55.3191C66.3703 56.7851 65.8003 58.2651 65.2213 59.7431C64.6463 61.2211 64.0773 62.7021 63.5703 64.2101C63.8773 62.6451 64.3593 61.1221 64.8603 59.6111C65.3653 58.1001 65.9423 56.6171 66.5173 55.1341C67.7293 52.1911 68.9883 49.2681 70.4673 46.4461" fill="#150711"/><path id="Fill 69" fill-rule="evenodd" clip-rule="evenodd" d="M89.3654 47.1082C87.6414 49.5572 85.8214 51.9232 84.0814 54.3492C83.1824 55.5402 82.3294 56.7632 81.4744 57.9832C80.6224 59.2082 79.7874 60.4412 79.0664 61.7542C79.6004 60.3492 80.3654 59.0452 81.1534 57.7722C81.9474 56.5002 82.8074 55.2722 83.6784 54.0542C84.5804 52.8592 85.4774 51.6612 86.4274 50.5032C87.3754 49.3452 88.3404 48.2012 89.3654 47.1082" fill="#150711"/><path id="Fill 71" fill-rule="evenodd" clip-rule="evenodd" d="M77.5527 42.7616C78.0707 41.9096 78.6697 41.1156 79.2947 40.3416C79.9167 39.5646 80.5917 38.8306 81.3027 38.1316C82.0227 37.4416 82.7657 36.7696 83.5937 36.2016C84.4137 35.6326 85.2867 35.1116 86.2457 34.8246C85.3717 35.3016 84.5847 35.8866 83.8267 36.5076C83.0737 37.1326 82.3527 37.8006 81.6527 38.4896C80.2397 39.8566 78.9147 41.3136 77.5527 42.7616" fill="#150711"/><path id="Fill 73" fill-rule="evenodd" clip-rule="evenodd" d="M90.6876 34.9188C89.7316 35.9398 88.7066 36.8838 87.6576 37.8018C86.6056 38.7218 85.5236 39.5938 84.3296 40.3738C83.1576 41.0608 82.1386 41.9708 81.0756 42.8598L77.9316 45.5968C78.7726 44.4788 79.7026 43.4378 80.6816 42.4398C81.6546 41.4458 82.7096 40.4768 83.9316 39.7388C85.0746 39.0158 86.1736 38.1568 87.2986 37.3538C88.4166 36.5328 89.5316 35.7038 90.6876 34.9188" fill="#150711"/><path id="Fill 75" fill-rule="evenodd" clip-rule="evenodd" d="M78.7812 45.785C79.9173 44.499 81.2243 43.414 82.5923 42.409C83.2823 41.917 83.9912 41.445 84.7362 41.028C85.4732 40.606 86.2612 40.233 87.0962 40.021C86.3852 40.498 85.7323 41.02 85.0553 41.518L83.0312 43.017C81.6612 43.993 80.2843 44.961 78.7812 45.785" fill="#150711"/></g></g></g><g id="Male Character Sitting/Upper body" transform="translate(81 101) scale(1 1)"><g id="Male Character Sitting/Upper body/Sweater 3"><g id="Top"><path id="Fill 116" fill-rule="evenodd" clip-rule="evenodd" d="M97.6244 53.2625C93.2804 52.4545 89.8144 52.4205 84.3194 49.0845C81.5084 47.3785 77.2234 44.6045 71.9324 42.7145C67.6514 41.1855 66.1504 36.8185 64.0794 36.1665C63.6404 36.0295 63.6634 46.3765 65.2704 48.8565C66.9244 51.4075 67.0334 52.2185 69.2394 53.1085C76.8034 56.1585 86.2344 55.8685 90.9764 57.9585C91.7644 58.3065 91.5414 58.4495 92.1774 59.2645C93.4774 60.9325 97.9314 59.9335 100.117 61.1105C100.585 62.0765 100.608 64.7565 102.339 64.5635L102.466 64.4335L102.448 63.6175C102.448 63.6175 103.458 63.9005 103.986 63.6585C103.986 63.6585 104.103 63.5485 104.106 63.4355C104.109 63.3555 103.673 62.5755 103.415 62.1205C104.802 63.1985 105.704 62.8695 106.022 62.4955C106.176 62.3165 104.926 60.7195 104.926 60.7195C107.428 62.0315 107.473 60.9255 107.354 60.4375C107.236 59.9495 104.992 57.6875 104.083 56.5745C103.201 55.4925 101.968 54.0695 97.6244 53.2625" fill="#ffc280"/><path id="Fill 118" fill-rule="evenodd" clip-rule="evenodd" d="M8.1906 22.2567C8.1906 22.2567 0.426598 45.5817 0.433598 46.0827C0.441598 46.5837 2.0106 59.5327 4.9406 66.0527C7.2086 71.1017 6.9126 76.2767 6.9126 76.2767C6.9126 76.2767 9.3646 76.2657 11.6426 75.4257C12.7676 75.0117 14.6196 73.4777 14.5656 73.4587C14.5656 73.4587 11.8026 70.3527 12.3106 62.0367C12.6576 56.3487 11.8986 52.3287 11.6016 45.6777C11.6016 45.6777 16.6386 36.5697 17.8066 29.7077C18.9746 22.8467 13.6936 14.9577 8.1906 22.2567" fill="#ffc280"/><path id="Fill 120" fill-rule="evenodd" clip-rule="evenodd" d="M102.449 63.618C101.96 63.437 101.599 63.019 101.336 62.579C101.224 62.345 101.116 62.107 101.062 61.854C101 61.604 100.986 61.346 100.994 61.092C101.3 62.059 101.701 62.927 102.449 63.618" fill="black"/><path id="Fill 122" fill-rule="evenodd" clip-rule="evenodd" d="M102.176 60.7274C102.622 61.1884 103.036 61.5914 103.415 62.1214C103.104 62.0074 102.863 61.7914 102.636 61.5674C102.432 61.3244 102.235 61.0544 102.176 60.7274" fill="black"/><path id="Fill 124" fill-rule="evenodd" clip-rule="evenodd" d="M100.117 61.1102C100.522 61.0842 100.925 61.0352 101.308 60.9512C101.681 60.8822 102.096 60.6412 101.963 60.5122C101.897 60.2492 101.628 59.9132 101.367 59.6472C101.098 59.3722 100.796 59.1192 100.481 58.8972C100.325 58.7892 100.159 58.6842 100.003 58.6182C99.8848 58.5612 99.6438 58.5222 99.4558 58.4662C99.0608 58.3622 98.6708 58.2492 98.2818 58.1272C97.8928 58.0042 97.5058 57.8742 97.1208 57.7182C96.9288 57.6402 96.7378 57.5582 96.5428 57.4492C96.4448 57.3882 96.3488 57.3402 96.2358 57.2182C96.1898 57.1712 96.0768 57.0212 96.1478 56.8272C96.2268 56.6622 96.3338 56.6492 96.4408 56.5942C96.9498 56.5192 97.3228 56.5962 97.7418 56.6402C98.1478 56.7002 98.5498 56.7672 98.9488 56.8472C99.7478 57.0062 100.537 57.1862 101.327 57.4212C101.534 57.4912 101.7 57.5252 101.959 57.6672C102.206 57.8522 102.27 57.9902 102.422 58.1462C102.682 58.4532 102.953 58.7442 103.227 59.0312C103.722 59.6552 104.273 60.2352 104.927 60.7192C104.169 60.4112 103.501 59.9052 102.868 59.3802C102.579 59.0892 102.311 58.7792 102.044 58.4742C101.921 58.3392 101.76 58.1252 101.678 58.0802C101.582 58.0292 101.356 57.9522 101.18 57.8982C100.422 57.6722 99.6368 57.4932 98.8528 57.3382C98.0918 57.1992 97.2208 57.0202 96.5648 57.0792C96.5928 57.0792 96.5758 57.0822 96.6138 57.0092C96.6468 56.9112 96.5898 56.8662 96.6118 56.8892C96.6338 56.9172 96.7158 56.9732 96.7908 57.0142C96.9478 57.1032 97.1278 57.1822 97.3088 57.2562C97.6728 57.4022 98.0518 57.5292 98.4318 57.6492C98.8128 57.7692 99.1978 57.8812 99.5828 57.9832C99.7808 58.0442 99.9468 58.0542 100.2 58.1582C100.414 58.2522 100.591 58.3662 100.766 58.4872C101.111 58.7292 101.43 58.9972 101.725 59.2982C102.006 59.6172 102.319 59.8952 102.458 60.4232C102.475 60.5702 102.442 60.7632 102.329 60.8852C102.226 61.0152 102.101 61.0642 101.991 61.1082C101.765 61.1862 101.553 61.2052 101.343 61.2142C100.924 61.2282 100.517 61.1862 100.117 61.1102" fill="black"/><path id="Fill 126" fill-rule="evenodd" clip-rule="evenodd" d="M6.91016 76.2703C6.91016 76.2703 6.98816 85.2543 6.98816 86.0633C6.98816 86.8723 8.60516 91.6373 8.69216 92.0993C8.77916 92.5613 9.70316 92.6483 9.87616 92.4743C10.0492 92.3013 10.2802 91.6083 10.2802 91.6083C10.2802 91.6083 10.7142 93.1393 11.0602 93.3123C11.4072 93.4853 11.9272 93.8893 12.1582 93.8613C12.3892 93.8323 12.6202 93.2543 12.4472 92.4463C12.4472 92.4463 13.2552 93.9483 13.8622 94.2363C14.4682 94.5253 15.2772 94.5253 15.2482 94.0923C15.2192 93.6593 15.1612 93.3993 15.1612 93.3993C15.1612 93.3993 16.4032 93.6873 16.5192 93.0813C16.6342 92.4743 16.6342 89.5293 16.1152 87.6513C15.5952 85.7743 16.2012 82.5683 15.6812 81.7313C15.6812 81.7313 17.0102 85.6593 18.5122 85.5723C20.0142 85.4853 19.8982 84.9083 19.8112 84.7633C19.7242 84.6193 18.1942 82.8863 18.2812 81.5863C18.3672 80.2873 18.1362 80.2293 18.0782 79.6803C18.0202 79.1313 18.4252 79.1313 17.3562 77.7163C16.2872 76.3013 14.5302 73.4953 14.5302 73.4953L13.4962 74.2733C12.1112 75.3153 10.4602 75.9453 8.73316 76.0903L6.91016 76.2703Z" fill="#ffc280"/><path id="Fill 128" fill-rule="evenodd" clip-rule="evenodd" d="M15.1614 93.3992C14.8164 92.5942 14.5284 91.7722 14.2524 90.9452C13.9744 90.1182 13.7304 89.2862 13.5214 88.4282C13.4754 88.2312 13.4224 87.9512 13.4254 87.7432L13.3954 87.0932L13.3444 85.7952C13.3004 84.9292 13.2814 84.0642 13.1484 83.2032C13.4844 84.0192 13.6034 84.9002 13.7274 85.7612C13.7934 86.1942 13.8254 86.6292 13.8684 87.0642L13.9134 87.7162C13.9174 87.9452 13.9594 88.0912 14.0084 88.3182C14.4074 89.9922 14.8624 91.6772 15.1614 93.3992" fill="black"/><path id="Fill 130" fill-rule="evenodd" clip-rule="evenodd" d="M10.3145 83.5223C10.5845 84.1983 10.7955 84.8923 10.9765 85.5953C11.0715 85.9463 11.1485 86.3023 11.2125 86.6633C11.2755 87.0293 11.3275 87.3833 11.3045 87.8013L11.2955 87.7043C11.5305 88.4813 11.7505 89.2633 11.9445 90.0523C12.1345 90.8443 12.3215 91.6353 12.4475 92.4463C12.1095 91.6993 11.8345 90.9333 11.5605 90.1673C11.2925 89.3993 11.0485 88.6253 10.8215 87.8443L10.8085 87.7983L10.8135 87.7473C10.8395 87.4433 10.7925 87.0783 10.7585 86.7303L10.6165 85.6683C10.5105 84.9573 10.3985 84.2453 10.3145 83.5223" fill="black"/><path id="Fill 132" fill-rule="evenodd" clip-rule="evenodd" d="M8.11719 83.6287C8.37019 84.2397 8.56819 84.8697 8.73219 85.5097C8.90619 86.1497 9.03419 86.7957 9.07219 87.4837L9.06019 87.4147C9.29619 88.1217 9.51319 88.8337 9.70819 89.5547C9.89619 90.2767 10.0822 90.9997 10.2072 91.7427C9.87219 91.0677 9.59719 90.3737 9.32519 89.6787C9.05819 88.9827 8.81619 88.2767 8.59119 87.5667L8.58019 87.5347L8.57819 87.4977C8.51519 86.2387 8.25019 84.9387 8.11719 83.6287" fill="black"/><g id="Group 136"><path id="Fill 134" fill-rule="evenodd" clip-rule="evenodd" d="M72.0031 40.8124C72.2151 40.1394 71.1881 40.4574 71.0461 39.5014C70.9051 38.5444 71.7901 38.4034 70.1961 37.1274C68.6011 35.8524 66.9001 20.1904 61.8691 14.6274C61.8691 14.6274 60.4871 13.2464 57.7231 11.5094C54.9591 9.77339 51.5581 8.32039 50.6011 6.33639C49.6441 4.35239 46.244 3.33589 46.103 3.01689C46.103 3.01689 46.7551 5.09639 46.0321 6.78239C45.4081 8.23739 44.6841 9.70239 40.2191 9.31239C36.5901 8.99639 33.8505 5.42464 34.2325 2.51264C34.2425 2.50064 34.8521 0.997217 34.8521 0.997217C34.8521 0.997217 33.4751 0.903392 32.0581 1.89539C30.6401 2.88739 19.1601 8.88739 16.9871 10.3524C14.8141 11.8164 9.52211 16.8724 7.25511 24.3364C4.98711 31.8004 0.499111 42.5254 0.168111 44.6514C-0.162889 46.7774 -0.0208889 50.4154 0.735111 50.8874C0.735111 50.8874 1.01811 51.2654 1.62111 50.9944C2.22311 50.7224 3.49911 49.3404 7.06611 50.3794C10.6331 51.4184 11.2701 51.8684 12.1211 51.1354C12.9711 50.4034 11.6721 47.4154 11.6721 47.4154C11.6721 47.4154 12.3101 45.9504 12.5701 45.5964C12.8291 45.2424 11.8371 44.5564 12.9001 44.2494C13.9631 43.9424 12.9001 43.8954 13.9161 42.1004C14.9321 40.3044 17.3181 34.7064 17.4831 34.3994C17.6481 34.0924 17.7901 37.1164 18.3811 38.3914C18.9711 39.6664 25.9401 52.7184 24.2391 58.6004C24.2391 58.6004 23.5661 59.4504 23.8491 60.1594C24.1331 60.8684 31.9281 63.3124 38.8731 62.7464C45.8181 62.1784 48.5461 62.5684 53.0461 60.9034C57.5461 59.2384 59.9201 59.2024 59.9201 59.2024C59.9201 59.2024 58.3251 53.3204 58.2551 49.1044C58.1841 44.8874 58.7151 39.9264 58.7151 39.9264C58.7151 39.9264 60.4511 43.0094 61.2311 43.7894C62.0101 44.5684 63.6401 47.2264 64.2431 48.7854C64.8451 50.3444 67.2191 52.5054 67.3961 52.0444C67.5731 51.5834 66.4401 47.2964 69.1331 44.9224C71.8251 42.5484 73.5971 43.8604 71.9671 41.7694C71.9671 41.7694 71.7901 41.4864 72.0031 40.8124Z" fill="#E85215"/></g><path id="Fill 137" fill-rule="evenodd" clip-rule="evenodd" d="M29.9648 3.99979C30.4708 3.60779 31.0088 3.25879 31.5808 2.95979C31.8658 2.80879 32.1488 2.63479 32.4738 2.56779C32.7978 2.51579 33.1368 2.47079 33.4718 2.57879L33.4768 2.62879C33.1818 2.80579 32.9028 2.91279 32.6228 3.04579C32.3428 3.16579 32.0378 3.22879 31.7408 3.32579C31.1528 3.53479 30.5678 3.77579 29.9918 4.04279L29.9648 3.99979Z" fill="#A2370B"/><path id="Fill 139" fill-rule="evenodd" clip-rule="evenodd" d="M30.8633 5.4178C31.2813 5.0728 31.7083 4.7388 32.1433 4.4168C32.3573 4.2518 32.5583 4.0628 32.8033 3.9478C33.0563 3.8458 33.3033 3.7338 33.6043 3.7168L33.6293 3.7598C33.4733 4.0248 33.2633 4.1968 33.0593 4.3778C32.8483 4.5478 32.5923 4.6408 32.3503 4.7598C31.8713 5.0038 31.3843 5.2368 30.8893 5.4598L30.8633 5.4178Z" fill="#A2370B"/><path id="Fill 141" fill-rule="evenodd" clip-rule="evenodd" d="M31.3789 7.59358C31.7079 7.20058 32.0409 6.81558 32.3759 6.43558C32.5399 6.24158 32.6809 6.02758 32.8799 5.87258C33.0879 5.72558 33.2839 5.57658 33.5489 5.47058L33.5889 5.50058C33.5419 5.79358 33.3819 6.01058 33.2359 6.22458C33.0779 6.43058 32.8549 6.56958 32.6519 6.72558C32.2519 7.04358 31.8379 7.34558 31.4119 7.63058L31.3789 7.59358Z" fill="#A2370B"/><path id="Fill 143" fill-rule="evenodd" clip-rule="evenodd" d="M34.3426 6.68438C34.0576 7.08238 33.7916 7.49138 33.5436 7.90138C33.4216 8.10938 33.3376 8.33638 33.1856 8.51838C33.0226 8.69638 32.8816 8.88138 32.6476 9.03938L32.6016 9.01838C32.5776 8.73638 32.6666 8.49338 32.7596 8.25638C32.8656 8.02538 33.0516 7.84638 33.2216 7.66338C33.5526 7.29038 33.9146 6.95138 34.3076 6.64938L34.3426 6.68438Z" fill="#A2370B"/><path id="Fill 145" fill-rule="evenodd" clip-rule="evenodd" d="M33.7344 10.4383C33.8714 9.89231 34.0784 9.36731 34.3294 8.86231C34.4514 8.60731 34.5584 8.33731 34.7504 8.12531C34.9484 7.92031 35.1534 7.71931 35.4394 7.59531L35.4784 7.62731C35.4144 7.93331 35.2764 8.16631 35.1584 8.41531C35.0284 8.65331 34.8364 8.84831 34.6714 9.06831C34.3554 9.51031 34.0494 9.97031 33.7814 10.4553L33.7344 10.4383Z" fill="#A2370B"/><path id="Fill 147" fill-rule="evenodd" clip-rule="evenodd" d="M36.3802 8.6121C36.2772 9.1451 36.1562 9.6741 36.0152 10.1981C35.9492 10.4621 35.9082 10.7351 35.7782 10.9781C35.6362 11.2131 35.5032 11.4641 35.2442 11.6401L35.2012 11.6151C35.1992 11.3181 35.2562 11.0631 35.3132 10.7981C35.3782 10.5381 35.5222 10.3051 35.6392 10.0621C35.8622 9.5731 36.0932 9.0831 36.3332 8.5961L36.3802 8.6121Z" fill="#A2370B"/><path id="Fill 149" fill-rule="evenodd" clip-rule="evenodd" d="M37.3735 9.36209C37.3975 9.91109 37.3995 10.4601 37.3725 11.0091C37.3635 11.2851 37.3795 11.5661 37.2975 11.8361C37.1975 12.0931 37.1195 12.3891 36.8485 12.5881L36.8085 12.5571C36.7985 12.2751 36.7955 12.0171 36.8055 11.7461C36.8205 11.4801 36.9145 11.2221 36.9765 10.9581L37.3235 9.35809L37.3735 9.36209Z" fill="#A2370B"/><path id="Fill 151" fill-rule="evenodd" clip-rule="evenodd" d="M38.8864 9.784C38.9674 10.313 39.0244 10.844 39.0524 11.378C39.0714 11.644 39.1144 11.915 39.0614 12.181C38.9954 12.445 38.9344 12.717 38.7444 12.955L38.6954 12.946C38.6014 12.664 38.5884 12.408 38.5634 12.144C38.5494 11.885 38.6174 11.627 38.6524 11.365L38.8364 9.786L38.8864 9.784Z" fill="#A2370B"/><path id="Fill 153" fill-rule="evenodd" clip-rule="evenodd" d="M40.0192 10.0672C40.1302 10.6132 40.2282 11.1592 40.3112 11.7062C40.3582 11.9792 40.4342 12.2502 40.4202 12.5272C40.3942 12.8062 40.3782 13.0852 40.2552 13.3742L40.2062 13.3782C40.0432 13.1152 39.9872 12.8422 39.9222 12.5702C39.8702 12.2962 39.9062 12.0162 39.9132 11.7382C39.9172 11.1822 39.9362 10.6272 39.9692 10.0702L40.0192 10.0672Z" fill="#A2370B"/><path id="Fill 155" fill-rule="evenodd" clip-rule="evenodd" d="M41.4833 10.1102C41.6703 10.5862 41.8483 11.0632 42.0193 11.5402C42.1093 11.7772 42.2273 12.0062 42.2653 12.2552C42.2923 12.5082 42.3233 12.7532 42.2853 13.0352L42.2393 13.0552C42.0063 12.8692 41.9003 12.6242 41.7843 12.3922C41.6813 12.1552 41.6703 11.8932 41.6313 11.6412C41.5463 11.1372 41.4813 10.6312 41.4353 10.1222L41.4833 10.1102Z" fill="#A2370B"/><path id="Fill 157" fill-rule="evenodd" clip-rule="evenodd" d="M43.7032 9.96368C43.9742 10.3907 44.2332 10.8247 44.4792 11.2677C44.6072 11.4857 44.7622 11.6947 44.8342 11.9377C44.8952 12.1837 44.9642 12.4267 44.9322 12.7057L44.8862 12.7237C44.6492 12.5457 44.5142 12.3317 44.3702 12.1207C44.2372 11.9057 44.1872 11.6587 44.1102 11.4207C43.9472 10.9497 43.7972 10.4717 43.6582 9.98468L43.7032 9.96368Z" fill="#A2370B"/><path id="Fill 159" fill-rule="evenodd" clip-rule="evenodd" d="M45.3535 9.1561L46.4105 10.2961C46.5885 10.4821 46.7895 10.6491 46.9255 10.8631C47.0575 11.0861 47.1825 11.2961 47.2845 11.5591L47.2555 11.6001C46.9525 11.5441 46.7465 11.3511 46.5425 11.1831C46.3475 11.0031 46.2305 10.7611 46.0935 10.5401C45.8115 10.1001 45.5525 9.6481 45.3125 9.1851L45.3535 9.1561Z" fill="#A2370B"/><path id="Fill 161" fill-rule="evenodd" clip-rule="evenodd" d="M46.4343 8.06329C46.8632 8.26829 47.2882 8.47729 47.7062 8.68929C47.9192 8.79129 48.1453 8.86429 48.3283 9.00929C48.5073 9.16529 48.6822 9.30629 48.8382 9.52529L48.8203 9.57229C48.5413 9.61229 48.3063 9.52029 48.0773 9.44129C47.8532 9.34829 47.6793 9.17629 47.4933 9.02829C47.1173 8.73729 46.7542 8.42929 46.4062 8.10529L46.4343 8.06329Z" fill="#A2370B"/><path id="Fill 163" fill-rule="evenodd" clip-rule="evenodd" d="M47.0475 6.36209C47.4785 6.53609 47.9015 6.72209 48.3175 6.92009C48.5275 7.01409 48.7515 7.08409 48.9315 7.23009C49.1055 7.38709 49.2835 7.53709 49.4095 7.77909L49.3845 7.82209C49.1165 7.82909 48.9015 7.74209 48.6805 7.66309C48.4665 7.57309 48.2975 7.40609 48.1145 7.26409C47.7425 6.99009 47.3785 6.70309 47.0215 6.40509L47.0475 6.36209Z" fill="#A2370B"/><path id="Fill 165" fill-rule="evenodd" clip-rule="evenodd" d="M47.1422 4.5672C47.5572 4.7412 47.9672 4.9282 48.3712 5.1292C48.5752 5.2242 48.7962 5.2962 48.9682 5.4432C49.1332 5.5992 49.3032 5.7492 49.4112 5.9852L49.3832 6.0262C49.1132 6.0262 48.9052 5.9392 48.6922 5.8592C48.4862 5.7692 48.3292 5.6052 48.1552 5.4652C47.8032 5.1932 47.4572 4.9082 47.1172 4.6102L47.1422 4.5672Z" fill="#A2370B"/><path id="Fill 167" fill-rule="evenodd" clip-rule="evenodd" d="M17.4824 34.3992C17.5084 33.4722 17.6554 32.5512 17.8904 31.6492C18.1214 30.7472 18.4624 29.8552 19.0164 29.0602C19.6054 28.3062 20.1824 27.6272 20.7954 26.9302C21.4044 26.2412 22.0194 25.5552 22.6794 24.9032C22.1834 25.6832 21.6424 26.4302 21.0944 27.1722C20.5594 27.9152 19.9574 28.6492 19.4224 29.3532C18.9114 30.0642 18.5654 30.9102 18.2554 31.7612C17.9514 32.6182 17.7114 33.5032 17.4824 34.3992" fill="#A2370B"/><path id="Fill 169" fill-rule="evenodd" clip-rule="evenodd" d="M26.2937 25.116C24.7327 26.372 23.1918 27.622 21.7288 28.958C20.2648 30.295 18.8848 31.705 17.7188 33.337C18.1267 32.418 18.6948 31.575 19.3168 30.782C19.9448 29.992 20.6568 29.275 21.3918 28.589C22.1398 27.916 22.9187 27.28 23.7397 26.702C24.5587 26.122 25.3987 25.573 26.2937 25.116" fill="#A2370B"/><path id="Fill 171" fill-rule="evenodd" clip-rule="evenodd" d="M4.75 37.9422C5.404 37.5392 6.227 37.4012 7.014 37.5272C7.411 37.5832 7.79 37.7272 8.151 37.9002C8.506 38.0972 8.818 38.3142 9.129 38.5392C9.744 38.9962 10.332 39.4842 10.883 40.0112C11.436 40.5362 11.971 41.0792 12.451 41.6742C11.212 40.7822 10.045 39.8272 8.833 38.9422C8.229 38.4772 7.641 38.0882 6.936 37.9022C6.242 37.7152 5.48 37.7322 4.75 37.9422" fill="#A2370B"/><path id="Fill 173" fill-rule="evenodd" clip-rule="evenodd" d="M10.6094 41.0135C11.0064 41.2845 11.3314 41.6245 11.6564 41.9655C11.9524 42.3275 12.2854 42.6785 12.4514 43.1395C12.2974 42.9595 12.1164 42.8105 11.9554 42.6405L11.4714 42.1325C11.1694 41.7745 10.8564 41.4255 10.6094 41.0135" fill="#A2370B"/><path id="Fill 175" fill-rule="evenodd" clip-rule="evenodd" d="M7.91602 42.8084C8.58202 43.1374 9.20502 43.5234 9.84602 43.8774C10.158 44.0694 10.479 44.2424 10.798 44.4194C11.12 44.5924 11.438 44.7704 11.79 44.8874C11.036 44.8234 10.369 44.4364 9.72102 44.0944C9.08802 43.7104 8.46702 43.3084 7.91602 42.8084" fill="#A2370B"/><path id="Fill 177" fill-rule="evenodd" clip-rule="evenodd" d="M8.15186 45.3123C6.78086 45.2023 5.41286 45.0373 4.04586 44.8633C3.35986 44.7863 2.68086 44.6733 1.99886 44.5783C1.90686 44.5613 1.84186 44.5613 1.72886 44.5323C1.67286 44.5163 1.58886 44.4903 1.50386 44.3963C1.38786 44.2733 1.44386 44.0573 1.49486 44.0073C1.70286 43.7563 1.86786 43.7363 2.04886 43.6523C2.40186 43.5283 2.75786 43.4643 3.11386 43.4293C4.54086 43.3353 5.94586 43.6413 7.23386 44.1693C8.52386 44.7053 9.70286 45.4583 10.7509 46.3523C9.58186 45.6273 8.37586 44.9733 7.09686 44.5293C5.82486 44.0893 4.47786 43.8013 3.15786 43.9263C2.83086 43.9513 2.50486 44.0043 2.20786 44.1013C2.07486 44.1413 1.89486 44.2413 1.88586 44.2603C1.88086 44.2763 1.92486 44.1613 1.86386 44.1063C1.83786 44.0753 1.83386 44.0853 1.86086 44.0913C1.91286 44.1063 2.02086 44.1203 2.09786 44.1343C2.77186 44.2503 3.44886 44.3513 4.11986 44.4873C5.46486 44.7383 6.81086 44.9983 8.15186 45.3123" fill="#A2370B"/><path id="Fill 179" fill-rule="evenodd" clip-rule="evenodd" d="M4.13672 45.5487C5.43972 45.5827 6.72872 45.8147 7.99672 46.1097C9.25872 46.4277 10.5057 46.8347 11.6727 47.4147C10.4297 47.0277 9.19872 46.6417 7.93772 46.3517C7.31272 46.1867 6.67872 46.0537 6.04672 45.9197C5.41272 45.7897 4.77772 45.6587 4.13672 45.5487" fill="#A2370B"/><path id="Fill 181" fill-rule="evenodd" clip-rule="evenodd" d="M1.13556 46.161C1.29256 46.855 1.43556 47.55 1.56556 48.244C1.63456 48.591 1.73256 48.932 1.74256 49.287C1.73956 49.645 1.74756 50.001 1.64856 50.378L1.59956 50.387C1.41556 50.06 1.33756 49.714 1.24956 49.369C1.17456 49.021 1.18556 48.659 1.16956 48.303C1.12756 47.591 1.09956 46.879 1.08556 46.167L1.13556 46.161Z" fill="#A2370B"/><path id="Fill 183" fill-rule="evenodd" clip-rule="evenodd" d="M2.18883 45.9178C2.34283 46.5458 2.48483 47.1748 2.61783 47.8048C2.68883 48.1178 2.78983 48.4278 2.80583 48.7478C2.81183 49.0708 2.81783 49.3908 2.75583 49.7258L2.70883 49.7408C2.48683 49.4538 2.40783 49.1348 2.31183 48.8238C2.22983 48.5088 2.23883 48.1828 2.22183 47.8588C2.17583 47.2158 2.14983 46.5708 2.13983 45.9238L2.18883 45.9178Z" fill="#A2370B"/><path id="Fill 185" fill-rule="evenodd" clip-rule="evenodd" d="M3.4054 45.9969C3.6024 46.5489 3.7854 47.1039 3.9554 47.6639C4.0444 47.9419 4.1624 48.2159 4.1934 48.5069C4.2124 48.8009 4.2394 49.0919 4.1624 49.4039L4.1134 49.4139C3.9094 49.1579 3.8114 48.8819 3.7034 48.6069C3.6094 48.3309 3.6004 48.0359 3.5634 47.7469C3.4814 47.1709 3.4124 46.5909 3.3564 46.0079L3.4054 45.9969Z" fill="#A2370B"/><path id="Fill 187" fill-rule="evenodd" clip-rule="evenodd" d="M5.24514 46.2684C5.38914 46.7724 5.51814 47.2774 5.63514 47.7844C5.69714 48.0364 5.78814 48.2844 5.79214 48.5444C5.78314 48.8084 5.78314 49.0704 5.67814 49.3504L5.62814 49.3594C5.45114 49.1254 5.37914 48.8734 5.29814 48.6234C5.22914 48.3714 5.24814 48.1054 5.23914 47.8434C5.21114 47.3224 5.19614 46.7994 5.19614 46.2764L5.24514 46.2684Z" fill="#A2370B"/><path id="Fill 189" fill-rule="evenodd" clip-rule="evenodd" d="M7.00242 46.5672C7.12442 47.0782 7.23142 47.5942 7.32642 48.1142C7.37742 48.3732 7.45842 48.6322 7.45042 48.8952C7.42942 49.1582 7.41842 49.4202 7.30042 49.6792H7.25042C7.08242 49.4212 7.02142 49.1652 6.95042 48.9092C6.89342 48.6532 6.92442 48.3942 6.92642 48.1352C6.92142 47.6182 6.93042 47.0982 6.95242 46.5722L7.00242 46.5672Z" fill="#A2370B"/><path id="Fill 191" fill-rule="evenodd" clip-rule="evenodd" d="M8.84063 47.3231C8.99263 47.8501 9.13263 48.3791 9.26163 48.9081C9.33163 49.1731 9.42963 49.4311 9.44263 49.7031C9.44563 49.9751 9.44763 50.2551 9.37763 50.5321L9.33563 50.5571C9.11363 50.3121 9.04563 50.0501 8.94963 49.7871C8.87163 49.5231 8.88263 49.2451 8.86663 48.9711C8.82463 48.4271 8.79963 47.8801 8.79063 47.3311L8.84063 47.3231Z" fill="#A2370B"/><path id="Fill 193" fill-rule="evenodd" clip-rule="evenodd" d="M10.7063 47.6746C10.8543 48.2096 10.9893 48.7516 11.1103 49.2996C11.1763 49.5716 11.2703 49.8456 11.2763 50.1226C11.2683 50.4006 11.2713 50.6766 11.1663 50.9496H11.1163C10.9353 50.6786 10.8603 50.4096 10.7763 50.1416C10.7053 49.8736 10.7233 49.6026 10.7113 49.3296C10.6803 48.7856 10.6623 48.2376 10.6573 47.6826L10.7063 47.6746Z" fill="#A2370B"/><path id="Fill 195" fill-rule="evenodd" clip-rule="evenodd" d="M36.1445 57.2889C37.3615 56.8119 38.6175 56.4479 39.8815 56.1229C41.1465 55.7959 42.4305 55.5519 43.7165 55.3229C46.2965 54.9239 48.9135 54.6829 51.5225 54.8089C50.2255 54.9609 48.9325 55.0739 47.6455 55.2519C46.3585 55.4159 45.0735 55.5869 43.7965 55.8159C42.5135 56.0019 41.2405 56.2519 39.9655 56.4969C38.6895 56.7419 37.4195 57.0109 36.1445 57.2889" fill="#A2370B"/><path id="Fill 197" fill-rule="evenodd" clip-rule="evenodd" d="M35.5059 61.0448C37.0939 60.4308 38.7199 59.9208 40.3559 59.4498C41.9929 58.9788 43.6529 58.5928 45.3209 58.2378C46.9949 57.9198 48.6799 57.6328 50.3839 57.5028C52.0829 57.3758 53.8109 57.3208 55.4899 57.6438C53.7909 57.5288 52.0999 57.6808 50.4229 57.8848C48.7459 58.0928 47.0749 58.3728 45.4189 58.7278C43.7539 59.0388 42.1039 59.4298 40.4529 59.8208C38.8019 60.2128 37.1559 60.6268 35.5059 61.0448" fill="#A2370B"/><path id="Fill 199" fill-rule="evenodd" clip-rule="evenodd" d="M60.8771 21.5721C61.0131 23.1191 61.0331 24.6751 60.9631 26.2301C60.9181 27.7831 60.6211 29.3551 60.2151 30.8471C59.8011 32.3411 59.3971 33.8291 59.0961 35.3371C58.7871 36.8431 58.6101 38.3781 58.7151 39.9261C58.4021 38.4001 58.4831 36.8081 58.7171 35.2701C58.9441 33.7241 59.3561 32.2191 59.7321 30.7191C59.9341 29.9741 60.1451 29.2291 60.2811 28.4841C60.4211 27.7331 60.4961 26.9681 60.5821 26.2021C60.7301 24.6681 60.8071 23.1221 60.8771 21.5721" fill="#A2370B"/><path id="Fill 201" fill-rule="evenodd" clip-rule="evenodd" d="M63.498 43.4705C64.21 42.7955 65.009 42.2175 65.859 41.7145C66.288 41.4695 66.73 41.2415 67.204 41.0695C67.675 40.8995 68.169 40.7515 68.702 40.7435C68.838 40.7425 68.95 40.8515 68.951 40.9865C68.953 41.0885 68.889 41.1775 68.801 41.2165C68.103 41.5225 67.417 41.9195 66.769 42.3505C66.123 42.7925 65.525 43.3025 64.986 43.8955C65.376 43.1955 65.929 42.5805 66.553 42.0665C67.173 41.5375 67.858 41.1085 68.612 40.7635L68.711 41.2355C67.816 41.2895 66.91 41.6655 66.051 42.0775C65.18 42.4855 64.344 42.9785 63.498 43.4705" fill="#A2370B"/><path id="Fill 203" fill-rule="evenodd" clip-rule="evenodd" d="M71.1164 42.0174C70.1814 42.4934 69.3024 42.9884 68.4854 43.5814C68.0704 43.8684 67.6824 44.1884 67.3004 44.5214C66.9104 44.8484 66.5714 45.2274 66.1914 45.5964C66.5994 44.6244 67.3304 43.7884 68.1954 43.1754C69.0624 42.5674 70.0624 42.1204 71.1164 42.0174" fill="#A2370B"/><path id="Fill 205" fill-rule="evenodd" clip-rule="evenodd" d="M64.738 48.1414C65.06 48.6934 65.392 49.2394 65.736 49.7744L66.268 50.5604C66.436 50.8274 66.593 51.0954 66.811 51.3254C66.817 51.3294 66.819 51.3364 66.815 51.3424C66.812 51.3474 66.804 51.3484 66.8 51.3474C66.481 51.2234 66.27 50.9474 66.063 50.7044C65.873 50.4414 65.712 50.1624 65.564 49.8764C65.255 49.3134 64.974 48.7384 64.716 48.1534C64.713 48.1464 64.716 48.1394 64.722 48.1364C64.728 48.1334 64.735 48.1364 64.738 48.1414" fill="#A2370B"/><path id="Fill 207" fill-rule="evenodd" clip-rule="evenodd" d="M65.0924 47.5496C65.3904 47.8856 65.6924 48.2166 65.9994 48.5396C66.1604 48.6946 66.3144 48.8546 66.4664 49.0126C66.6094 49.1816 66.7454 49.3466 66.9054 49.5056C66.9114 49.5096 66.9134 49.5186 66.9094 49.5246C66.9064 49.5276 66.9004 49.5286 66.8964 49.5286C66.6534 49.4886 66.4664 49.3296 66.2894 49.1896C66.1244 49.0296 65.9804 48.8546 65.8474 48.6706C65.5704 48.3146 65.3134 47.9446 65.0724 47.5646C65.0684 47.5586 65.0704 47.5506 65.0764 47.5466C65.0814 47.5436 65.0884 47.5446 65.0924 47.5496" fill="#A2370B"/><path id="Fill 209" fill-rule="evenodd" clip-rule="evenodd" d="M66.0619 46.7489C66.2089 46.9829 66.3699 47.2069 66.5399 47.4159C66.7369 47.6119 66.8869 47.8019 67.0259 48.0659C67.0299 48.0729 67.0279 48.0809 67.0209 48.0849C67.0189 48.0869 67.0149 48.0869 67.0119 48.0869C66.7039 48.0249 66.4949 47.7859 66.3759 47.5299C66.2339 47.2839 66.1219 47.0259 66.0389 46.7589C66.0369 46.7519 66.0409 46.7449 66.0469 46.7429C66.0529 46.7409 66.0589 46.7439 66.0619 46.7489" fill="#A2370B"/><path id="Fill 211" fill-rule="evenodd" clip-rule="evenodd" d="M66.817 46.1092L67.205 46.5662C67.359 46.7022 67.444 46.8702 67.495 47.0722L67.498 47.0832C67.499 47.0882 67.496 47.0942 67.49 47.0952C67.489 47.0962 67.488 47.0962 67.487 47.0962C67.346 47.0932 67.269 47.0052 67.19 46.9412C67.126 46.8602 67.075 46.7722 67.038 46.6762C66.946 46.4972 66.866 46.3112 66.796 46.1222C66.793 46.1162 66.796 46.1082 66.803 46.1062C66.808 46.1042 66.814 46.1052 66.817 46.1092" fill="#A2370B"/><path id="Fill 213" fill-rule="evenodd" clip-rule="evenodd" d="M67.0277 45.2098L67.5057 45.6378C67.6867 45.7598 67.8057 45.9218 67.8957 46.1278L67.8987 46.1348C67.9017 46.1408 67.8987 46.1468 67.8927 46.1498C67.8917 46.1508 67.8897 46.1508 67.8887 46.1508C67.7457 46.1608 67.6517 46.0828 67.5587 46.0248C67.4787 45.9498 67.4117 45.8638 67.3567 45.7708C67.2307 45.5958 67.1147 45.4138 67.0077 45.2268C67.0047 45.2198 67.0067 45.2118 67.0127 45.2088C67.0177 45.2058 67.0237 45.2068 67.0277 45.2098" fill="#A2370B"/><path id="Fill 215" fill-rule="evenodd" clip-rule="evenodd" d="M67.737 44.7616C67.873 44.8666 68 44.9816 68.117 45.1086C68.254 45.2166 68.355 45.3776 68.306 45.5906C68.304 45.5996 68.296 45.6046 68.287 45.6026C68.286 45.6026 68.284 45.6016 68.283 45.6016C68.097 45.5076 68.012 45.3886 67.955 45.2236L67.718 44.7776C67.715 44.7716 67.717 44.7636 67.723 44.7606C67.728 44.7576 67.733 44.7586 67.737 44.7616" fill="#A2370B"/><path id="Fill 217" fill-rule="evenodd" clip-rule="evenodd" d="M68.988 43.8856C69.097 43.9386 69.199 44.0026 69.294 44.0756C69.407 44.1316 69.486 44.2386 69.439 44.4076C69.436 44.4176 69.427 44.4226 69.418 44.4216C69.247 44.3996 69.182 44.3246 69.144 44.2086L68.971 43.9046C68.967 43.8986 68.969 43.8906 68.976 43.8866C68.979 43.8846 68.984 43.8846 68.988 43.8856" fill="#A2370B"/><path id="Fill 219" fill-rule="evenodd" clip-rule="evenodd" d="M70.0984 43.1307C70.2244 43.2077 70.3444 43.2927 70.4574 43.3887C70.5844 43.4657 70.6914 43.5957 70.6444 43.7957C70.6414 43.8037 70.6334 43.8097 70.6254 43.8077L70.6214 43.8057C70.4464 43.7477 70.3614 43.6607 70.3064 43.5197L70.0804 43.1487C70.0774 43.1427 70.0784 43.1347 70.0844 43.1307C70.0894 43.1277 70.0944 43.1277 70.0984 43.1307" fill="#A2370B"/><path id="Fill 221" fill-rule="evenodd" clip-rule="evenodd" d="M71.0673 42.4227C71.2033 42.5327 71.3323 42.6517 71.4513 42.7797C71.5853 42.8907 71.7073 43.0517 71.6363 43.2787C71.6343 43.2857 71.6283 43.2897 71.6213 43.2877C71.6203 43.2877 71.6193 43.2867 71.6183 43.2867L71.6123 43.2827C71.4463 43.1797 71.3463 43.0677 71.2893 42.8967L71.0473 42.4387C71.0443 42.4327 71.0463 42.4247 71.0533 42.4217C71.0583 42.4187 71.0633 42.4197 71.0673 42.4227" fill="#A2370B"/></g></g></g><g id="Male Character/Accesories" transform="translate(108 70) scale(34 36)"><g id="Male Character/Accesories/None" stroke="none" stroke-width="1" fill="none" fill-rule="evenodd" fill-opacity="0"/></g></g></g></g></svg>