<svg viewBox="60.97500000000002 35.944148936170194 152.43749999999997 220.41223404255317" fill="none" xmlns="http://www.w3.org/2000/svg" xmlns:xlink="http://www.w3.org/1999/xlink" overflow="visible" width="152.43749999999997px" height="220.41223404255317px"><g id="Master/Male Character/Running"><g id="Male Character Running/Lower Body" transform="translate(61 131) scale(1 1)"><g id="Male Character Running/Lower Body/Shorts 3"><g id="Group 119"><path id="Fill 67" fill-rule="evenodd" clip-rule="evenodd" d="M92.3925 11.5706C92.3925 11.5706 91.8225 2.7716 79.4445 1.4486C67.0665 0.1266 54.4045 5.7006 59.1295 26.5826C59.1295 26.5826 51.6645 52.2836 50.4365 59.0866C50.4365 59.0866 48.8295 62.3936 43.0665 64.9446C37.3025 67.4966 28.4205 73.1656 22.0895 81.6696C15.7595 90.1736 15.8535 92.0626 9.90054 92.7236C3.94854 93.3856 3.66454 105.197 8.01154 105.481C12.3575 105.764 15.1925 106.142 15.6645 105.009C16.1375 103.875 26.3415 89.8896 57.1445 78.1736C57.1445 78.1736 63.6645 77.5116 67.0665 71.9366C70.4675 66.3626 82.8455 40.0936 82.8455 40.0936C82.8455 40.0936 98.1525 44.4406 103.917 45.3856C103.917 45.3856 108.697 47.2196 107.846 50.1496C106.996 53.0786 105.862 67.9136 108.791 73.6766C111.72 79.4406 118.185 92.3456 116.673 105.102C115.162 117.859 128.579 107.465 129.429 105.009C130.279 102.551 125.366 103.497 125.366 91.2126C125.366 78.9286 126.311 50.2996 126.783 45.7636C127.256 41.2276 127.823 35.2756 122.059 30.3626C116.295 25.4486 92.3925 11.5706 92.3925 11.5706" fill="#db8c5c"/><path id="Fill 69" fill-rule="evenodd" clip-rule="evenodd" d="M59.8856 8.6304C54.9726 17.9844 59.1306 26.5824 59.1306 26.5824L53.9336 40.6614C53.9336 40.6614 54.1226 41.6064 55.8226 42.3624C57.5236 43.1184 73.0196 42.4564 79.6346 48.5044C79.6346 48.5044 82.8466 42.1734 82.8466 40.0944L90.3116 42.9294C90.3116 42.9294 94.5636 37.7324 95.6026 35.5584C95.6026 35.5584 89.4606 28.5664 90.2166 27.1494C90.9726 25.7324 98.9096 29.7004 98.9096 29.7004L108.737 21.2914L108.359 21.1014C108.359 21.1014 98.9096 13.4505 92.3896 11.5584C91.1616 11.2754 96.4526 1.6384 78.4056 0.7874C78.4056 0.7874 64.7996 -0.7246 59.8856 8.6304Z" fill="#E85215"/><path id="Fill 71" fill-rule="evenodd" clip-rule="evenodd" d="M58.9416 19.1185C59.0056 20.5355 59.3406 21.9205 59.8516 23.2245C60.3126 24.5515 61.0226 25.7685 61.7676 26.9465C63.3246 29.2705 65.3716 31.2385 67.6446 32.8635C68.7306 33.7525 69.9656 34.4295 71.1566 35.1725C72.3766 35.8655 73.6676 36.4355 74.9166 37.0855C76.2216 37.6155 77.5136 38.1885 78.8356 38.6875C80.1686 39.1565 81.5126 39.6015 82.8466 40.0945C81.4676 39.7655 80.0976 39.3895 78.7176 39.0365C77.3636 38.6045 76.0346 38.0875 74.6886 37.6145C74.0286 37.3455 73.3866 37.0295 72.7416 36.7245C72.1046 36.4015 71.4326 36.1465 70.8246 35.7675C69.5986 35.0305 68.3276 34.3605 67.1986 33.4665C64.9106 31.7535 62.7886 29.7255 61.2846 27.2575C59.8166 24.8055 58.7846 21.9765 58.9416 19.1185" fill="#A2370B"/><path id="Fill 73" fill-rule="evenodd" clip-rule="evenodd" d="M73.6816 14.2991C75.2646 13.8261 76.8886 13.4961 78.5196 13.2271C80.1526 12.9591 81.8006 12.8021 83.4516 12.6811C85.1036 12.5921 86.7626 12.5701 88.4146 12.6561C90.0686 12.7281 91.7146 12.9471 93.3346 13.2601C91.6856 13.1531 90.0476 13.0311 88.4036 13.0401C86.7616 13.0341 85.1196 13.0531 83.4816 13.1791C81.8416 13.2581 80.2056 13.4211 78.5726 13.6071C76.9386 13.7951 75.3096 14.0281 73.6816 14.2991" fill="#A2370B"/><path id="Fill 75" fill-rule="evenodd" clip-rule="evenodd" d="M71.0352 17.6068C72.8792 16.6488 74.8632 15.9768 76.8742 15.4448C78.8892 14.9198 80.9492 14.5638 83.0242 14.3748C85.1012 14.2218 87.1912 14.1528 89.2672 14.3388C90.3072 14.3958 91.3362 14.5598 92.3652 14.7018C93.3912 14.8648 94.4032 15.1148 95.4132 15.3378C93.3572 15.0568 91.3092 14.7748 89.2442 14.7228C87.1842 14.6168 85.1192 14.6818 83.0692 14.8718C81.0132 15.0178 78.9782 15.3778 76.9642 15.8168C74.9522 16.2668 72.9612 16.8378 71.0352 17.6068" fill="#A2370B"/><path id="Fill 77" fill-rule="evenodd" clip-rule="evenodd" d="M11.1024 92.7718C11.1024 92.7718 13.0864 92.1578 12.0944 96.2198C11.1024 100.284 12.1424 101.371 14.2684 101.654C16.3944 101.937 16.9134 102.693 16.9134 102.693C16.9134 102.693 4.44138 106.425 11.1024 92.7718" fill="#DAEDEB"/><g id="Group 81"><path id="Fill 79" fill-rule="evenodd" clip-rule="evenodd" d="M0 94.0472C0 94.0472 1.748 101.276 2.882 103.26C4.016 105.244 4.677 107.181 4.772 112.378C4.866 117.574 6.567 123.433 12.803 124L13.559 122.677C13.559 122.677 8.693 109.59 9.213 102.834C9.732 96.0782 3.543 94.1422 3.543 94.1422L0 94.0472Z" fill="#DAEDEB"/></g><g id="Group 84"><path id="Fill 82" fill-rule="evenodd" clip-rule="evenodd" d="M0 94.0472C0.455 95.4262 0.87 96.8132 1.346 98.1802C1.794 99.5512 2.25 100.929 2.82 102.227C2.967 102.555 3.115 102.844 3.296 103.148C3.488 103.464 3.663 103.794 3.828 104.131C4.16 104.806 4.417 105.523 4.611 106.246C4.989 107.7 5.124 109.176 5.212 110.637C5.275 112.114 5.25 113.531 5.44 114.933C5.604 116.336 5.925 117.72 6.459 119.013C6.999 120.3 7.808 121.481 8.91 122.349C9.988 123.259 11.375 123.758 12.803 124C11.353 123.984 9.873 123.577 8.622 122.745C7.379 121.9 6.423 120.671 5.759 119.332C5.079 117.989 4.733 116.52 4.501 115.061C4.274 113.591 4.292 112.101 4.214 110.688C4.147 109.26 4.017 107.836 3.695 106.477C3.536 105.797 3.324 105.136 3.036 104.501C2.895 104.182 2.735 103.87 2.57 103.557C2.399 103.227 2.239 102.86 2.112 102.518C1.124 99.7362 0.516 96.9072 0 94.0472" fill="#A96D18"/></g><path id="Fill 85" fill-rule="evenodd" clip-rule="evenodd" d="M6.28297 107.937C6.28297 107.937 6.32997 115.638 7.69997 118.142C9.07097 120.646 12.283 124.142 14.078 123.102C15.873 122.063 15.023 120.079 14.504 118.85C13.984 117.623 14.362 111.623 17.197 106.708C20.031 101.795 16.535 101.985 16.062 101.985C15.59 101.985 11.386 103.449 10.299 99.8588C9.21197 96.2678 13.134 94.2838 12.141 92.8668C11.149 91.4488 7.51197 92.0628 3.54297 94.1418C3.54297 94.1418 6.66097 101.749 6.28297 107.937" fill="#FFD44C"/><path id="Fill 87" fill-rule="evenodd" clip-rule="evenodd" d="M11.6087 107.664C11.6997 107.718 11.8187 107.768 11.9717 107.803C12.4577 107.911 13.3077 107.846 14.6977 107.054C13.9677 106.901 12.7897 106.858 11.6087 107.664M12.3657 108.593C12.1527 108.593 11.9507 108.57 11.7597 108.523C11.0167 108.341 10.7337 107.865 10.7037 107.812C10.6157 107.654 10.6527 107.456 10.7927 107.341C13.1467 105.392 15.6477 106.555 15.7527 106.606C15.8747 106.665 15.9557 106.784 15.9647 106.919C15.9737 107.054 15.9097 107.183 15.7967 107.257C14.4517 108.145 13.3007 108.593 12.3657 108.593" fill="#E3E3E3"/><path id="Fill 89" fill-rule="evenodd" clip-rule="evenodd" d="M16.3419 107.956C16.5169 109.598 16.9699 111.481 17.6409 111.556C17.8289 111.579 17.8719 111.51 17.9069 111.419C18.1219 110.861 17.5839 109.196 16.3419 107.956M17.7029 112.31C17.6549 112.31 17.6079 112.307 17.5579 112.302C15.8389 112.11 15.5619 107.937 15.5239 107.102C15.5169 106.959 15.5939 106.824 15.7199 106.756C15.8459 106.686 16.0009 106.696 16.1179 106.782C18.0159 108.152 19.0319 110.587 18.6069 111.688C18.4529 112.089 18.1279 112.31 17.7029 112.31" fill="#E3E3E3"/><path id="Fill 91" fill-rule="evenodd" clip-rule="evenodd" d="M16.985 114.801C16.978 114.801 16.971 114.801 16.964 114.8C16.826 114.788 16.724 114.668 16.735 114.53C16.805 113.694 16.483 112.543 16.076 111.086C15.957 110.658 15.83 110.205 15.703 109.725C15.462 108.81 15.375 108.195 15.363 107.78C15.214 107.872 15.027 107.97 14.792 108.072C13.943 108.439 10.393 110.564 10.357 110.585C10.239 110.653 10.085 110.617 10.014 110.499C9.94301 110.38 9.98201 110.227 10.1 110.155C10.247 110.068 13.715 107.992 14.594 107.613C15.221 107.341 15.427 107.119 15.475 107.058C15.493 107.027 15.51 107.004 15.526 106.987C15.61 106.897 15.746 106.882 15.848 106.949C15.95 107.019 15.987 107.151 15.936 107.262C15.929 107.276 15.916 107.301 15.891 107.336C15.873 107.409 15.746 107.928 16.187 109.598C16.313 110.075 16.439 110.527 16.557 110.951C16.978 112.456 17.311 113.646 17.234 114.572C17.223 114.702 17.113 114.801 16.985 114.801" fill="#E3E3E3"/><path id="Fill 93" fill-rule="evenodd" clip-rule="evenodd" d="M11.3687 110.64C12.0247 110.649 12.6787 110.717 13.3297 110.863C13.6557 110.925 14.0047 110.975 14.2977 111.173C14.5767 111.369 14.8747 111.648 14.9347 112.047C14.9387 112.071 14.9227 112.093 14.8987 112.097C14.8927 112.098 14.8827 112.096 14.8767 112.094C14.5247 111.993 14.2527 111.936 13.9607 111.844C13.6757 111.758 13.4257 111.567 13.1397 111.431C12.5677 111.172 11.9667 110.935 11.3567 110.714C11.3367 110.707 11.3257 110.686 11.3317 110.666C11.3377 110.651 11.3527 110.64 11.3687 110.64" fill="#E3E3E3"/><path id="Fill 95" fill-rule="evenodd" clip-rule="evenodd" d="M11.2061 111.728C11.8481 111.794 12.4841 111.892 13.1141 112.029C13.4321 112.09 13.7661 112.117 14.0551 112.282C14.3311 112.452 14.6471 112.648 14.7911 113.039C14.7981 113.058 14.7881 113.08 14.7691 113.087C14.7641 113.088 14.7581 113.089 14.7531 113.089L14.7351 113.088C14.3911 113.067 14.0901 113.053 13.7831 112.981C13.4801 112.915 13.2131 112.736 12.9271 112.599C12.3511 112.339 11.7681 112.075 11.1861 111.8C11.1671 111.791 11.1591 111.769 11.1671 111.749C11.1741 111.735 11.1901 111.726 11.2061 111.728" fill="#E3E3E3"/><path id="Fill 97" fill-rule="evenodd" clip-rule="evenodd" d="M9.90337 112.743C10.7364 112.755 11.5664 112.817 12.3954 112.945C12.8094 113.006 13.2424 113.03 13.6364 113.222C14.0064 113.414 14.4574 113.667 14.6064 114.152C14.6124 114.173 14.6014 114.194 14.5814 114.2C14.5734 114.203 14.5654 114.202 14.5574 114.199L14.5444 114.195C14.1454 114.053 13.7764 114.025 13.3884 113.93C13.0064 113.846 12.6394 113.665 12.2554 113.529C11.4824 113.277 10.6904 113.043 9.89337 112.817C9.87337 112.811 9.86137 112.791 9.86637 112.771C9.87137 112.754 9.88637 112.743 9.90337 112.743" fill="#E3E3E3"/><path id="Fill 101" fill-rule="evenodd" clip-rule="evenodd" d="M115.412 116.288C115.412 116.288 122.849 116.221 125.038 115.564C127.227 114.909 129.264 114.703 134.347 115.787C139.431 116.871 145.521 116.54 147.485 110.594L146.367 109.558C146.367 109.558 132.519 111.337 126.056 109.302C119.593 107.267 116.306 112.857 116.306 112.857L115.412 116.288Z" fill="#DAEDEB"/><path id="Fill 99" fill-rule="evenodd" clip-rule="evenodd" d="M116.682 105.185C116.682 105.185 116.533 103.114 120.266 104.998C123.999 106.884 125.292 106.118 126.05 104.112C126.807 102.105 127.661 101.769 127.661 101.769C127.661 101.769 128.474 114.763 116.682 105.185" fill="#DAEDEB"/><path id="Fill 103" fill-rule="evenodd" clip-rule="evenodd" d="M115.412 116.288C116.858 116.156 118.303 116.065 119.742 115.911C121.179 115.785 122.625 115.652 124.017 115.392C124.37 115.322 124.686 115.243 125.022 115.136C125.374 115.02 125.735 114.925 126.101 114.84C126.833 114.669 127.589 114.582 128.338 114.557C129.84 114.517 131.308 114.72 132.751 114.964C134.205 115.236 135.579 115.582 136.987 115.714C138.391 115.872 139.812 115.872 141.192 115.644C142.567 115.41 143.901 114.889 144.995 114.012C146.126 113.168 146.927 111.93 147.485 110.594C147.141 112.003 146.41 113.351 145.316 114.382C144.212 115.401 142.799 116.055 141.345 116.398C139.883 116.757 138.373 116.762 136.899 116.657C135.416 116.546 133.969 116.191 132.575 115.947C131.168 115.689 129.752 115.494 128.355 115.5C127.657 115.502 126.965 115.559 126.282 115.695C125.939 115.761 125.599 115.846 125.256 115.935C124.896 116.027 124.504 116.101 124.141 116.146C121.208 116.48 118.315 116.432 115.412 116.288" fill="#A96D18"/><path id="Fill 105" fill-rule="evenodd" clip-rule="evenodd" d="M130.364 113.31C130.364 113.31 137.876 115.006 140.625 114.239C143.374 113.47 147.506 111.132 146.9 109.148C146.294 107.164 144.169 107.543 142.854 107.772C141.54 108 135.781 106.275 131.637 102.402C127.492 98.5289 126.885 101.977 126.779 102.437C126.672 102.898 127.147 107.325 123.404 107.571C119.66 107.817 118.614 103.548 117.01 104.194C115.405 104.839 115.179 108.522 116.306 112.858C116.306 112.858 124.421 111.541 130.364 113.31" fill="#FFD44C"/><path id="Fill 107" fill-rule="evenodd" clip-rule="evenodd" d="M131.408 104.913C131.095 105.59 130.785 106.728 131.303 108.061C131.376 107.984 131.453 107.88 131.52 107.738C131.734 107.29 131.865 106.447 131.408 104.913M131.139 108.99C131 108.99 130.868 108.912 130.804 108.783C129.437 106.048 131.137 103.876 131.211 103.785C131.295 103.68 131.431 103.632 131.563 103.649C131.697 103.671 131.808 103.763 131.855 103.889C132.544 105.746 132.651 107.165 132.174 108.108C131.828 108.791 131.301 108.959 131.242 108.975C131.208 108.985 131.173 108.99 131.139 108.99" fill="#E3E3E3"/><path id="Fill 109" fill-rule="evenodd" clip-rule="evenodd" d="M132.658 103.518C134.298 103.72 136.235 103.705 136.459 103.067C136.522 102.887 136.466 102.831 136.386 102.777C135.891 102.441 134.147 102.588 132.658 103.518M134.36 104.389C133.198 104.389 132.038 104.195 131.642 104.122C131.501 104.096 131.387 103.992 131.349 103.852C131.311 103.713 131.356 103.566 131.464 103.471C133.228 101.932 135.83 101.495 136.807 102.156C137.201 102.423 137.332 102.846 137.166 103.317C136.867 104.164 135.613 104.389 134.36 104.389" fill="#E3E3E3"/><path id="Fill 111" fill-rule="evenodd" clip-rule="evenodd" d="M133.627 110.268C133.521 110.268 133.423 110.201 133.389 110.094C133.336 109.931 132.101 106.084 131.929 105.142C131.807 104.469 131.637 104.218 131.588 104.158C131.562 104.133 131.543 104.111 131.53 104.092C131.462 103.99 131.478 103.853 131.567 103.77C131.657 103.685 131.794 103.679 131.892 103.755C131.903 103.764 131.925 103.784 131.954 103.816C132.021 103.849 132.501 104.096 134.223 104.039C134.715 104.025 135.181 104.004 135.62 103.985C137.187 103.915 138.42 103.861 139.305 104.145C139.437 104.188 139.509 104.329 139.466 104.459C139.424 104.591 139.283 104.663 139.152 104.622C138.352 104.364 137.156 104.418 135.642 104.484C135.201 104.503 134.732 104.525 134.237 104.539C133.292 104.568 132.673 104.512 132.267 104.43C132.322 104.596 132.376 104.801 132.421 105.052C132.587 105.963 133.852 109.902 133.865 109.942C133.907 110.073 133.835 110.213 133.704 110.256C133.678 110.264 133.652 110.268 133.627 110.268" fill="#E3E3E3"/><path id="Fill 113" fill-rule="evenodd" clip-rule="evenodd" d="M134.147 108.968C134.304 108.331 134.519 107.71 134.807 107.109C134.942 106.806 135.069 106.477 135.329 106.237C135.582 106.009 135.921 105.781 136.325 105.813C136.349 105.815 136.366 105.835 136.364 105.86C136.364 105.865 136.36 105.875 136.357 105.881C136.178 106.199 136.062 106.452 135.906 106.716C135.758 106.975 135.515 107.174 135.318 107.422C134.937 107.921 134.569 108.452 134.216 108.997C134.205 109.015 134.182 109.021 134.164 109.01C134.15 109.001 134.144 108.984 134.147 108.968" fill="#E3E3E3"/><path id="Fill 115" fill-rule="evenodd" clip-rule="evenodd" d="M135.17 109.372C135.38 108.762 135.619 108.164 135.896 107.581C136.027 107.286 136.128 106.967 136.355 106.723C136.583 106.492 136.845 106.228 137.258 106.176C137.278 106.174 137.297 106.188 137.3 106.209C137.301 106.215 137.3 106.22 137.299 106.225L137.294 106.242C137.195 106.572 137.113 106.862 136.974 107.144C136.842 107.425 136.606 107.644 136.408 107.893C136.025 108.395 135.635 108.903 135.236 109.407C135.223 109.424 135.199 109.427 135.183 109.414C135.17 109.404 135.165 109.387 135.17 109.372" fill="#E3E3E3"/><path id="Fill 117" fill-rule="evenodd" clip-rule="evenodd" d="M135.864 110.871C136.065 110.063 136.313 109.269 136.625 108.49C136.778 108.1 136.899 107.684 137.176 107.344C137.447 107.027 137.795 106.644 138.302 106.609C138.322 106.608 138.341 106.624 138.342 106.644C138.343 106.653 138.34 106.661 138.336 106.668L138.329 106.68C138.099 107.036 137.99 107.39 137.808 107.746C137.64 108.099 137.382 108.415 137.162 108.759C136.742 109.455 136.335 110.174 135.934 110.898C135.925 110.917 135.902 110.924 135.883 110.914C135.868 110.906 135.861 110.888 135.864 110.871" fill="#E3E3E3"/></g></g></g><g id="Profile Head" transform="translate(139 37) scale(1 1)"><g id="Profile Head/Long Pompadour 1"><g id="Group 154"><path id="Fill 120" fill-rule="evenodd" clip-rule="evenodd" d="M28.6021 17.5667C28.6021 17.5667 27.7731 18.5927 28.3881 19.5857C29.0021 20.5777 29.7101 22.3257 30.3251 23.2707C30.9391 24.2147 31.2221 25.3017 28.1511 26.4357C28.1511 26.4357 28.0571 27.2387 28.5771 27.5227C29.0961 27.8057 28.0571 29.0347 28.0571 29.0347C28.0571 29.0347 28.6601 29.3367 28.4001 29.8797C28.1411 30.4217 27.5741 31.6737 28.2111 32.1707C28.8491 32.6667 28.1881 34.2257 26.3221 34.2257C24.4561 34.2257 22.0571 33.9947 22.0571 33.9947C22.0571 33.9947 20.6871 36.0267 20.4981 36.9237C20.3091 37.8217 19.7891 39.1437 19.0811 39.9007C18.3721 40.6567 20.7341 42.9707 20.7341 42.9707C20.7341 42.9707 24.1001 49.3307 17.2961 48.9057C10.4941 48.4797 0.785074 39.9057 2.98207 38.4887C2.98207 38.4887 8.29707 36.8547 8.55307 33.0087C8.81007 29.1647 7.01507 28.2237 4.79307 25.4897C2.57107 22.7547 -0.248925 15.2357 4.87807 8.99771C10.0061 2.75971 21.0551 4.31471 24.3861 7.78771C26.9301 10.4397 28.0641 14.9887 28.6021 15.7957C29.0271 16.4327 28.6021 17.5667 28.6021 17.5667" fill="#db8c5c"/><path id="Fill 122" fill-rule="evenodd" clip-rule="evenodd" d="M11.1477 21.2943C11.1477 21.2943 10.9747 21.0943 10.9807 21.4143C10.9877 21.7343 10.9077 21.9073 10.8147 21.8813C10.7207 21.8553 10.2807 21.0873 10.9407 20.7283C11.6017 20.3673 11.9607 21.0803 12.4347 21.9683C12.9087 22.8553 12.7287 24.1153 12.2677 24.1623C11.8077 24.2093 11.9407 23.8893 11.9877 23.2483C12.0347 22.6083 11.3877 21.4283 11.1477 21.2943" fill="black"/><path id="Fill 124" fill-rule="evenodd" clip-rule="evenodd" d="M21.709 16.4769C21.709 16.4769 22.01 16.2989 22.736 16.2819C23.463 16.2639 26.421 16.5119 26.475 16.4059C26.528 16.2989 26.421 15.7149 26.421 15.7149C26.421 15.7149 25.925 15.6439 25.943 15.5729C25.961 15.5019 26.528 15.2009 26.528 15.1299C26.528 15.0589 22.701 14.1209 21.709 16.4769" fill="black"/><path id="Fill 126" fill-rule="evenodd" clip-rule="evenodd" d="M24.9543 28.1097C24.9543 28.1097 26.6103 29.0807 28.3523 28.2097C28.3523 28.2097 28.6213 28.0517 28.6213 28.3087C28.6213 28.5667 27.8863 29.0087 26.7453 29.0227C25.6043 29.0377 24.7823 28.6517 24.6113 28.3087C24.4393 27.9657 24.9543 28.1097 24.9543 28.1097" fill="black"/><path id="Fill 128" fill-rule="evenodd" clip-rule="evenodd" d="M22.9062 19.3382C22.9062 19.3382 25.6463 18.2522 25.9773 18.3942C26.3073 18.5352 25.6943 19.1022 25.6943 19.1022C25.6943 19.1022 26.3552 19.2442 25.8352 19.6222C25.3162 20.0002 25.8833 20.0942 25.7403 20.1422C25.5993 20.1892 22.9062 19.3382 22.9062 19.3382" fill="black"/><path id="Fill 130" fill-rule="evenodd" clip-rule="evenodd" d="M8.54372 31.6224C8.54372 31.6224 5.37872 27.7954 3.44172 25.6694C1.50472 23.5434 -0.243278 19.0554 0.701722 15.3704C1.64672 11.6854 2.63872 11.1184 3.20572 9.8904C3.77272 8.6614 4.71672 6.2524 8.21272 4.8824C11.7097 3.5124 12.3237 3.1814 13.3157 2.5664C14.3077 1.9524 14.8277 1.1494 16.5757 1.2444C18.3237 1.3384 16.7647 -0.0315951 20.2127 0.913405C23.6617 1.8584 27.2287 1.7644 27.4057 7.1854C27.4057 7.1854 28.6107 4.8824 26.5907 2.1884C26.5907 2.1884 27.5837 1.9404 28.1497 3.5354C28.7167 5.1304 28.7527 9.59441 26.0237 9.70041C23.2957 9.80741 21.5237 8.5314 20.7447 8.4604C19.9647 8.3904 16.6697 9.27541 16.3867 9.73641C16.1027 10.1964 15.2167 11.7564 15.7127 12.8904C16.2097 14.0234 15.8907 14.9094 15.2877 16.3974C14.6857 17.8864 15.2877 22.0314 15.5007 22.4924C15.7127 22.9524 14.8277 23.2004 14.3667 21.8184C13.9057 20.4364 11.8157 18.0274 9.93772 18.8074C8.05972 19.5864 9.37072 24.6184 11.0007 25.6814C11.0007 25.6814 10.5757 30.6774 8.54372 31.6224" fill="#765227"/><path id="Fill 132" fill-rule="evenodd" clip-rule="evenodd" d="M22.5508 2.6615C23.0268 2.9145 23.4298 3.2835 23.7798 3.7005C24.1318 4.1175 24.3978 4.6155 24.5548 5.1545C24.7138 5.6925 24.7118 6.2855 24.5548 6.8195C24.4208 7.3655 24.0938 7.8275 23.7318 8.2125C23.9228 7.7105 24.1358 7.2425 24.1778 6.7415C24.2328 6.2515 24.2218 5.7575 24.0738 5.2865C23.8088 4.3365 23.2268 3.4795 22.5508 2.6615" fill="#703312"/><path id="Fill 134" fill-rule="evenodd" clip-rule="evenodd" d="M25.3397 4.12631C25.4807 4.49331 25.5417 4.87831 25.5767 5.26431C25.6187 5.65031 25.5947 6.04231 25.5417 6.43131C25.4777 6.81731 25.3807 7.20931 25.1787 7.56331C24.9887 7.91331 24.7157 8.24731 24.3477 8.40131C24.5807 8.08531 24.7207 7.75631 24.8247 7.41331C24.9237 7.06931 24.9997 6.71731 25.0477 6.35531C25.1677 5.63331 25.2157 4.89631 25.3397 4.12631" fill="#703312"/><path id="Fill 136" fill-rule="evenodd" clip-rule="evenodd" d="M18.8438 1.52771C19.4268 1.75871 19.9447 2.13671 20.3967 2.58471C20.8517 3.03071 21.2097 3.58771 21.4337 4.19971C21.6547 4.81071 21.7288 5.48771 21.5968 6.12071C21.5588 6.44171 21.4357 6.73971 21.3347 7.03871C21.2057 7.32671 21.0388 7.59671 20.8758 7.85871C21.0308 7.25271 21.2088 6.67371 21.2148 6.07871C21.2488 5.49171 21.1687 4.90871 20.9637 4.36771C20.5767 3.26771 19.7778 2.33871 18.8438 1.52771" fill="#703312"/><path id="Fill 138" fill-rule="evenodd" clip-rule="evenodd" d="M18.5586 2.23671C19.4886 2.66371 20.2246 3.48771 20.6556 4.43071C20.8616 4.90771 21.0186 5.41371 21.0476 5.93271C21.1016 6.44771 21.0486 6.96571 20.9206 7.45671C20.8406 6.95171 20.7966 6.46471 20.6676 5.99471C20.5556 5.52471 20.3986 5.07171 20.2006 4.63771C19.8146 3.75971 19.2486 2.97471 18.5586 2.23671" fill="#703312"/><path id="Fill 140" fill-rule="evenodd" clip-rule="evenodd" d="M13.4805 3.181C14.1655 3.191 14.8395 3.354 15.4875 3.594C16.1375 3.833 16.7475 4.197 17.2775 4.666C17.8015 5.143 18.2045 5.765 18.4115 6.44C18.6505 7.113 18.6055 7.834 18.4885 8.496C18.3985 7.82 18.3425 7.157 18.0505 6.574C17.7805 5.994 17.4215 5.459 16.9385 5.034C15.9835 4.17 14.7635 3.613 13.4805 3.181" fill="#703312"/><path id="Fill 142" fill-rule="evenodd" clip-rule="evenodd" d="M11.6855 4.36261C12.3125 4.21361 12.9655 4.20861 13.6095 4.27361C14.2565 4.33761 14.8935 4.51861 15.4945 4.78661C16.0945 5.05561 16.6415 5.45661 17.0815 5.94461C17.5425 6.41861 17.8365 7.02061 18.0395 7.62261C17.6495 7.11161 17.2945 6.60161 16.8115 6.21861C16.3435 5.83061 15.8455 5.47961 15.2845 5.24061C14.1785 4.72761 12.9555 4.48061 11.6855 4.36261" fill="#703312"/><path id="Fill 144" fill-rule="evenodd" clip-rule="evenodd" d="M5.33203 7.36261C6.09903 7.28761 6.87003 7.33061 7.63403 7.41661C8.40003 7.50261 9.15903 7.66361 9.90003 7.88961C10.635 8.13261 11.36 8.42661 12.024 8.83761C12.682 9.25461 13.289 9.76161 13.741 10.3856C13.138 9.90661 12.507 9.50761 11.838 9.17461C11.161 8.85961 10.465 8.59161 9.75103 8.36661C8.31903 7.91961 6.84203 7.62661 5.33203 7.36261" fill="#703312"/><path id="Fill 146" fill-rule="evenodd" clip-rule="evenodd" d="M6.41797 6.44081C7.18797 6.28081 7.98097 6.26781 8.76797 6.32281C9.55697 6.37681 10.339 6.54481 11.095 6.79781C11.847 7.06681 12.563 7.45281 13.185 7.95481C13.814 8.45381 14.305 9.10181 14.662 9.79481C14.131 9.21581 13.597 8.67281 12.956 8.26381C12.316 7.86181 11.646 7.51381 10.929 7.26881C9.49697 6.77181 7.97597 6.53881 6.41797 6.44081" fill="#703312"/><path id="Fill 148" fill-rule="evenodd" clip-rule="evenodd" d="M12.3937 14.7562C12.6937 15.6302 12.8667 16.5122 13.0357 17.3952C13.1897 18.2822 13.3187 19.1572 13.4327 20.0702C13.1797 19.6802 13.0177 19.2452 12.8727 18.8122C12.7237 18.3772 12.6297 17.9302 12.5437 17.4832C12.3927 16.5862 12.3077 15.6772 12.3937 14.7562" fill="#703312"/><path id="Fill 150" fill-rule="evenodd" clip-rule="evenodd" d="M4.50391 16.5511C5.43191 18.1691 6.27491 19.8151 7.15691 21.4391C8.03191 23.0691 8.90791 24.6841 9.93691 26.2371C9.25691 25.5931 8.69291 24.8381 8.16291 24.0711C7.62691 23.3041 7.16391 22.4921 6.71691 21.6751C5.84491 20.0291 5.07591 18.3271 4.50391 16.5511" fill="#703312"/><path id="Fill 152" fill-rule="evenodd" clip-rule="evenodd" d="M2.80273 17.0706C3.58373 19.0136 4.48673 20.8826 5.53073 22.6726C6.04473 23.5706 6.60073 24.4446 7.18573 25.3006C7.76073 26.1676 8.40873 26.9776 9.03873 27.8186C7.46673 26.4286 6.15173 24.7436 5.09773 22.9226C4.57173 22.0086 4.10073 21.0636 3.71773 20.0836C3.32973 19.1066 2.99373 18.1046 2.80273 17.0706" fill="#703312"/></g></g></g><g id="Male Character Running/Upper Body" transform="translate(95 72) scale(1 1)"><g id="Male Character Running/Upper Body/Shirt 4"><g id="Group 180"><path id="Fill 155" fill-rule="evenodd" clip-rule="evenodd" d="M0.788129 37.9847C0.788129 37.9847 6.74113 56.5507 9.43413 61.7957C12.1271 67.0397 10.4261 68.3147 10.2841 69.4487C10.1421 70.5827 10.2841 70.8667 10.0011 71.6457C9.71713 72.4247 9.08013 76.2277 8.98513 76.7957C8.89113 77.3627 8.37113 80.6227 8.37113 81.0937C8.37113 81.5667 9.12713 81.5197 9.41013 81.4247C9.69413 81.3307 10.1661 79.8667 10.3551 78.9217C10.5441 77.9757 11.4421 75.9447 11.4421 75.9447C11.4421 75.9447 11.0171 82.6067 11.0171 83.0787C11.0171 83.5507 12.0561 83.7877 12.2451 83.5977C12.4341 83.4097 14.0401 75.9447 14.0401 75.9447V80.7157C14.0401 81.3307 14.4651 84.2597 14.5131 84.4967C14.5591 84.7327 15.5991 84.9677 15.9771 84.3537C15.9771 84.3537 16.2131 81.2367 16.2611 80.1017C16.3081 78.9677 16.6391 76.8417 16.6391 76.8417C16.6391 76.8417 17.1111 79.9607 17.2531 80.6227C17.3941 81.2837 18.3871 84.0707 18.5761 84.1657C18.7651 84.2597 19.8041 84.1187 19.8981 83.8347C19.9931 83.5507 19.4261 79.6297 19.3791 78.9217C19.3311 78.2127 19.0011 72.0707 19.0011 72.0707C19.0011 72.0707 20.9851 74.8587 21.5991 74.8587C22.2131 74.8587 23.0641 74.8107 23.3001 74.5277C23.5361 74.2447 23.6311 73.7237 23.3471 73.5357C23.0641 73.3457 21.2211 69.6617 20.7961 68.1497C20.3711 66.6377 18.4811 64.3707 16.5441 63.3307C16.5441 63.3307 15.4571 58.5587 15.3631 54.2597C15.2681 49.9607 12.6701 35.5047 12.6701 35.5047C12.6701 35.5047 31.8511 28.7957 36.8591 26.4327C41.8671 24.0707 46.7801 21.2367 48.4811 18.4967C50.1821 15.7557 47.1581 2.33871 42.3391 3.84971C37.5201 5.36271 33.1271 7.11071 29.6311 10.7007C26.1351 14.2917 2.74813 27.8497 2.08713 28.7957C1.42613 29.7407 -0.416871 34.0397 0.788129 37.9847" fill="#db8c5c"/><g id="Group 159"><path id="Fill 157" fill-rule="evenodd" clip-rule="evenodd" d="M66.623 7.63019C66.623 7.63019 70.403 9.61419 71.726 15.4722C73.048 21.3302 81.93 36.8262 81.93 36.8262C81.93 36.8262 86.182 35.1262 90.245 34.3702C94.308 33.6142 97.993 30.4012 99.033 28.2282C100.072 26.0552 99.316 24.2602 101.489 22.8422C103.663 21.4252 104.324 18.4012 105.458 18.7792C106.592 19.1572 105.269 21.8032 105.269 21.8032C105.269 21.8032 108.292 20.3862 109.804 18.8742C111.316 17.3622 112.828 15.7562 113.395 16.1342C113.962 16.5122 113.298 19.1042 111.623 20.1262C111.623 20.1262 115.166 17.8222 115.698 18.2122C116.459 18.7712 115.769 19.7362 115.556 19.9132C115.344 20.0902 114.174 21.3302 114.174 21.3302C114.174 21.3302 115.592 20.4812 116.265 20.7642C116.938 21.0472 116.655 22.9962 114.706 24.3072C114.706 24.3072 115.344 23.9172 115.84 24.3782C116.336 24.8382 114.706 26.8222 111.34 29.0902C107.974 31.3592 106.131 33.0942 102.8 34.3342C99.47 35.5742 90.115 49.6772 80.974 52.1222C80.974 52.1222 73.993 49.5352 69.564 40.1462C65.135 30.7562 63.222 9.23619 66.623 7.63019" fill="#db8c5c"/></g><path id="Fill 160" fill-rule="evenodd" clip-rule="evenodd" d="M105.268 21.8031C104.814 22.3431 104.415 22.9161 104.138 23.5321C103.854 24.1501 103.771 24.7871 103.74 25.4911C103.688 26.1821 103.669 26.9031 103.468 27.6081C103.293 28.3131 102.862 28.9951 102.232 29.3381C102.727 28.8251 102.999 28.1951 103.092 27.5251C103.194 26.8571 103.201 26.1651 103.242 25.4581C103.278 24.7661 103.4 23.9801 103.798 23.3561C104.172 22.7271 104.674 22.1941 105.268 21.8031" fill="black"/><path id="Fill 170" fill-rule="evenodd" clip-rule="evenodd" d="M50.1816 0.638C50.1816 0.638 56.7956 9.142 61.3316 8.669C65.8666 8.197 62.6306 6.307 62.9136 5.197L63.3396 4.63C63.3396 4.63 67.9456 5.078 69.8356 9.189C71.7246 13.299 75.5516 22.086 75.5516 22.086C75.5516 22.086 74.3706 24.543 72.1506 27.898C72.1506 27.898 73.2366 37.772 67.0006 48.071C60.7646 58.37 58.7806 70.559 58.7806 70.559C58.7806 70.559 50.1816 64.607 39.4106 65.741C28.6386 66.874 25.0476 70.654 28.0716 63.756C31.0956 56.859 31.3786 50.906 30.8116 45.708C30.2446 40.512 31.2846 29.929 31.2846 29.929L29.9616 30.402C29.9616 30.402 23.7246 17.646 23.7246 14.15C23.7246 14.15 26.4656 12.638 28.2606 10.654C30.0556 8.669 38.5596 3.756 43.7566 2.811C48.9536 1.867 47.9136 0.733 50.1816 0.638" fill="#819500"/><path id="Fill 162" fill-rule="evenodd" clip-rule="evenodd" d="M108.221 22.5706C108.806 23.0326 109.24 23.6346 109.582 24.2846C109.741 24.6166 109.891 24.9566 109.969 25.3226C110.05 25.6846 110.097 26.0636 110.028 26.4326C109.759 25.7446 109.459 25.1386 109.137 24.5096C108.826 23.8806 108.492 23.2616 108.221 22.5706" fill="black"/><path id="Fill 164" fill-rule="evenodd" clip-rule="evenodd" d="M111.623 20.1263C111.275 20.5273 110.864 20.8563 110.457 21.1913C110.035 21.5023 109.615 21.8203 109.15 22.0533C109.509 21.6423 109.913 21.3173 110.315 20.9863C110.733 20.6793 111.146 20.3663 111.623 20.1263" fill="black"/><path id="Fill 166" fill-rule="evenodd" clip-rule="evenodd" d="M114.174 21.3304C113.682 21.9184 113.11 22.4224 112.526 22.9114C111.922 23.3694 111.308 23.8504 110.578 24.1054C110.898 23.8974 111.19 23.6584 111.487 23.4264L112.369 22.7164C112.967 22.2534 113.544 21.7654 114.174 21.3304" fill="black"/><path id="Fill 168" fill-rule="evenodd" clip-rule="evenodd" d="M114.705 24.307C114.168 24.914 113.549 25.433 112.916 25.935C112.263 26.396 111.599 26.906 110.799 27.102C111.162 26.923 111.483 26.687 111.807 26.454C112.128 26.218 112.453 25.986 112.766 25.736C113.41 25.262 114.033 24.759 114.705 24.307" fill="black"/><path id="Fill 172" fill-rule="evenodd" clip-rule="evenodd" d="M31.2852 29.929C32.1532 29.275 33.0352 28.652 33.9292 28.056L35.2642 27.158C35.7112 26.869 36.1232 26.546 36.6532 26.267C37.6812 25.762 38.7572 25.51 39.8362 25.34C40.9152 25.176 42.0102 25.101 43.0962 25.204C42.0292 25.392 40.9872 25.658 39.9542 25.913C38.9322 26.191 37.8972 26.475 36.9932 26.935C36.5612 27.142 36.1152 27.479 35.6452 27.755C35.1762 28.031 34.7112 28.306 34.2302 28.555C33.2782 29.07 32.2952 29.527 31.2852 29.929" fill="#596700"/><path id="Fill 174" fill-rule="evenodd" clip-rule="evenodd" d="M37.8984 59.9759C39.4644 59.3539 41.1324 59.0649 42.8124 58.9899C44.4734 58.9439 46.2574 59.1019 47.7254 59.9759C46.8984 59.8109 46.0874 59.7629 45.2774 59.7219C44.4674 59.6899 43.6534 59.7089 42.8394 59.7389C41.2074 59.7889 39.5774 59.9329 37.8984 59.9759" fill="#596700"/><path id="Fill 176" fill-rule="evenodd" clip-rule="evenodd" d="M34.3086 63.7562C35.7236 63.1242 37.2296 62.7192 38.7546 62.4242C40.2806 62.1262 41.8416 62.0082 43.4026 62.0222C44.9636 62.0382 46.5266 62.2722 48.0326 62.6812C49.5456 63.0802 50.9706 63.7642 52.2616 64.6072C51.5216 64.3612 50.8506 63.9902 50.0996 63.8192C49.7336 63.7112 49.3786 63.5762 49.0096 63.4852L47.8976 63.2412C46.4076 62.9772 44.9056 62.7712 43.3886 62.7722C41.8736 62.7392 40.3556 62.8342 38.8396 62.9912C37.3256 63.1642 35.8156 63.4202 34.3086 63.7562" fill="#596700"/><path id="Fill 178" fill-rule="evenodd" clip-rule="evenodd" d="M68.5137 12.7328C69.2947 13.8058 69.9107 14.9908 70.4467 16.2058C70.9927 17.4188 71.3997 18.6908 71.7317 19.9798C72.0537 21.2728 72.2747 22.5938 72.3417 23.9248C72.4437 25.2538 72.3557 26.5918 72.1517 27.8978C72.0727 27.2348 72.0977 26.5808 71.9957 25.9278C71.9477 25.2758 71.8777 24.6288 71.7677 23.9848C71.5697 22.6978 71.3347 21.4198 71.0047 20.1618C70.6987 18.8978 70.3207 17.6518 69.9107 16.4128C69.4937 15.1738 69.0227 13.9538 68.5137 12.7328" fill="#596700"/></g></g></g><g id="Profile Facial Hair" transform="translate(153 58) scale(16 14)"><g id="Profile Facial Hair/None" stroke="none" stroke-width="1" fill="none" fill-rule="evenodd" fill-opacity="0"/></g></g></svg>